<svg width="191" height="191" viewBox="0 0 191 191" fill="none" xmlns="http://www.w3.org/2000/svg">
<path d="M140.844 140.088C140.455 139.104 139.817 138.242 138.992 137.583C138.072 136.692 137.18 135.764 136.268 134.864C135.492 133.999 134.657 133.19 133.768 132.442C132.994 131.871 132.66 132.29 131.96 132.856C129.966 134.453 127.798 135.898 125.882 137.571C124.027 139.299 121.968 140.793 119.751 142.019C118.761 142.481 117.746 142.886 116.711 143.233C115.702 143.676 114.724 144.189 113.785 144.768C112.787 145.271 111.747 145.682 110.676 145.997C110.201 146.136 109.737 146.309 109.286 146.516C108.929 146.703 108.627 147.031 108.193 146.926C107.759 146.821 107.758 146.343 107.474 146.117C107.189 145.89 107.023 145.963 106.644 145.983C106.319 145.974 105.995 146.028 105.69 146.142C105.15 146.426 105.225 146.935 104.87 147.294C104.289 147.894 102.554 147.901 101.772 147.975C100.663 148.08 99.5543 148.25 98.466 148.391C96.6239 148.642 94.1674 149.073 92.3532 148.519C91.5791 148.278 91.9824 147.465 91.2608 147.17C90.9288 147.042 90.3993 147.143 90.0395 147.093C89.3612 147.018 88.6905 146.901 88.0161 146.821C87.4971 146.763 87.1165 146.669 86.6708 146.964C86.2251 147.259 86.0581 147.662 85.4503 147.696C84.5926 147.69 83.7738 147.351 83.1664 146.751C82.4827 146.194 82.7543 146.764 81.9957 147.184C81.1356 147.659 80.0326 147.205 79.1574 147.043C78.6829 146.947 78.1859 147.039 77.732 146.955C77.2135 146.784 76.7057 146.583 76.2111 146.354C75.1173 145.989 73.9871 145.661 72.8698 145.387C71.7525 145.112 70.7725 145.075 70.072 144.098C69.7321 143.623 69.7343 143.456 69.1162 143.293C68.6505 143.237 68.1924 143.131 67.7495 142.979C67.3561 142.743 66.9879 142.468 66.6507 142.157C66.0994 141.801 65.526 141.481 64.934 141.197C63.9361 140.65 62.9187 140.182 61.909 139.664C61.4955 139.414 61.121 139.106 60.7968 138.748C60.3843 138.349 59.7659 138.162 59.3332 137.783C58.9004 137.404 58.7405 136.966 58.3733 136.611C57.962 136.299 57.4978 136.062 57.0024 135.913C56.5296 135.701 56.1169 135.376 55.8002 134.966C55.612 134.772 55.4491 134.555 55.3155 134.319C55.28 134.059 55.5664 133.755 55.5341 133.417C55.4334 132.794 54.8469 132.541 54.4022 132.183C53.4878 131.506 52.7755 130.593 52.3405 129.54C52.0414 128.701 51.9374 127.777 51.059 127.33C50.6281 127.202 50.2613 126.919 50.0299 126.535C49.6651 126.028 49.3208 125.525 49.0046 124.984C48.3975 123.96 47.8557 122.951 47.2244 121.96C46.5931 120.969 46.1069 119.812 45.419 118.871C44.926 118.207 43.8081 117.876 43.6639 117.017C43.5465 116.363 43.9697 115.876 43.7014 115.229C43.1766 114.236 42.5823 113.283 41.9231 112.375C41.6659 112.028 41.5128 111.614 41.4814 111.18C41.359 110.116 41.0837 109.077 40.6637 108.095C40.3849 107.235 39.9426 106.363 39.729 105.494C39.6305 105.075 39.72 104.677 39.6416 104.23C39.5211 103.661 39.1358 103.514 38.8047 103.096C38.4735 102.679 37.9252 101.437 38.0501 100.92C38.2497 100.144 39.7524 100.574 39.3986 99.5773C39.2637 99.1882 38.92 99.1138 38.9023 98.612C38.9271 98.2663 38.9904 97.924 39.091 97.5916C39.2387 96.5475 38.0693 96.3597 37.9317 95.3543C37.7182 93.7503 39.7193 92.741 39.624 91.1305C39.5949 90.7147 39.3305 90.4181 39.2731 90.0315C39.3004 89.4875 39.4044 88.9493 39.5821 88.433C39.8364 87.3515 39.9883 86.2494 40.0357 85.1414C40.0821 84.1452 40.3622 83.1716 40.8534 82.2994C41.0861 81.8489 41.275 81.3774 41.4175 80.8914C41.5316 80.5094 41.6846 79.204 42.0169 78.9847C42.8435 78.4368 42.4909 80.1464 42.469 80.3837C42.3304 81.5092 42.4573 82.6577 42.2696 83.7761C42.1474 84.538 41.3907 85.509 41.701 86.2618C42.0114 87.0147 42.9499 86.995 42.4072 87.7534C42.2063 88.0352 41.7908 88.1174 41.6599 88.459C41.529 88.8005 41.6501 89.4267 41.625 89.7415C41.5355 90.8742 41.4705 92.0145 41.3646 93.1556C41.2294 94.5833 41.192 96.0176 41.2527 97.4484C41.3118 98.7413 41.1727 100.189 41.4558 101.441C41.6577 102.355 42.2334 103.115 42.3904 104.026C42.5473 104.937 42.6874 105.791 42.9258 106.692C43.1643 107.594 43.3661 108.863 42.955 109.717C42.3923 110.876 42.9509 110.827 43.8404 111.535C45.1661 112.577 45.3235 114.644 46.0374 116.086C46.4882 116.999 46.9715 117.895 47.4221 118.784C49.1151 122.039 51.2703 125.015 53.401 127.991C54.1016 128.977 55.0403 129.716 55.8219 130.635C56.5041 131.433 57.0201 132.328 58.1767 132.463C57.3768 131.258 56.4446 130.147 55.3974 129.149C54.485 128.209 53.0838 127.361 52.683 126.173C52.4102 125.602 52.0873 125.057 51.7181 124.544C51.4388 124.007 51.6527 123.423 51.4187 122.921C51.1846 122.42 50.2429 121.783 49.8583 121.329C49.3761 120.706 48.9495 120.042 48.5834 119.343C47.8552 117.956 47.2125 116.524 46.6587 115.056C46.4505 114.455 46.1999 113.87 45.9088 113.305C45.4633 112.51 45.3103 112.329 45.4596 111.432C45.54 110.945 45.3817 111.025 45.3035 110.602C45.2254 110.18 45.3951 110.021 45.1254 109.622C44.8557 109.224 44.3173 108.888 44.7307 108.247C44.8695 108.066 45.0432 107.915 45.2411 107.803C45.4391 107.691 45.6573 107.62 45.8827 107.594C45.3627 107.817 44.1759 107.16 43.8977 106.729C43.2832 105.787 43.4903 104.203 43.3685 103.148C43.2646 102.24 42.8188 101.412 42.7474 100.487C42.7088 99.949 42.9533 99.5397 42.9887 99.0491C43.0264 98.3993 42.678 97.5207 42.6298 96.8522C42.5112 94.6351 42.5673 92.4104 42.7974 90.1987C42.8596 89.5483 42.9299 88.8896 43.0167 88.2469C43.0422 87.8798 43.1336 87.5197 43.2867 87.1839C43.3668 87.0435 43.7992 86.6548 43.8147 86.5728C43.8301 86.4908 43.5304 85.9664 43.5034 85.7384C43.3725 84.594 44.0178 83.1517 44.2914 82.052C44.6938 80.5498 45.1832 79.0716 45.757 77.6247C46.2449 76.3078 46.8127 75.0212 47.4574 73.7723C47.7595 73.2452 48.1811 72.7958 48.6879 72.4606C49.0596 72.1181 48.9623 72.1773 48.8628 71.6609C48.7489 70.953 48.8466 70.9346 49.2356 70.3019C49.7287 69.4956 49.9925 68.6124 50.5388 67.8172C52.1216 65.5062 53.5626 62.9287 55.648 61.0481C56.8887 59.924 58.0262 58.6919 59.2296 57.5237C60.4331 56.3555 61.7042 55.3982 62.9207 54.3073C63.2522 54.0146 64.105 53.6212 64.2434 53.2142C64.4329 52.6306 63.8679 52.4709 63.728 52.0044C63.436 51.0593 65.6986 50.069 65.2118 51.8264C66.3547 51.8352 67.0042 51.1398 67.9159 50.5289C68.7182 49.9977 70.0642 49.5409 70.5732 48.6934C69.2181 48.6891 67.9635 50.7769 66.563 50.3571C66.133 50.2314 65.5631 49.631 65.8353 49.1436C66.0073 48.8256 66.8983 48.558 67.2089 48.229C68.3078 47.2235 69.5978 46.4506 71.0002 45.9576C71.5771 45.7087 72.2068 45.8099 71.9746 45.1085C71.7805 44.5329 71.2376 44.532 71.77 43.9493C72.2301 43.4743 73.1777 43.1647 73.7537 42.8424C74.4798 42.4312 75.0818 41.8757 75.7791 41.4447C76.4176 41.1434 77.1076 40.9695 77.8102 40.9328C78.5557 40.782 79.2771 40.5264 79.9529 40.1736C81.1748 39.5725 82.755 38.5107 84.147 38.5265C84.7108 38.5931 85.2779 38.6303 85.8462 38.638C86.6169 38.577 87.378 38.3774 88.1522 38.2632C88.9265 38.149 89.6252 38.2202 90.3631 38.1435C91.1011 38.0668 91.8521 37.696 92.6344 37.5735C94.024 37.423 95.4268 37.5069 96.784 37.8215C97.3804 37.9646 97.9922 38.0367 98.6068 38.0365C99.2392 38.011 99.8265 37.6028 100.457 37.7774C100.899 37.8906 101.218 38.2799 101.707 38.2615C102.058 38.2542 102.178 38.0231 102.479 37.9433C103.061 37.7801 103.146 38.1212 103.635 38.4008C104.124 38.6804 104.989 38.6542 105.33 39.1859C105.67 39.7177 105.159 40.3938 105.231 40.9883C105.303 41.5828 105.626 41.6454 106.205 41.9313C106.603 42.1067 106.967 42.193 106.853 42.6158C106.7 43.2109 105.759 43.3817 105.944 44.2228C106.138 44.7903 106.545 45.2578 107.081 45.5258C107.651 45.7629 108.326 45.5202 108.915 45.6222C109.504 45.7242 109.999 46.2363 110.581 46.4283C110.831 46.5088 111.099 46.4134 111.374 46.5342C111.649 46.655 111.775 47.0034 112.066 47.1157C112.513 47.2901 113.155 47.0889 113.651 47.2214C114.842 47.568 116.424 49.2127 116.915 47.1531C117.001 46.8248 116.958 45.8378 117.609 46.0487C118.129 46.2133 117.795 46.9796 117.819 47.3588C117.844 47.7379 118.091 48.639 118.678 48.5696C119.265 48.5002 119.69 47.087 119.469 46.6793C119.182 46.1505 118.22 45.8808 117.715 45.6097C117.062 45.26 116.469 44.8397 115.849 44.4322C115.253 43.9477 114.528 43.6493 113.762 43.5736C113.419 43.5726 112.968 43.7494 112.644 43.6868C112.311 43.8325 112.143 43.7258 112.143 43.3788C112.045 43.1878 111.902 43.024 111.726 42.9018C110.825 42.2715 108.835 42.8642 109.366 41.0447C109.52 40.5394 109.916 39.8167 110.508 39.8002C110.76 39.7378 111.094 40.0615 111.247 40.2093C111.504 40.3893 111.745 40.5904 111.968 40.8107C112.016 40.9453 112.022 41.0919 111.985 41.2308C112.205 41.565 111.839 41.3808 112.156 41.5987C112.345 41.7254 112.614 41.6708 112.814 41.6299C113.396 41.5075 113.739 41.1125 114.362 41.3934C114.879 41.6275 114.973 42.4134 115.42 42.6041C115.683 42.7211 115.938 42.5239 116.207 42.4938C116.556 42.4548 116.908 42.5021 117.233 42.6315C119.359 43.3178 121.143 44.5215 123.085 45.5627C126.238 47.3452 129.191 49.4577 131.893 51.8653C133.331 53.1257 134.615 54.551 135.72 56.1125C136.412 57.0492 137.463 57.6151 138.094 58.6143C138.51 59.2751 138.678 60.1329 139.26 60.7127C139.99 61.4199 140.692 61.7115 141.22 62.6679C141.429 63.0554 142.232 64.496 141.094 64.1606C140.73 64.0498 140.221 63.1052 139.944 62.7966C139.362 62.1516 138.816 61.4853 138.201 60.8654C136.913 59.5534 135.681 58.1912 134.365 56.9001C132.906 55.5366 131.378 54.2483 129.788 53.0401C129.1 52.487 128.413 51.934 127.701 51.4059C127.236 51.0605 126.484 50.2761 125.844 50.3507C125.555 50.3853 125.346 50.7407 125.073 50.7505C124.8 50.7603 124.477 50.3915 124.259 50.2124C123.589 49.6697 122.846 49.2224 122.053 48.8828C122.232 49.9527 122.986 49.8838 123.581 50.5327C124.176 51.1816 123.509 51.7711 123.705 52.4937C123.811 52.7209 123.966 52.9217 124.159 53.0819C124.352 53.2422 124.578 53.3581 124.821 53.4215C125.605 53.7929 126.003 54.3725 126.666 54.9342C127.441 55.5122 128.257 56.0327 129.108 56.4916C129.956 57.062 130.731 57.7339 131.415 58.4926C131.731 58.764 131.963 59.1201 132.084 59.5196C132.199 59.9703 132.122 60.3638 132.408 60.7702C132.905 61.4538 133.849 61.5279 134.598 61.7205C136.35 62.1574 137.305 64.4153 138.178 65.8503C138.413 66.2488 138.671 66.6332 138.95 67.0017C139.147 67.3095 139.327 67.6288 139.487 67.958C139.739 68.2669 140.035 68.5371 140.365 68.7602C140.737 69.1182 141.028 69.5518 141.22 70.0323C143.081 73.5797 144.608 77.2949 145.783 81.1305C148.698 91.2153 148.637 101.956 145.605 112.065C145.144 113.557 144.563 114.957 143.979 116.402C143.811 117.002 143.612 117.594 143.382 118.174C143.17 118.558 142.764 118.697 142.535 119.049C142.306 119.401 142.42 119.745 142.358 120.057C141.977 120.995 141.514 121.898 140.976 122.756C140.588 123.486 139.973 124.716 139.016 124.581C139.382 125.92 137.997 127.631 137.071 128.503C136.146 129.376 133.098 130.542 133.672 132.228C133.946 133.01 135.117 133.782 135.699 134.353C136.471 135.101 137.238 135.844 138.009 136.591C138.364 136.935 139.077 137.892 139.686 137.626C140.295 137.36 140.571 136.06 141.067 135.531C141.413 135.279 141.74 135.002 142.046 134.702C142.251 134.392 142.217 133.956 142.327 133.586C142.736 132.724 143.207 131.893 143.737 131.099C143.87 130.746 144.084 130.428 144.362 130.171C144.64 129.914 144.974 129.725 145.337 129.621C146.218 129.239 146.588 128.329 146.971 127.505C147.353 126.68 147.977 125.904 148.409 125.062C148.884 124.125 149.188 123.16 149.741 122.258C150.204 121.539 150.506 120.729 150.626 119.884C150.712 119.25 150.46 117.826 151.08 117.384C151.266 117.25 151.549 117.403 151.764 117.24C152.1 117 152.255 115.907 152.366 115.545C152.608 114.485 152.976 113.456 153.462 112.481C153.895 111.778 154.954 111.503 154.927 110.589C154.915 110.213 154.581 109.947 154.712 109.573C154.843 109.198 155.392 109.036 155.741 108.89C156.018 110.329 155.661 112.39 155.355 113.837C155.192 114.592 154.626 115.49 154.753 116.267C154.916 117.329 155.516 116.61 155.726 115.997C156.552 113.587 157.214 111.125 157.706 108.628C157.842 107.993 157.945 107.35 158.105 106.722C158.266 106.094 158.553 104.732 159.437 104.975C160.018 105.126 159.853 105.726 159.858 106.191C159.864 106.656 160.028 107.098 159.821 107.568C159.613 108.037 159.348 108.055 159.235 108.502C159.187 108.868 159.177 109.238 159.206 109.605C159.249 110.519 159.192 111.436 159.036 112.34C158.814 113.238 158.429 113.924 158.469 114.891C158.921 114.678 159.315 114.359 159.617 113.961C159.765 113.635 159.558 113.37 159.616 113.054C159.673 112.739 159.997 112.495 160.132 112.133C160.37 111.491 159.891 110.632 159.839 109.959C159.779 108.94 160.153 108.504 160.803 107.792C161.452 107.08 160.88 107.06 160.786 106.241C160.708 105.536 161.537 105.144 161.709 104.462C162.159 102.162 162.338 99.8194 162.24 97.4828C162.285 95.3746 162.175 93.2675 161.91 91.1786C161.747 90.1492 161.556 89.1244 161.353 88.104C161.031 86.9942 160.776 85.8653 160.59 84.7236C160.51 83.8394 160.644 83.016 160.516 82.1084C160.409 81.2488 160.255 80.3962 160.055 79.5543C159.827 78.6338 159.595 77.712 159.359 76.7889C159.298 76.4413 159.209 76.0992 159.095 75.7657C158.73 74.8956 157.913 75.1291 158.188 74.1599C158.651 72.5173 157.223 70.6897 156.623 69.1714C155.333 65.8497 153.591 62.7255 151.447 59.8864L150.581 58.7492C150.214 58.1563 149.902 57.5301 149.651 56.8786C149.209 56.1763 148.656 55.551 148.014 55.0268C147.28 54.3163 146.634 53.5199 146.09 52.6544C144.957 50.9513 143.213 49.7712 142.104 48.0349C141.575 47.2745 140.916 46.614 140.156 46.0835C139.308 45.4073 138.52 44.5951 137.615 43.9935C136.912 43.5305 135.851 43.5609 135.346 42.8856C135.039 42.4838 134.931 41.9513 134.612 41.5375C134.244 41.1237 133.824 40.7581 133.364 40.4491C132.264 39.5552 131.111 38.7273 129.912 37.9699L127.102 36.3059C126.892 36.1837 126.687 36.0411 126.469 35.9272C125.821 35.5979 124.611 35.7906 124.792 36.7257C125.057 37.3566 125.417 37.9424 125.86 38.4628C126.16 38.6158 126.589 38.3129 126.854 38.2624C127.215 38.2294 127.574 38.3277 127.865 38.5393C128.621 38.997 128.992 39.7118 129.885 39.9789C130.315 40.1046 130.621 40.0452 130.898 40.4272C131.176 40.8092 131.023 41.3553 131.356 41.6056C131.562 41.7482 131.98 41.5721 132.226 41.6404C132.528 41.7259 132.805 41.8808 133.035 42.093C133.438 42.403 134.309 42.8828 134.465 43.3817C134.506 43.6608 134.472 43.9464 134.37 44.2104C134.267 44.4744 134.097 44.7079 133.878 44.888C133.241 45.1994 132.237 44.1059 131.643 43.8938C130.671 43.5426 130.395 43.6137 129.895 42.7097C129.641 42.3023 129.291 41.9636 128.876 41.7227C128.049 41.1236 127.149 40.6158 126.266 40.0995C125.375 39.5891 124.456 39.13 123.512 38.7242C122.63 38.3303 122.055 37.5871 121.073 37.4117C120.243 37.2617 118.999 37.6714 118.249 37.3891C117.499 37.1068 118.278 36.3597 118.582 35.7982C118.886 35.2367 119.296 34.6158 120.017 34.5639C120.23 34.5513 120.918 34.839 121.101 34.7168C121.283 34.5946 121.236 33.6281 121.173 33.4539C120.572 31.9193 117.129 31.6851 115.904 32.3884C114.853 32.9859 115.968 32.9994 116.541 33.167C116.936 33.2758 117.278 33.5217 117.506 33.8609C117.734 34.2001 117.833 34.6104 117.786 35.0188C117.522 36.249 116.369 36.069 115.458 35.9942C114.547 35.9193 113.393 36.0373 112.581 35.7277C111.77 35.4181 111.747 34.4592 111.25 33.8001C111.001 33.4706 110.597 33.475 110.398 33.1444C110.136 32.7049 110.539 32.6189 110.941 32.4105C111.343 32.202 111.781 32.0132 112.204 31.8411C112.626 31.669 113.637 31.8397 113.81 31.2891C114.291 29.7604 109.803 30.2503 109.203 30.2669C108.268 30.2905 107.143 30.3875 106.341 29.8287C105.539 29.2698 105.244 28.7657 104.112 28.6383C103.343 28.5564 102.488 28.3335 101.724 28.329C100.761 28.3247 100.793 28.9935 100.104 29.3998C99.5886 29.7086 97.8902 30.0339 97.3444 29.7718C96.4294 29.3296 97.0853 28.1076 96.3129 27.6502C95.7256 27.3155 94.2872 27.5374 93.6348 27.5919C92.5379 27.6924 91.4504 27.8988 90.3544 28.0728C89.6207 28.1697 88.3465 28.0984 87.7227 28.536C87.3298 28.8095 87.2718 29.1006 86.7718 29.2866C86.4101 29.4289 86.0185 29.4452 85.6651 29.6037C85.3221 29.9578 84.5876 28.4954 84.3661 28.3939C84.0174 28.2338 83.0332 28.5565 82.6787 28.6088C82.0675 28.7032 81.4562 28.7895 80.8495 28.9205C80.0351 29.1008 79.2336 29.334 78.4237 29.5428C74.9852 30.4545 71.5976 31.5542 68.2763 32.837C66.2724 33.5933 64.6468 34.9744 62.7389 35.9287C60.8311 36.883 58.8887 37.6666 57.1277 38.9893C56.2452 39.6528 55.4083 40.3765 54.5714 41.1002C53.8839 41.6861 52.9923 42.2599 52.4868 43.0543C52.2141 43.5009 52.3991 44.7299 52.0711 44.9694C51.5974 45.3181 51.1601 44.5231 50.5559 44.8827C49.8496 45.3625 49.3418 46.0836 49.1292 46.9087C48.8764 48.0448 49.3657 48.0019 50.0417 48.6001C50.4212 48.9678 50.3652 49.4384 51.023 49.1307C51.3418 48.9078 51.6323 48.6467 51.8879 48.3533L52.8619 47.4716C53.1162 47.2091 53.8215 46.3983 54.1716 46.3175C55.4541 46.0254 53.7183 47.7762 53.5044 47.997C52.778 48.747 52.0515 49.497 51.3251 50.247C50.5973 50.9572 49.7922 51.5835 48.9252 52.1138C47.2522 53.2632 45.8258 55.3138 44.6109 56.9312C43.3961 58.5487 42.5548 60.3584 41.4508 62.0348C39.2748 65.3298 38.0461 69.0254 36.5676 72.6487C36.0311 73.9703 35.7976 75.3754 35.2447 76.6892C34.9944 77.3629 34.8828 78.0791 34.9169 78.7943C34.81 79.7231 34.6484 80.6452 34.433 81.5559C34.2504 82.2979 33.9345 83.0017 33.5007 83.6328C33.0085 84.529 33.2546 85.0096 33.293 85.9028C33.2193 86.5343 33.0499 87.1518 32.7908 87.734C32.5391 88.6047 32.8541 89.4105 32.7986 90.3016C32.7431 91.1927 32.4331 91.9503 32.3075 92.7816C32.182 93.6129 32.4973 94.4514 32.5399 95.3486C32.6354 97.3551 32.5879 99.3441 32.8181 101.352C33.0484 103.36 33.4528 105.245 33.8209 107.169C34.1068 108.665 34.6125 110.116 35.0326 111.572C35.3 112.502 35.5794 113.41 35.9241 114.317C36.6389 116.221 37.257 118.241 38.1343 120.068C38.5688 120.982 38.9099 121.934 39.251 122.886C39.4913 123.579 40.2241 124.895 39.7423 125.623C39.413 126.112 39.773 125.814 39.2999 125.849C39.0572 125.829 38.8196 125.77 38.596 125.676C38.215 125.517 37.9089 125.22 37.7379 124.844C37.2302 123.965 36.8642 122.973 36.4096 122.088C35.5089 120.36 35.1046 118.482 34.5207 116.608C34.2622 115.744 33.8453 114.945 33.5745 114.077C33.3037 113.209 33.5717 112.338 33.4114 111.496C33.3669 111.157 33.2401 110.834 33.0419 110.557C32.8596 110.316 32.4172 110.17 32.3405 109.877C32.2638 109.585 32.5803 109.415 32.7036 109.115C32.8164 108.672 32.8127 108.21 32.6929 107.772C32.4135 106.12 30.8746 104.993 30.8798 103.246C30.8708 102.429 31.4832 101.698 31.2826 100.906C31.1844 100.512 30.8908 100.163 30.7764 99.778C30.6504 99.2536 30.5748 98.718 30.5506 98.1784C30.4052 97.2439 30.3144 96.3012 30.2787 95.355C30.3582 94.2969 30.4951 93.2434 30.6889 92.199C30.9441 90.1199 30.9935 88.0226 30.8363 85.9379C30.7734 85.1913 30.8795 84.4384 31.1468 83.7351C31.4049 83.2959 31.6878 82.8716 31.994 82.4642C32.3133 81.8043 31.8097 81.6638 31.7581 81.0566C31.836 80.5644 31.9619 80.0804 32.134 79.6118C32.4369 78.2012 32.8555 76.9269 33.2771 75.5506C33.5018 74.8315 33.5378 74.0184 33.8241 73.3347C34.1417 72.5198 34.983 72.5675 34.9493 71.7273C34.8653 70.0308 35.6076 68.8682 36.6085 67.4634C37.2075 66.7153 37.7242 65.9051 38.1492 65.0471C38.5826 63.9971 39.3292 63.2263 39.8894 62.2103C40.842 60.4922 41.6882 58.76 42.7515 57.0926C43.9592 55.1936 45.2283 53.3137 46.5675 51.5018C46.7888 51.2073 47.5159 50.5226 46.8642 50.2709C46.2124 50.0192 45.7912 51.0567 45.6113 51.3993C45.1676 52.2536 44.409 52.3021 43.7461 52.8956C42.9579 53.5938 42.7654 54.6429 42.3017 55.5344C41.4026 57.2881 39.6081 58.5299 38.663 60.1744C37.085 63.052 35.705 66.0324 34.5326 69.0948C33.3963 71.919 31.707 74.5547 30.8576 77.4872C29.9897 80.2279 29.3703 83.039 29.0072 85.8863C28.8436 87.9607 28.8679 90.0439 29.0797 92.1102C29.1558 93.0884 29.24 94.0663 29.2998 95.0448C29.2993 95.4594 29.3547 95.8715 29.4643 96.2702C29.595 96.6471 29.9656 96.9414 30.023 97.3444C30.0789 97.9719 29.3239 99.0898 29.172 99.7503C28.9433 100.717 28.8702 101.712 28.9554 102.698C29.1178 104.47 29.6711 106.161 29.9474 107.907C30.2831 109.847 30.8232 111.824 31.3015 113.749C31.7798 115.674 32.6755 117.325 32.8027 119.241C32.8284 119.718 32.7593 120.111 33.0859 120.492C33.3092 120.757 33.6734 120.843 33.889 121.141C34.4418 122.121 34.8442 123.181 35.0827 124.284C35.2572 125.185 35.5466 126.06 35.944 126.886C36.1685 127.257 36.5386 127.511 36.7671 127.869C37.0294 128.406 37.234 128.97 37.3774 129.551C37.4847 129.905 37.638 130.244 37.8334 130.558C38.1402 130.992 38.6153 131.145 38.9299 131.539C39.4702 132.402 39.9219 133.319 40.2783 134.274C40.5708 134.889 41.1274 135.396 41.3548 136.028C41.6454 136.842 41.2545 137.303 42.1889 137.643C42.7851 137.807 43.3263 138.125 43.7582 138.566C44.1047 138.901 44.4637 139.249 44.8465 139.547C45.5843 140.197 46.2781 140.934 47.0601 141.522C47.4183 141.804 47.8408 141.995 48.1787 142.29C48.6484 142.689 48.6744 143.198 49.0422 143.603C49.2691 143.823 49.8499 143.933 50.1083 144.054C50.5477 144.25 50.973 144.476 51.3811 144.73C52.2217 145.293 53.0309 145.902 53.8052 146.553C55.2585 147.686 56.7762 148.744 58.2737 149.815C60.7008 151.517 63.3319 152.91 66.1071 153.962C68.1413 154.637 70.1273 155.447 72.0521 156.385C73.6368 157.226 75.7624 157.508 77.505 157.863C80.2428 158.475 83.0213 158.897 85.8209 159.126C88.1778 159.285 90.404 159.075 92.7462 159.01C94.5048 158.961 96.3275 159.168 98.0952 159.2C99.2668 159.221 101.901 158.97 102.546 160.112C103.326 158.703 105.342 158.265 106.798 158.149C107.59 158.056 108.388 158.223 109.072 158.624C109.709 158.949 109.523 158.729 110.031 158.163C110.571 157.646 111.274 157.335 112.017 157.285C112.868 157.148 113.619 157.48 114.437 157.263C115.142 156.992 115.815 156.641 116.442 156.216C116.819 156.025 117.292 155.99 117.662 155.783C117.976 155.576 118.256 155.321 118.49 155.026C119.12 154.425 120.057 154.234 120.857 153.887C121.828 153.438 122.756 152.908 123.723 152.439C124.078 152.237 124.458 152.084 124.852 151.983C125.309 151.9 125.576 152.062 126.009 152.085C126.943 152.094 126.353 151.49 126.881 151.267C127.296 151.087 127.607 151.929 128.11 151.649C128.325 151.543 128.397 151.064 128.542 150.873C128.845 150.527 129.245 150.281 129.689 150.167C130.528 149.921 131.32 149.978 131.916 149.223C132.554 148.345 133.403 147.642 134.383 147.179C135.32 146.707 136.099 145.969 136.621 145.058C137.053 144.29 136.998 143.373 137.847 142.967C138.3 142.857 138.737 142.684 139.143 142.454C139.538 142.049 139.975 141.687 140.446 141.374C141.302 140.927 141.122 140.882 140.847 139.985M125.787 51.4418L125.849 51.1793C126.152 51.2546 125.872 51.3543 125.787 51.4418ZM139.481 134.156L139.431 134.439C139.066 134.344 139.055 134.075 139.481 134.156ZM141.377 129.152C141.757 129.981 139.668 130.017 140.613 128.776C140.794 128.532 141.363 127.928 141.642 128.392C141.833 128.698 141.238 128.808 141.377 129.152ZM146.586 120.72C146.112 121.709 145.662 122.7 145.235 123.691C144.836 124.565 144.533 125.91 143.431 125.933C142.709 125.944 142.507 125.757 142.703 125.083C142.79 124.771 143.083 123.998 143.407 124.093C143.94 122.841 144.502 121.633 145.15 120.435C145.37 120.027 145.547 119.423 146.128 119.541C146.242 119.581 146.345 119.645 146.431 119.728C146.518 119.812 146.585 119.913 146.628 120.026C146.671 120.138 146.689 120.258 146.681 120.379C146.673 120.5 146.639 120.617 146.582 120.724M160.421 101.301C160.311 101.324 160.249 101.288 160.232 101.183L160.421 101.301ZM158.246 96.5131C159.323 96.1273 160.176 99.0609 160.444 99.7003C160.444 99.7003 160.35 99.7064 160.334 99.7312C160.677 99.7485 160.78 100.163 160.694 100.475C160.557 101.004 160.25 100.99 160.199 101.555C160.148 102.119 160.554 102.98 160.163 103.466C160.068 103.566 159.953 103.644 159.826 103.696C159.698 103.747 159.561 103.771 159.425 103.765C159.288 103.759 159.154 103.723 159.033 103.661C158.911 103.598 158.805 103.51 158.722 103.402C157.932 102.459 158.759 100.838 158.731 99.7688C158.712 99.1446 157.518 96.7773 158.246 96.5131ZM150.061 104.518C150.233 105.025 150.652 105.559 150.572 106.112C150.492 106.664 150.084 107.012 150.095 107.693C150.101 108.216 150.301 108.975 150.025 109.467C149.889 109.722 149.547 109.811 149.452 110.058C149.326 110.436 149.475 111.009 149.447 111.41C149.33 113.033 148.763 114.592 148.638 116.207C148.599 116.742 148.811 117.844 148.432 118.26C147.877 118.571 147.278 118.794 146.656 118.922C145.024 118.956 146.284 116.64 146.566 115.96C146.848 115.281 147.477 114.565 147.526 113.781C147.568 113.143 147.187 112.645 147.098 112.034C146.966 111.098 147.507 110.977 147.977 110.301C148.447 109.626 148.425 108.675 148.51 107.894C148.529 106.949 148.637 106.008 148.834 105.083C148.968 104.663 149.785 103.581 150.06 104.494M157.263 96.5541C157.304 96.9574 156.824 96.7265 156.703 96.5372C156.516 96.2268 156.672 95.1907 156.685 94.9047C156.699 94.6186 156.774 94.0374 156.806 93.6244C157.266 93.8597 157.045 94.2032 157.012 94.559C157.053 95.2261 157.133 95.8896 157.254 96.5461M158.85 86.899C159.625 86.842 159.441 87.5521 159.397 87.9857C159.358 88.5768 159.452 89.1678 159.673 89.7149C159.917 90.4119 160.793 92.0755 160.282 92.7843C159.913 93.2982 159.273 93.0748 158.971 92.6443C158.531 92.0167 158.655 90.9976 158.63 90.2633C158.612 89.7044 157.966 86.9869 158.863 86.911M156.169 86.5387C156.112 86.597 156.187 86.7261 156.084 86.6262C155.981 86.5263 156.112 86.597 156.169 86.5387ZM158.07 80.2C159.157 79.9038 159.294 83.4198 157.695 82.8001C156.797 82.4474 157.257 80.4293 158.07 80.2ZM149.278 87.9482C150.043 88.0996 150.26 88.8993 150.541 89.5507C150.666 89.8256 150.844 89.9975 150.663 90.2503C150.378 90.7093 150.012 90.0965 149.769 89.8689C149.525 89.6413 148.32 88.8051 148.325 88.4703C148.329 88.1354 148.914 87.862 149.274 87.9197M148.326 86.7026C148.454 86.8265 148.449 86.7735 148.222 86.9497L148.127 86.8578L148.326 86.7026ZM148.669 83.7399C148.541 83.8321 148.406 83.9115 148.263 83.977C147.98 83.146 148.216 82.7043 148.669 83.7399ZM156.769 74.312C156.847 74.388 156.652 74.837 156.587 74.8792C156.523 74.9214 155.793 74.6264 155.719 74.6034C155.987 74.1202 156.251 73.5921 156.785 74.328M151.402 70.2685C151.608 70.799 152.036 71.5126 151.814 72.0561C151.559 71.8033 151.366 71.4953 151.249 71.1554C151.132 70.8155 151.094 70.4526 151.139 70.0944C151.24 70.1293 151.33 70.1892 151.402 70.2685ZM148.708 65.026C149.004 65.5873 149.381 66.155 149.637 66.7334C149.892 67.3118 149.816 67.44 149.318 67.0626C148.404 66.355 147.416 64.4693 147.15 63.3481C147.788 63.7913 148.319 64.3696 148.708 65.0424M149.137 59.1427C149.068 59.5769 148.978 59.5787 148.626 59.4555C148.65 59.4305 149.198 58.8067 149.137 59.1427ZM142.81 51.286C143.505 51.0551 145.233 52.2845 144.142 52.5767C143.503 52.7656 141.878 51.6116 142.81 51.286ZM142.753 53.1936C143.147 53.4303 142.694 53.7255 142.349 53.6103C142.005 53.495 141.564 52.7123 141.349 52.4637C141.817 52.6906 142.289 52.9053 142.732 53.1736M135.586 45.8157C136.517 45.8289 138.407 45.8343 138.988 46.7285C139.333 47.256 138.924 47.6197 138.958 48.1211C139.036 48.8666 139.253 48.5518 139.947 48.5781C140.189 48.5889 140.426 48.6484 140.643 48.7531C140.861 48.8579 141.054 49.0056 141.213 49.1875C141.371 49.3695 141.49 49.5818 141.564 49.8119C141.638 50.042 141.664 50.2851 141.642 50.5266C141.576 50.8505 141.391 51.0911 141.318 51.456C141.244 51.8209 141.356 52.0022 141.277 52.2243C141.067 52.8288 140.362 52.9048 139.805 53.0838C140.469 54.0496 141.359 54.8801 142.116 55.8155C142.77 56.6183 143.488 58.0729 144.487 58.3214C144.35 57.3813 143.218 56.5191 142.606 55.8216C142.346 55.5208 140.855 54.3273 140.977 53.9125C141.224 52.9725 142.811 54.7436 142.996 54.8745C143.732 55.3776 144.156 54.5604 144.978 54.7351C145.649 54.868 146.521 55.5111 146.285 56.2917C146.049 57.0722 145.14 57.177 145.452 58.1175C145.714 58.8877 146.438 59.4604 146.623 60.3016C146.808 61.1427 146.836 62.2443 147.026 63.1874C145.45 63.1632 144.341 60.6432 143.419 59.5398L140.557 56.1134C139.399 54.7415 138.197 53.4562 136.978 52.1386C136.259 51.3617 134.685 50.3781 134.999 49.2285C135.151 48.5681 135.785 47.9874 135.671 47.2632C135.623 46.9498 134.655 45.7862 135.565 45.7958M125.583 37.742C125.354 37.7223 125.705 37.6823 125.713 37.6821L125.583 37.742ZM120.857 37.7673C121.198 38.0092 121.634 37.9388 121.995 38.1027C122.594 38.3678 122.446 38.6526 122.66 39.1584C122.957 39.8666 123.163 39.6459 123.869 39.6107C124.575 39.5756 124.57 39.8696 124.947 40.4128C125.157 40.8081 125.511 41.1072 125.936 41.2494C126.399 41.4153 127.144 41.216 127.499 41.5678C127.948 42.0034 127.74 42.6976 128.373 43.1416C129.006 43.5856 129.489 43.6408 129.79 44.3367C130.515 45.9912 128.264 44.4012 127.82 44.0839C126.706 43.3383 125.545 42.6645 124.345 42.0665C123.048 41.3751 121.632 40.7393 120.56 39.7085C120.279 39.4368 119.818 39.0953 119.919 38.636C119.951 38.5047 120.696 37.6604 120.89 37.7993M106.581 39.768C107.762 38.7636 110.199 40.3251 108.482 41.5041C107.943 41.8705 107.107 41.5451 106.586 41.3804C106.169 41.2422 105.872 41.3504 105.886 40.7827C105.987 40.3723 106.234 40.0116 106.581 39.768ZM110.28 33.9102C110.978 34.3447 109.958 35.4233 109.461 34.8458C109.361 34.7329 109.306 34.5868 109.306 34.4351C109.306 34.2833 109.362 34.1363 109.462 34.0215C109.562 33.9067 109.701 33.8321 109.851 33.8116C110.002 33.7911 110.154 33.8262 110.28 33.9102ZM107.38 36.7549C106.721 37.2627 106.391 36.9512 107 36.322L107.38 36.7549ZM105.086 30.7938C105.792 30.7423 108.45 30.4826 108.574 31.321C108.592 31.4758 108.205 31.9737 108.15 32.1055C108.038 32.3769 107.962 32.6611 107.922 32.9512C107.815 33.5821 107.838 34.2184 107.059 34.2388C106.532 34.2457 105.893 33.659 105.533 33.5686C105.009 33.4081 103.701 33.6518 103.559 32.9404C103.395 32.1273 104.01 32.3676 104.349 32.4544C104.689 32.5412 104.699 32.6798 105.017 32.6894C105.494 32.6361 105.967 32.5554 106.435 32.4475C106.282 31.5485 105.771 31.8041 105.208 31.4689C105.048 31.3784 104.54 30.8216 105.066 30.7902M96.0079 32.2001C96.8566 32.2073 97.7019 32.0738 98.5097 31.8049C99.1484 31.616 99.8526 31.0706 100.449 31.5194C100.758 31.7457 101.306 32.5833 100.832 32.9075C100.593 33.0718 98.8726 32.8914 98.895 32.6949C98.0652 32.9094 97.215 33.0313 96.3602 33.0582C96.1559 33.038 95.7072 33.0637 95.6344 32.7509C95.6967 32.5324 95.8277 32.3392 96.0079 32.2001ZM94.369 28.295C94.512 28.3043 94.7816 28.6946 94.8352 28.7465C94.6073 28.8085 94.2749 29.0114 94.0768 28.8195C94.0371 28.7697 94.0131 28.709 94.008 28.6452C94.0029 28.5814 94.0169 28.5173 94.0482 28.4611C94.0795 28.4049 94.1268 28.3591 94.1839 28.3295C94.241 28.2999 94.3054 28.2879 94.369 28.295ZM61.7536 53.5806C61.9655 53.9231 61.4405 55.1751 60.8947 54.9048C60.0984 54.5051 61.5144 53.7285 61.7536 53.5806ZM76.4063 31.675C77.1651 31.3774 77.9648 31.2009 78.7761 31.152C79.6656 31.1252 79.6394 30.5991 80.1426 29.964C81.1569 28.6692 81.6264 30.9087 82.5527 30.1423C83.1878 29.6269 83.0039 29.2306 83.7453 29.8438C84.2479 30.266 84.5479 30.4516 85.1314 30.0639C85.2363 29.9555 85.3495 29.8552 85.4709 29.7628C85.5951 29.5439 85.7542 29.5365 85.9361 29.7449C86.3177 29.8179 86.7071 29.8453 87.0961 29.8268C87.6259 29.7504 88.7143 29.2541 89.1646 29.7469C89.4699 30.0426 89.16 31.1798 89.0916 31.6385C88.9351 32.6256 88.2493 32.6236 87.3531 32.7811C86.2696 32.9752 85.1367 33.1458 84.0326 33.3281C83.2642 33.401 82.4903 33.3663 81.7336 33.2252C81.4242 33.1566 81.0995 33.1995 80.8165 33.3464C80.4385 33.6476 80.0095 33.8779 79.5505 34.026C78.8342 34.2124 77.5882 34.8549 76.8801 34.6697C76.3481 34.542 76.0566 33.6459 75.8554 33.1684C75.5787 32.5047 75.613 31.908 76.3858 31.6632M60.6312 51.3629C60.5114 51.6022 59.833 53.0125 59.4215 52.3393C59.1347 51.8677 60.2252 51.1877 60.6312 51.3629ZM70.2969 35.8279C69.851 36.1066 69.3357 35.6398 68.9661 35.4352C69.256 35.0699 69.4227 34.6419 69.9754 34.7977C70.3113 34.905 70.7386 35.537 70.3091 35.8154M71.6698 35.591C71.4018 35.7109 70.8871 34.9378 70.8777 34.8237C70.9009 34.3293 71.9457 33.9523 72.2865 33.7656C73.0898 33.3242 74.3121 32.3842 75.0787 33.4337C75.4267 33.8999 75.5468 35.1711 74.8964 35.4133C74.5062 35.5603 73.7443 35.3149 73.3199 35.3156C72.7512 35.2936 72.1832 35.3931 71.6537 35.6076M43.2036 77.0331C41.9923 75.6419 44.7022 73.7605 44.7575 72.4816C44.7802 71.9463 44.5516 71.5714 44.6882 71.0012C44.8013 70.6045 44.9732 70.2266 45.1983 69.8801C45.7389 68.934 45.8733 67.7963 46.4305 66.8743C46.667 66.4816 47.1061 66.3254 47.3265 65.9493C47.5468 65.5732 47.4063 65.0414 47.6398 64.7508C47.8734 64.4601 48.3396 64.5483 48.5027 64.1571C48.7054 63.6671 48.0845 63.2514 48.2022 62.8163C48.3264 62.234 49.2908 62.3363 49.7391 62.2779C50.0549 62.2774 50.367 62.2038 50.651 62.0629C51.1609 61.6604 50.7865 61.3865 50.8136 60.8879C50.8968 59.9187 52.0713 58.7143 52.6095 57.9193C52.9108 57.4844 54.2284 55.183 54.8166 56.3423C55.2254 57.1421 53.7299 58.843 53.3123 59.4722C53.0501 59.8082 52.8165 60.1654 52.6139 60.54C52.4388 60.9519 52.4928 61.408 52.33 61.8237C52.0191 62.4499 51.635 63.0376 51.186 63.5744C50.8443 64.051 50.4985 64.5236 50.1445 64.9882C49.7904 65.4528 49.4173 65.6729 49.083 66.0841C48.5753 66.6825 49.0846 67.3373 48.6397 68.0773C48.1053 68.8322 47.6569 69.644 47.3031 70.4974C47.1408 70.9621 47.1022 71.5304 46.8989 71.9714C46.6521 72.5399 46.1369 72.4609 45.8027 72.872C45.4684 73.2832 45.8851 73.6868 46.012 74.0923C46.1451 74.5246 46.1064 74.9931 45.904 75.4009C45.3709 76.6612 44.4164 76.7138 43.1999 77.0699M40.923 113.111C40.3031 113.156 40.4568 112.288 40.5828 111.869C40.6942 111.977 41.5551 113.061 40.923 113.111ZM69.0414 145.393C70.1689 145.113 71.7658 145.949 72.8389 146.285C73.3385 146.438 74.2582 146.554 74.6219 146.971C74.9857 147.388 74.9382 147.891 74.3227 147.965C73.2424 148.09 71.6495 147.249 70.6296 146.924C70.1545 146.77 69.2839 146.662 68.9333 146.33C68.6899 146.095 68.5162 145.523 69.0414 145.393ZM60.4924 140.012C60.9076 140.285 63.6909 142.101 63.4286 142.38C64.1062 142.753 68.6251 144.288 68.0726 145.262C67.6523 146.018 65.9955 144.93 65.507 144.683C64.4605 144.209 63.4421 143.675 62.4568 143.086C61.6377 142.618 60.8721 142.064 60.1733 141.431C59.901 141.167 59.5018 140.87 59.6603 140.434C59.7354 140.216 60.2253 139.85 60.4803 140.024M62.6913 145.477C62.1864 145.586 59.0148 144.088 59.5158 143.249C60.0167 142.41 62.5868 144.883 62.6913 145.477ZM58.0517 141.88C58.1879 142.011 57.933 142.217 57.8394 142.247C57.6035 142.318 56.9351 141.662 56.8356 141.525C56.7361 141.389 56.4432 141.105 56.6988 140.965C56.8693 140.88 57.8792 141.777 58.0517 141.88ZM57.7283 138.086C58.2033 138.223 58.693 138.213 58.7846 138.745C58.8011 138.845 58.7969 138.948 58.7722 139.046C58.7475 139.145 58.7028 139.238 58.6409 139.319C58.579 139.4 58.5012 139.467 58.4124 139.517C58.3236 139.567 58.2256 139.598 58.1247 139.608C57.3973 139.534 57.544 138.028 57.7283 138.086ZM55.3589 135.67C56.666 136.128 57.1959 137.546 55.3255 137.454C53.8921 137.382 54.5803 135.384 55.3589 135.67ZM73.9025 154.665C71.9424 153.84 69.792 153.518 67.8075 152.702C65.7869 151.886 63.818 150.95 61.9114 149.898C61.1064 149.45 60.9277 148.784 60.3253 148.192C59.5703 147.461 59.0185 148.138 58.1767 148.041C57.3348 147.944 56.4095 146.943 55.7552 146.463C54.7934 145.779 53.8908 145.015 53.0567 144.18C52.4002 143.386 51.6996 142.629 50.9583 141.914C50.1839 141.277 49.3949 140.795 48.9439 139.866C48.7868 139.458 48.6568 139.041 48.5546 138.616C48.3664 138.163 48.0413 137.78 47.6242 137.521C46.8806 136.736 46.1884 135.904 45.5519 135.03C45.2136 134.706 44.8963 134.361 44.6018 133.996C44.3568 133.614 44.197 133.192 43.9236 132.822C43.2443 132.041 42.6098 131.222 42.0231 130.368C41.5628 129.472 40.8623 128.724 39.9993 128.206C39.5763 127.966 38.9211 127.775 38.939 127.179C38.9877 126.864 39.1334 126.572 39.3555 126.343C39.5777 126.113 39.8652 125.958 40.178 125.9C41.231 125.894 41.556 127.234 41.9232 127.97C42.3686 128.809 42.9027 129.597 43.5164 130.32C44.0344 131.024 44.2639 131.852 44.8797 132.545C47.4391 135.284 50.2129 137.814 53.1752 140.112C56.0588 142.563 59.1305 144.785 62.3625 146.758C63.3138 147.289 64.2199 147.897 65.0723 148.575C65.5181 148.927 66.0301 149.187 66.5787 149.339C66.8083 149.432 67.2899 149.431 67.0448 149.791C66.8723 150.06 66.272 150.036 65.9943 150.388C65.7165 150.741 65.5808 151.013 66.1626 151.214C67.2277 151.567 68.1521 150.266 69.1143 150.544C69.6464 150.736 70.1409 151.019 70.5766 151.378C70.8935 151.621 71.3682 152.468 71.7206 152.6C72.3763 152.839 72.7037 151.808 73.3681 151.724C75.5327 151.471 75.4435 155.236 73.9468 154.611M108.244 148.26C108.731 148.327 108.541 148.87 108.487 149.157C108.487 149.157 107.684 148.178 108.244 148.26ZM103.226 148.851C103.754 149.709 101.923 149.907 101.866 149.091C101.808 148.276 102.906 148.331 103.226 148.851ZM99.3683 149.152C100.058 149.158 99.5832 150.507 98.7041 150.366C98.3034 150.301 97.9211 150.06 98.177 149.573C98.3769 149.193 98.96 149.144 99.3765 149.16M95.0274 149.332C95.6868 149.163 95.7898 150.361 95.2928 150.454C94.7959 150.546 94.2379 149.545 95.0274 149.332ZM92.467 149.59C92.8202 149.787 92.3525 149.939 92.3407 149.985C92.329 150.03 92.1589 149.413 92.467 149.59ZM87.3525 156.62C85.7666 156.588 84.1852 156.456 82.6176 156.225C81.9669 156.072 81.3217 156.036 80.6677 155.952C80.0137 155.868 75.4599 155.616 76.3663 154.16C76.6631 153.68 77.5448 153.686 78.0435 153.749C78.3582 153.788 78.6667 154.006 79.0004 153.917C79.3341 153.828 79.5654 153.334 79.9322 153.285C80.6205 153.144 80.4304 153.679 80.8784 153.959C81.4579 154.319 82.1326 153.696 82.7523 153.626C83.6663 153.61 84.5788 153.683 85.4771 153.843C86.3425 153.838 87.2047 153.931 88.0475 154.12C89.338 154.562 88.4271 156.716 87.255 156.655M118.853 151.316C115.945 152.744 112.919 153.912 109.81 154.808C107.344 155.464 104.825 155.827 102.325 156.36C100.181 156.775 98.0133 157.044 95.8361 157.166C94.2863 157.28 92.9839 156.874 91.476 156.714C90.8017 156.634 88.8321 157.173 88.9298 156.04C89.0746 155.6 89.2937 155.186 89.5776 154.819C89.7381 154.578 89.9569 154.382 90.2133 154.249C90.4697 154.115 90.7551 154.05 91.0427 154.057C94 153.885 96.9113 153.992 99.8703 153.603C102.858 153.247 105.824 152.72 108.755 152.025C110.328 151.683 111.872 151.208 113.368 150.606C114.056 150.333 114.763 150.114 115.483 149.95C116.045 149.807 117.157 149.294 117.711 149.515C118.076 149.659 118.139 149.841 117.951 150.168C117.763 150.494 117.475 150.353 117.182 150.4C116.697 150.463 116.023 150.383 115.887 151.035C115.592 152.446 118.613 151.027 119.197 151.011C119.104 151.144 118.991 151.26 118.862 151.357M120.493 149.004C120.482 149.082 120.629 149.136 120.478 149.119C120.327 149.101 120.498 149.098 120.493 149.004ZM120.224 150.157C120.339 149.84 120.272 149.654 120.681 149.751C121.09 149.849 120.929 150.056 120.815 150.438L120.203 150.137M122.655 148.183C122.092 148.534 122.093 147.534 122.339 147.239C122.824 146.773 123.41 146.425 124.05 146.223C124.396 146.138 124.803 146.048 124.65 146.594C124.497 147.141 123.069 147.946 122.655 148.183ZM129.505 143.415C129.017 143.598 128.598 143.929 128.307 144.363C128.127 144.632 128.063 145.143 127.713 145.249C127.515 145.255 127.319 145.21 127.145 145.119C126.97 145.027 126.822 144.892 126.715 144.726C126.519 144.31 126.733 144.146 127.049 143.862C127.918 143.089 129.076 142.595 129.948 141.744C130.318 141.374 130.728 141.045 131.17 140.763C131.583 140.493 133.584 138.774 133.958 138.95C134.582 139.247 132.909 140.792 132.574 141.13C131.712 142.088 130.669 142.865 129.505 143.415ZM127.842 145.842C127.964 145.847 127.991 145.688 128.055 145.919L127.842 145.842Z" fill="#0101AC"/>
<path d="M141.004 115.046C141.11 115.721 141.629 115.821 142.127 115.398C142.624 114.975 143.1 113.749 143.436 113.097C143.114 112.785 143.903 111.418 143.983 110.881C144.077 110.165 143.473 109.443 142.898 110.185C142.322 110.928 142.302 112.031 141.686 112.807C141.4 113.099 141.189 113.455 141.071 113.845C140.952 114.235 140.929 114.647 141.004 115.046Z" fill="#0101AC"/>
<path d="M80.136 145.299C78.7484 144.197 76.9911 143.997 75.3793 143.3C74.6575 142.989 73.9556 142.624 73.2298 142.324C72.5041 142.025 71.6683 141.741 70.9137 141.414C70.2943 141.137 69.7647 140.486 69.0279 140.289C68.6513 140.191 68.1859 140.185 68.563 140.695C68.8366 140.899 69.1415 141.058 69.4661 141.166C70.4021 141.653 71.3656 142.053 72.3296 142.486C73.8677 143.168 75.4254 143.773 76.9754 144.426C77.7053 144.729 78.3507 145.153 79.0526 145.509C79.2661 145.619 79.7188 145.961 79.974 145.788C80.0628 145.696 80.309 145.442 80.1443 145.307" fill="#0101AC"/>
<path d="M130.99 128.959C130.995 130.878 132.991 128.313 133.463 127.793C134.076 127.16 134.674 126.543 135.196 125.806C135.562 125.387 135.899 124.945 136.206 124.482C136.423 124.127 137.1 123.41 136.867 122.974C136.633 122.538 135.966 123.442 135.797 123.65C135.044 124.592 134.435 125.634 133.662 126.564C133.281 127.041 132.867 127.49 132.423 127.909C132.286 128.05 130.988 128.812 130.998 128.951" fill="#0101AC"/>
<path d="M149.685 134.362C149.426 135.282 150.527 134.088 150.6 134.004C151.173 133.332 151.68 132.607 152.115 131.838C153.004 130.276 153.059 129.352 152.396 127.758C151.191 129.825 150.278 132.048 149.685 134.362Z" fill="#0101AC"/>
<path d="M145.498 139.331C145.296 138.715 146.148 137.909 145.507 137.579C144.969 137.309 144.38 137.917 144.136 138.318C143.985 138.588 143.9 138.889 143.887 139.196C143.874 139.504 143.934 139.809 144.062 140.088C144.257 140.659 144.38 141.253 144.429 141.856C145.177 141.216 145.861 140.377 145.494 139.327" fill="#0101AC"/>
<path d="M73.7594 47.2799C74.6986 46.9541 75.5972 46.6373 76.5443 46.2787C77.4913 45.92 78.5115 45.8987 79.4505 45.5484C79.9425 45.3789 80.4263 45.2014 80.9269 45.0726C81.1751 45.0062 81.9302 45.0026 82.0675 44.8691C82.9399 44.0344 80.5958 44.6549 80.3393 44.7215C78.0385 45.2576 75.8227 46.1191 73.7594 47.2799Z" fill="#0101AC"/>
<path d="M103.561 41.7377C103.492 40.6614 102.774 41.0969 102.08 41.1114C100.015 41.1382 103.738 41.5217 101.582 41.0402C101.201 40.9542 100.993 40.632 100.53 40.7805C100.217 40.8809 99.787 41.1593 100.024 41.5748C100.212 41.9016 100.676 41.8184 101.015 41.8562C101.354 41.894 103.6 42.3492 103.544 41.7217" fill="#0101AC"/>
<path d="M93.4144 42.5327C93.8906 43.4865 94.2644 43.687 95.2343 43.5363C95.862 43.4416 97.2085 43.373 96.5689 42.4062C95.9627 42.5335 95.3402 42.556 94.7284 42.4729C94.7284 42.4729 93.0267 41.818 93.4225 42.5243" fill="#0101AC"/>
<path d="M89.5797 40.4221C89.2693 39.6612 88.1442 40.1623 87.4921 40.2494C86.84 40.3365 85.3535 39.8982 85.0092 40.5095C84.1725 41.9926 89.651 40.5962 89.5797 40.4221Z" fill="#0101AC"/>
<path d="M148.106 128.78C147.698 129.491 146.932 130.38 146.876 131.19C147.332 131.083 147.559 130.551 147.958 130.478C148.357 130.404 148.735 130.996 149.113 131.193C149.224 130.872 149.584 130.252 149.499 129.903C149.328 129.253 149.143 129.833 148.765 129.62C148.387 129.407 148.789 128.48 148.106 128.78Z" fill="#0101AC"/>
<path d="M82.2374 43.6447C83.0631 43.3621 82.2744 41.1281 81.4042 41.4483C80.5339 41.7685 81.2733 43.9709 82.2374 43.6447Z" fill="#0101AC"/>
<path d="M91.4604 161.169C90.9496 160.771 89.7248 161.152 89.1088 161.209C88.966 161.225 88.4673 161.178 88.3717 161.392C88.2762 161.606 88.6287 162.093 88.7721 162.135C88.9155 162.177 89.4308 161.885 89.6469 161.852C89.9274 161.843 90.2079 161.86 90.4846 161.904C90.6683 161.904 92.2185 161.766 91.4604 161.169Z" fill="#0101AC"/>
<path d="M152.536 124.405L152.57 124.219C152.424 124.369 152.413 124.431 152.536 124.405Z" fill="#0101AC"/>
<path d="M152.62 121.091C153.064 122.111 152.787 123.183 152.57 124.224C153.148 123.057 154.039 121.666 152.986 120.59C152.93 120.648 152.549 120.975 152.616 121.096" fill="#0101AC"/>
<path d="M122.296 35.8681C122.698 35.6923 123.992 34.9427 123.297 34.4874C122.911 34.234 121.584 34.6535 121.14 34.7239C121.388 35.0455 121.837 36.0613 122.308 35.8556" fill="#0101AC"/>
<path d="M73.3228 44.493C73.1876 44.459 73.2934 44.7876 73.3673 44.8269C73.4413 44.8663 73.6234 44.7195 73.7416 44.6967C74.1135 44.6311 74.4585 44.4562 74.7323 44.1943C74.8082 44.0498 74.8743 43.3868 74.4349 43.5347C74.321 43.5698 74.1974 44.2013 74.068 44.3101C73.9727 44.4073 73.8524 44.476 73.7206 44.5083C73.5888 44.5406 73.451 44.5353 73.3228 44.493Z" fill="#0101AC"/>
<path d="M53.5642 121.287C53.0492 121.24 52.9616 121.083 52.7874 121.568C52.712 121.762 52.6955 122.109 52.8975 122.281C53.5776 122.843 53.7484 121.691 53.5727 121.319" fill="#0101AC"/>
<path d="M144.435 105.607C144.211 105.619 143.988 105.655 143.771 105.715C144.097 106.031 144.476 106.689 144.893 106.39C145.416 106.008 144.856 105.652 144.435 105.607Z" fill="#0101AC"/>
<path d="M157.396 118.085C157.866 117.344 157.276 117.16 156.627 117.227C156.708 117.482 156.943 118.817 157.396 118.085Z" fill="#0101AC"/>
<path d="M98.686 41.4275L97.8027 40.2246C97.7014 40.6514 97.5173 40.9901 97.8849 41.3624C97.9305 41.4225 97.9883 41.4722 98.0545 41.5085C98.1207 41.5447 98.1939 41.5666 98.2694 41.5727C98.3448 41.5788 98.4209 41.5691 98.4927 41.5441C98.5644 41.5191 98.6303 41.4794 98.686 41.4275Z" fill="#0101AC"/>
<path d="M82.8432 161.368C83.6712 161.645 83.6677 161.698 84.3923 161.14C83.6972 160.693 83.5534 160.973 82.8432 161.368Z" fill="#0101AC"/>
<path d="M97.9413 42.6498C98.1436 42.8457 98.6216 43.5996 98.8306 42.9377C98.8372 42.8414 98.8169 42.7455 98.7719 42.6606C98.727 42.5757 98.6592 42.5052 98.5761 42.457C98.3213 42.307 98.2454 42.4597 97.9413 42.6498Z" fill="#0101AC"/>
<path d="M69.6492 47.4346C69.9743 47.3573 70.2828 47.2208 70.5594 47.0319C70.226 47.0818 69.9115 47.221 69.6492 47.4346Z" fill="#0101AC"/>
<path d="M105.866 159.426C105.736 159.833 105.451 160.235 106.08 160.279C106.205 159.762 106.347 159.657 105.866 159.426Z" fill="#0101AC"/>
<path d="M142.645 137.088L142.535 137.458C142.639 137.436 142.732 137.379 142.799 137.295C142.865 137.212 142.9 137.108 142.897 137.001C142.799 137.014 142.705 137.051 142.625 137.109" fill="#0101AC"/>
<path d="M150.473 125.054C150.566 125.025 150.649 124.969 150.712 124.895C150.776 124.821 150.817 124.731 150.832 124.634C150.73 124.644 150.635 124.693 150.568 124.772C150.5 124.85 150.467 124.952 150.473 125.054Z" fill="#0101AC"/>
<path d="M39.2462 101.961C39.527 102.233 39.7512 102.199 39.915 101.881C39.571 101.791 39.4883 101.702 39.2462 101.961Z" fill="#0101AC"/>
<path d="M84.0654 43.0652C83.9962 43.0789 84.2997 43.2033 84.4624 43.1428C84.5006 42.9133 84.3696 42.8833 84.0654 43.0652Z" fill="#0101AC"/>
<path d="M121.995 48.1764C121.732 48.3575 121.649 48.5838 121.99 48.7851C122.037 48.6903 122.062 48.5862 122.063 48.4807C122.064 48.3752 122.041 48.2712 121.995 48.1764Z" fill="#0101AC"/>
<path d="M156.862 63.4932C156.943 63.128 156.873 63.0355 156.607 63.3432L156.862 63.4932Z" fill="#0101AC"/>
<path d="M101.434 160.375C101.365 160.446 101.268 160.489 101.187 160.548C101.518 160.941 101.569 160.781 101.434 160.375Z" fill="#0101AC"/>
<path d="M93.3015 40.4679C93.358 40.4095 93.4434 40.3792 93.5164 40.3368L93.3546 40.1074C93.519 39.8385 93.0533 40.5506 93.3015 40.4679Z" fill="#0101AC"/>
<path d="M102.559 43.351C102.829 44.0806 103.027 43.5047 102.823 43.17C102.75 43.245 102.644 43.288 102.559 43.351Z" fill="#0101AC"/>
<path d="M111.422 41.8154C111.701 41.924 111.591 41.9385 111.877 41.5446C111.784 41.5466 111.694 41.5726 111.614 41.6201C111.535 41.6676 111.468 41.7349 111.422 41.8154Z" fill="#0101AC"/>
<path d="M153.963 118.865C154.06 119.145 153.995 119.113 154.199 119.093C154.106 118.809 154.159 118.844 153.963 118.865Z" fill="#0101AC"/>
<path d="M62.3762 56.8777L62.626 56.9419C62.5219 56.7603 62.551 56.8046 62.3337 56.7234C62.3377 56.7772 62.3521 56.8296 62.3762 56.8777Z" fill="#0101AC"/>
<path d="M64.5655 137.922L64.7312 138.131L64.9048 137.952C64.6457 137.79 64.7148 137.768 64.5779 137.934" fill="#0101AC"/>
<path d="M44.2311 104.575L44.388 104.727L44.4808 104.631C44.4065 104.559 44.1609 104.507 44.2314 104.6" fill="#0101AC"/>
<path d="M79.4574 160.637L79.5121 160.779C79.727 160.648 79.6914 160.751 79.6971 160.53C79.62 160.568 79.5387 160.603 79.4574 160.637Z" fill="#0101AC"/>
<path d="M57.4103 60.0167C57.3048 60.076 57.3054 60.125 57.4328 60.2C57.5342 60.1366 57.5418 60.0875 57.4103 60.0167Z" fill="#0101AC"/>
<path d="M37.043 67.7974C37.0528 67.8699 36.9306 67.9133 37.0577 67.9016C37.1848 67.8898 37.0348 67.8793 37.043 67.7974Z" fill="#0101AC"/>
<path d="M152.48 124.871C152.517 124.815 152.538 124.75 152.543 124.683C152.547 124.616 152.534 124.55 152.504 124.49C152.347 124.702 152.388 124.685 152.48 124.871Z" fill="#0101AC"/>
<path d="M80.3741 41.9609L80.1492 41.9369C80.1375 41.981 80.1339 42.0267 80.1385 42.0719C80.4043 42.1032 80.3598 42.1409 80.3741 41.9609Z" fill="#0101AC"/>
<path d="M144.725 108.215L144.532 108.198L144.566 108.312C144.673 108.359 144.726 108.329 144.725 108.215Z" fill="#0101AC"/>
<path d="M120.697 49.8635C120.651 49.7542 121.173 49.7026 120.641 49.6319L120.697 49.8635Z" fill="#0101AC"/>
<path d="M129.757 34.7055C129.708 34.7565 129.593 34.6181 129.653 34.7486C129.714 34.8791 129.653 34.7486 129.757 34.7055Z" fill="#0101AC"/>
<path d="M102.591 160.22C102.521 160.209 102.543 160.011 102.509 160.205C102.475 160.399 102.509 160.205 102.591 160.22Z" fill="#0101AC"/>
<path d="M95.6423 40.5808C95.7196 40.5838 95.7532 40.7512 95.7559 40.583C95.7586 40.4148 95.7559 40.583 95.6423 40.5808Z" fill="#0101AC"/>
<path d="M123.588 153.537C123.539 153.587 123.511 153.616 123.546 153.691C123.527 153.616 123.56 153.599 123.588 153.537Z" fill="#0101AC"/>
<path d="M55.6113 144.386C55.3481 144.458 55.0796 144.509 54.8086 144.537C55.4858 144.846 55.7365 144.628 56.3368 144.265C56.3217 144.22 56.3006 144.178 56.2741 144.139C56.0587 144.23 55.8351 144.312 55.6113 144.386Z" fill="#0101AC"/>
<path d="M63.7941 148.476C63.7057 148.601 63.731 148.674 63.8701 148.695L63.9408 148.449L63.7941 148.476Z" fill="#0101AC"/>
<path d="M52.3105 141.748C52.3519 141.71 52.3912 141.669 52.4281 141.627C52.2485 141.591 52.3672 141.69 52.3105 141.748Z" fill="#0101AC"/>
<path d="M59.9653 146.512C59.9053 146.624 59.9388 146.696 60.0535 146.735C60.1934 146.467 60.0232 146.584 59.9653 146.512Z" fill="#0101AC"/>
<path d="M113.589 151.762C112.971 150.905 111.347 152.425 112.231 152.983C112.729 153.295 114.066 152.41 113.589 151.762Z" fill="#0101AC"/>
<path d="M108.835 153.202C108.729 152.486 106.691 153.549 106.714 154.161C106.737 154.773 108.91 153.752 108.835 153.202Z" fill="#0101AC"/>
<path d="M95.8711 155.065L95.9746 155.561L97.1082 154.688C96.6729 154.468 96.281 154.84 95.8711 155.065Z" fill="#0101AC"/>
<path d="M100.858 154.56C100.369 154.644 100.662 155.324 101.022 155.325C101.381 155.326 101.31 154.482 100.858 154.56Z" fill="#0101AC"/>
<path d="M91.3711 155.521C91.3335 155.37 91.2606 155.23 91.1582 155.113C90.8756 155.405 90.959 155.558 91.0045 155.974C91.1608 155.854 91.2864 155.699 91.3711 155.521Z" fill="#0101AC"/>
<path d="M92.4431 154.866C92.1661 155.292 92.5269 155.415 92.809 155.083C92.6953 154.997 92.5726 154.925 92.4431 154.866Z" fill="#0101AC"/>
<path d="M110.088 152.774C110.019 152.845 109.951 152.916 109.882 152.986C110.241 153.334 110.243 153.126 110.088 152.774Z" fill="#0101AC"/>
<path d="M136.286 49.44C136.658 50.1552 138.287 51.5795 138.312 49.8269C138.274 49.5341 138.155 49.2584 137.968 49.0308C137.782 48.8031 137.535 48.6324 137.256 48.5377C136.772 48.3435 136.613 48.3754 136.413 48.7063C136.345 48.8165 136.3 48.9387 136.28 49.066C136.26 49.1933 136.265 49.3231 136.295 49.4479" fill="#0101AC"/>
</svg>
