<svg width="170" height="197" viewBox="0 0 170 197" fill="none" xmlns="http://www.w3.org/2000/svg">
<path d="M120.332 32.8739C120.332 32.9319 110.907 32.9769 99.2866 32.9769C87.666 32.9769 78.2344 32.9319 78.2344 32.8739C78.2344 32.816 87.6596 32.7773 99.2866 32.7773C110.914 32.7773 120.332 32.8224 120.332 32.8739Z" fill="#455A64"/>
<path d="M40.9192 32.8741C40.9192 33.1441 40.8391 33.408 40.6891 33.6324C40.5392 33.8569 40.326 34.0318 40.0766 34.1351C39.8272 34.2384 39.5528 34.2654 39.288 34.2128C39.0233 34.1601 38.7801 34.0301 38.5892 33.8392C38.3983 33.6484 38.2683 33.4052 38.2157 33.1404C38.163 32.8756 38.19 32.6012 38.2933 32.3518C38.3966 32.1024 38.5716 31.8893 38.796 31.7393C39.0205 31.5893 39.2844 31.5093 39.5543 31.5093C39.7335 31.5093 39.911 31.5446 40.0766 31.6132C40.2422 31.6818 40.3927 31.7823 40.5194 31.909C40.6461 32.0358 40.7467 32.1862 40.8153 32.3518C40.8839 32.5174 40.9192 32.6949 40.9192 32.8741Z" fill="#E0E0E0"/>
<path d="M45.5422 32.8741C45.5422 33.1444 45.462 33.4085 45.3117 33.6331C45.1615 33.8577 44.9479 34.0326 44.6982 34.1357C44.4484 34.2388 44.1736 34.2655 43.9087 34.2123C43.6438 34.1591 43.4006 34.0285 43.21 33.8369C43.0194 33.6454 42.8899 33.4016 42.8379 33.1364C42.786 32.8713 42.814 32.5966 42.9182 32.3474C43.0225 32.0981 43.1985 31.8854 43.4238 31.7362C43.6491 31.587 43.9136 31.508 44.1838 31.5093C44.3627 31.5093 44.5399 31.5446 44.7051 31.6133C44.8704 31.682 45.0204 31.7826 45.1466 31.9094C45.2728 32.0363 45.3728 32.1868 45.4407 32.3523C45.5085 32.5179 45.5431 32.6952 45.5422 32.8741Z" fill="#E0E0E0"/>
<path d="M50.1711 32.8741C50.1711 33.1441 50.0911 33.408 49.9411 33.6324C49.7911 33.8569 49.578 34.0318 49.3286 34.1351C49.0792 34.2384 48.8047 34.2654 48.54 34.2128C48.2752 34.1601 48.032 34.0301 47.8412 33.8392C47.6503 33.6484 47.5203 33.4052 47.4676 33.1404C47.415 32.8756 47.442 32.6012 47.5453 32.3518C47.6486 32.1024 47.8235 31.8893 48.048 31.7393C48.2724 31.5893 48.5363 31.5093 48.8063 31.5093C48.9855 31.5093 49.163 31.5446 49.3286 31.6132C49.4942 31.6818 49.6446 31.7823 49.7714 31.909C49.8981 32.0358 49.9986 32.1862 50.0672 32.3518C50.1358 32.5174 50.1711 32.6949 50.1711 32.8741Z" fill="#E0E0E0"/>
<path d="M81.692 55.0464H78.8657L78.3249 56.334H76.8828L79.5996 50.2437H80.9903L83.7264 56.3469H82.2457L81.692 55.0464ZM81.2478 53.9713L80.2821 51.6407L79.3164 53.9713H81.2478Z" fill="#455A64"/>
<path d="M88.2319 56.3467L87.0602 54.6535H85.7726V56.3467H84.3691V50.2563H87.0087C88.6311 50.2563 89.6547 51.0997 89.6547 52.471C89.6736 52.8838 89.5627 53.2921 89.3375 53.6385C89.1123 53.985 88.7842 54.2521 88.3993 54.4024L89.7642 56.3338L88.2319 56.3467ZM86.9121 51.4087H85.7598V53.5269H86.9121C87.7684 53.5269 88.1997 53.1277 88.1997 52.471C88.1997 51.8143 87.762 51.4087 86.9057 51.4087H86.9121Z" fill="#455A64"/>
<path d="M91.9158 51.4087H89.9844V50.2563H95.2893V51.4087H93.3579V56.3467H91.948L91.9158 51.4087Z" fill="#455A64"/>
<path d="M96.0293 50.2563H97.4392V56.3467H96.0293V50.2563Z" fill="#455A64"/>
<path d="M98.5332 53.3018C98.5746 52.6485 98.8066 52.0216 99.2005 51.4987C99.5944 50.9759 100.133 50.58 100.75 50.3601C101.366 50.1402 102.034 50.1059 102.67 50.2614C103.306 50.4169 103.882 50.7555 104.327 51.2352L103.426 52.0657C103.239 51.8412 103.005 51.6611 102.74 51.5386C102.475 51.4161 102.186 51.3542 101.894 51.3575C101.382 51.3575 100.89 51.561 100.528 51.9232C100.166 52.2854 99.9624 52.7767 99.9624 53.2889C99.9624 53.8012 100.166 54.2924 100.528 54.6546C100.89 55.0168 101.382 55.2203 101.894 55.2203C102.187 55.2244 102.478 55.1616 102.743 55.0367C103.009 54.9117 103.242 54.728 103.426 54.4993L104.327 55.3362C103.882 55.8159 103.306 56.1545 102.67 56.31C102.034 56.4656 101.366 56.4312 100.75 56.2113C100.133 55.9914 99.5944 55.5955 99.2005 55.0727C98.8066 54.5498 98.5746 53.9229 98.5332 53.2696V53.3018Z" fill="#455A64"/>
<path d="M105.254 50.2563H106.664V55.2007H109.722V56.3467H105.254V50.2563Z" fill="#455A64"/>
<path d="M115.227 55.22V56.3467H110.508V50.2563H115.111V51.3894H111.892V52.677H114.718V53.7779H111.892V55.1879L115.227 55.22Z" fill="#455A64"/>
<path d="M73.8698 53.8491C73.8698 53.9006 67.3417 53.9457 59.2877 53.9457C51.2338 53.9457 44.6992 53.9006 44.6992 53.8491C44.6992 53.7976 51.2274 53.7461 59.2877 53.7461C67.3481 53.7461 73.8698 53.7912 73.8698 53.8491Z" fill="#263238"/>
<g opacity="0.3">
<path d="M118.621 178.521L126.81 163.784L133.506 173.203L137.575 168.201L143.626 178.521H118.621Z" fill="#01016A"/>
</g>
<g opacity="0.3">
<path d="M135.785 159.361C137.523 161.64 134.948 164.216 132.669 162.484C130.93 160.198 133.506 157.623 135.785 159.361Z" fill="#01016A"/>
</g>
<g opacity="0.3">
<path d="M143.599 178.598C143.596 178.56 143.596 178.521 143.599 178.482C143.599 178.399 143.599 178.289 143.599 178.148C143.599 177.845 143.599 177.414 143.599 176.86C143.599 175.727 143.599 174.085 143.567 171.999C143.567 167.815 143.528 161.86 143.502 154.713L143.625 154.829H118.626C118.668 154.779 118.713 154.732 118.761 154.688V161.126C118.761 163.224 118.761 165.285 118.761 167.293C118.761 171.304 118.761 175.09 118.761 178.579L118.639 178.457L136.717 178.521L141.816 178.553H143.168H141.835L136.768 178.585L118.607 178.643H118.491V178.521C118.491 175.032 118.491 171.246 118.491 167.235V161.158C118.491 160.102 118.491 159.04 118.491 157.939V154.72C118.368 154.842 118.665 154.546 118.639 154.578H143.638H143.76V154.72C143.76 161.898 143.708 167.879 143.695 172.102C143.695 174.175 143.695 175.804 143.695 176.937C143.695 177.478 143.695 177.903 143.695 178.225C143.695 178.36 143.695 178.463 143.695 178.547C143.665 178.567 143.633 178.584 143.599 178.598Z" fill="#01016A"/>
</g>
<path d="M73.3617 64.6903C73.3617 64.7869 66.8915 64.8577 58.9148 64.8577C50.9381 64.8577 44.4551 64.7869 44.4551 64.6903C44.4551 64.5938 50.8931 64.5229 58.9084 64.5229C66.9237 64.5229 73.3617 64.5873 73.3617 64.6903Z" fill="#263238"/>
<path d="M95.6565 71.6308C95.6565 71.7209 84.1904 71.7982 70.059 71.7982C55.9276 71.7982 44.4551 71.7209 44.4551 71.6308C44.4551 71.5406 55.9147 71.4634 70.0526 71.4634C84.1904 71.4634 95.6565 71.5342 95.6565 71.6308Z" fill="#263238"/>
<path d="M113.155 71.122C113.155 71.2121 110.051 71.2894 106.221 71.2894C102.39 71.2894 99.2871 71.2121 99.2871 71.122C99.2871 71.0318 102.39 70.9546 106.221 70.9546C110.051 70.9546 113.155 71.0254 113.155 71.122Z" fill="#263238"/>
<path d="M147.088 70.8261C147.088 70.9162 140.682 70.9935 132.777 70.9935C124.871 70.9935 118.465 70.9162 118.465 70.8261C118.465 70.736 124.871 70.6587 132.777 70.6587C140.682 70.6587 147.088 70.736 147.088 70.8261Z" fill="#263238"/>
<path d="M146.819 76.7299C146.819 76.82 123.829 76.8973 95.4764 76.8973C67.1235 76.8973 44.127 76.82 44.127 76.7299C44.127 76.6398 67.1106 76.5625 95.4764 76.5625C123.842 76.5625 146.819 76.6333 146.819 76.7299Z" fill="#263238"/>
<path d="M91.9089 82.9228C91.9089 83.0193 81.2669 83.0901 68.1527 83.0901C55.0385 83.0901 44.3965 83.0193 44.3965 82.9228C44.3965 82.8262 55.0321 82.7554 68.1527 82.7554C81.2733 82.7554 91.9089 82.8326 91.9089 82.9228Z" fill="#263238"/>
<path d="M109.317 82.9228C107.159 83.0923 104.993 83.1482 102.828 83.0902C100.661 83.1483 98.4929 83.0924 96.332 82.9228C98.4931 82.757 100.661 82.7012 102.828 82.7554C104.993 82.7012 107.159 82.7571 109.317 82.9228Z" fill="#263238"/>
<path d="M146.819 82.3373C146.819 82.4274 139.357 82.5047 130.151 82.5047C120.945 82.5047 113.477 82.4274 113.477 82.3373C113.477 82.2472 120.938 82.1699 130.151 82.1699C139.364 82.1699 146.819 82.2407 146.819 82.3373Z" fill="#263238"/>
<path d="M95.0055 136.049C95.0055 136.146 83.5459 136.217 69.4145 136.217C55.2831 136.217 43.8105 136.12 43.8105 136.049C43.8105 135.978 55.2702 135.882 69.408 135.882C83.5459 135.882 95.0055 135.933 95.0055 136.049Z" fill="#263238"/>
<path d="M112.504 135.521C112.504 135.612 109.401 135.689 105.57 135.689C101.74 135.689 98.6367 135.612 98.6367 135.521C98.6367 135.431 101.74 135.354 105.57 135.354C109.401 135.354 112.504 135.406 112.504 135.521Z" fill="#263238"/>
<path d="M146.446 135.225C146.446 135.316 140.008 135.393 132.134 135.393C124.26 135.393 117.822 135.316 117.822 135.225C117.822 135.135 124.228 135.058 132.134 135.058C140.04 135.058 146.446 135.129 146.446 135.225Z" fill="#263238"/>
<path d="M146.175 141.129C146.175 141.219 123.185 141.296 94.8319 141.296C66.479 141.296 43.4824 141.219 43.4824 141.129C43.4824 141.039 66.4661 140.955 94.8319 140.955C123.198 140.955 146.175 141.032 146.175 141.129Z" fill="#263238"/>
<path d="M91.2585 147.322C91.2585 147.419 80.6229 147.49 67.5023 147.49C54.3817 147.49 43.7461 147.419 43.7461 147.322C43.7461 147.226 54.3817 147.155 67.5023 147.155C80.6229 147.155 91.2585 147.232 91.2585 147.322Z" fill="#263238"/>
<path d="M108.673 147.322C106.512 147.492 104.344 147.548 102.177 147.49C100.012 147.548 97.8462 147.492 95.6875 147.322C97.8464 147.156 100.012 147.101 102.177 147.155C104.344 147.101 106.512 147.156 108.673 147.322Z" fill="#263238"/>
<path d="M146.175 146.73C146.175 146.826 138.707 146.897 129.501 146.897C120.294 146.897 112.826 146.826 112.826 146.73C112.826 146.633 120.294 146.562 129.501 146.562C138.707 146.562 146.175 146.64 146.175 146.73Z" fill="#263238"/>
<path d="M109.318 154.121C109.318 154.218 94.8065 154.288 76.9089 154.288C59.0113 154.288 44.5 154.218 44.5 154.121C44.5 154.024 59.0048 153.954 76.9089 153.954C94.813 153.954 109.318 154.031 109.318 154.121Z" fill="#263238"/>
<path d="M108.673 160.919C108.673 161.016 94.1873 161.087 76.3283 161.087C58.4693 161.087 43.9902 161.016 43.9902 160.919C43.9902 160.823 58.4629 160.752 76.3283 160.752C94.1937 160.752 108.673 160.829 108.673 160.919Z" fill="#263238"/>
<path d="M106.877 89.4834H44.0293V129.611H106.877V89.4834Z" fill="#4F4FE6"/>
<path d="M104.18 126.392C104.18 126.392 104.18 126.174 104.18 125.749C104.18 125.324 104.18 124.725 104.18 123.94C104.18 122.349 104.18 120.025 104.148 117.044C104.148 111.083 104.109 102.507 104.077 92.0006L104.212 92.1294L47.2549 92.168L47.4223 92.0006C47.4223 104.181 47.4223 115.821 47.4223 126.373L47.2678 126.219L88.2263 126.296L99.9886 126.334H103.13H103.941H104.225H103.961H103.162H100.059L88.3293 126.373L47.2678 126.45H47.1133V126.392C47.1133 115.815 47.1133 104.201 47.1133 92.0199V91.8525H47.2807L104.238 91.8912H104.366V92.0199C104.334 102.565 104.315 111.167 104.296 117.128C104.296 120.096 104.296 122.407 104.263 123.991C104.263 124.764 104.263 125.362 104.263 125.774C104.263 126.186 104.18 126.392 104.18 126.392Z" fill="#263238"/>
<g opacity="0.2">
<path d="M48.7617 126.418L65.2366 105.186L77.1404 118.783L86.2566 110.581L102.828 126.418H48.7617Z" fill="#01016A"/>
</g>
<g opacity="0.2">
<path d="M80.8288 102.662C80.8288 103.389 80.6132 104.1 80.2092 104.704C79.8053 105.309 79.2312 105.78 78.5594 106.058C77.8877 106.336 77.1486 106.409 76.4355 106.267C75.7224 106.126 75.0674 105.775 74.5533 105.261C74.0392 104.747 73.689 104.092 73.5472 103.379C73.4054 102.666 73.4782 101.927 73.7564 101.255C74.0346 100.583 74.5058 100.009 75.1103 99.6054C75.7149 99.2014 76.4256 98.9858 77.1527 98.9858C77.6354 98.9858 78.1134 99.0809 78.5594 99.2657C79.0055 99.4504 79.4107 99.7212 79.7521 100.063C80.0934 100.404 80.3642 100.809 80.5489 101.255C80.7337 101.701 80.8288 102.179 80.8288 102.662Z" fill="#01016A"/>
</g>
<path d="M146.819 89.1357C146.819 89.2258 138.933 89.303 129.205 89.303C119.477 89.303 111.584 89.2258 111.584 89.1357C111.584 89.0455 119.471 88.9683 129.205 88.9683C138.939 88.9683 146.819 89.052 146.819 89.1357Z" fill="#263238"/>
<path d="M146.819 95.3803C146.819 95.4704 138.933 95.5477 129.205 95.5477C119.477 95.5477 111.584 95.4704 111.584 95.3803C111.584 95.2901 119.471 95.2129 129.205 95.2129C138.939 95.2129 146.819 95.2837 146.819 95.3803Z" fill="#263238"/>
<path d="M145.53 122.562C145.53 122.652 137.644 122.729 127.916 122.729C118.188 122.729 110.295 122.652 110.295 122.562C110.295 122.472 118.181 122.395 127.916 122.395C137.65 122.395 145.53 122.465 145.53 122.562Z" fill="#263238"/>
<path d="M145.53 129.611C145.53 129.701 137.644 129.779 127.916 129.779C118.188 129.779 110.295 129.701 110.295 129.611C110.295 129.521 118.181 129.444 127.916 129.444C137.65 129.444 145.53 129.515 145.53 129.611Z" fill="#263238"/>
<path d="M135.289 101.625C135.289 101.716 129.978 101.793 123.424 101.793C116.87 101.793 111.559 101.716 111.559 101.625C111.559 101.535 116.87 101.458 123.424 101.458C129.978 101.458 135.289 101.535 135.289 101.625Z" fill="#263238"/>
<path d="M147.056 101.555C145.586 101.72 144.105 101.776 142.627 101.722C141.148 101.776 139.668 101.72 138.197 101.555C139.667 101.385 141.148 101.329 142.627 101.387C144.105 101.329 145.586 101.385 147.056 101.555Z" fill="#263238"/>
<path d="M147.058 108.475C147.058 108.566 141.772 108.643 135.244 108.643C128.716 108.643 123.424 108.566 123.424 108.475C123.424 108.385 128.716 108.308 135.244 108.308C141.772 108.308 147.058 108.366 147.058 108.475Z" fill="#263238"/>
<path d="M135.289 115.448C135.289 115.544 129.978 115.615 123.424 115.615C116.87 115.615 111.559 115.544 111.559 115.448C111.559 115.351 116.87 115.28 123.424 115.28C129.978 115.28 135.289 115.377 135.289 115.448Z" fill="#263238"/>
<path d="M147.056 115.396C145.586 115.562 144.105 115.618 142.627 115.564C141.148 115.618 139.668 115.562 138.197 115.396C139.668 115.231 141.148 115.175 142.627 115.229C144.105 115.175 145.586 115.231 147.056 115.396Z" fill="#263238"/>
<path d="M118.735 108.315C117.656 108.48 116.562 108.536 115.471 108.482C114.38 108.536 113.287 108.48 112.207 108.315C113.287 108.149 114.38 108.093 115.471 108.147C116.562 108.093 117.656 108.149 118.735 108.315Z" fill="#263238"/>
<path d="M109.317 167.596C109.317 167.692 94.6895 167.769 76.6566 167.769C58.6238 167.769 43.9902 167.692 43.9902 167.596C43.9902 167.499 58.6109 167.428 76.6566 167.428C94.7023 167.428 109.317 167.486 109.317 167.596Z" fill="#263238"/>
<path d="M110.302 175.115C110.302 175.205 95.6744 175.283 77.6351 175.283C59.5959 175.283 44.9688 175.205 44.9688 175.115C44.9688 175.025 59.5894 174.948 77.6351 174.948C95.6809 174.948 110.302 175.019 110.302 175.115Z" fill="#263238"/>
<rect x="46.705" y="1.26447" width="127" height="166" transform="rotate(15.9221 46.705 1.26447)" fill="white" stroke="#01016A"/>
<rect x="33.5047" y="7.56201" width="127" height="166" transform="rotate(7.8977 33.5047 7.56201)" fill="white" stroke="#01016A"/>
<rect x="22" y="16" width="124" height="163" fill="#D9D9D9"/>
<rect x="21" y="15" width="128" height="167" fill="#01016A"/>
<path d="M113.984 28.6377C113.984 28.6892 104.565 28.7342 92.9384 28.7342C81.3114 28.7342 71.8926 28.6892 71.8926 28.6377C71.8926 28.5862 81.2792 28.5347 92.9062 28.5347C104.533 28.5347 113.984 28.5797 113.984 28.6377Z" fill="#455A64"/>
<path d="M33.1813 30.0027C33.935 30.0027 34.5461 29.3916 34.5461 28.6378C34.5461 27.884 33.935 27.2729 33.1813 27.2729C32.4275 27.2729 31.8164 27.884 31.8164 28.6378C31.8164 29.3916 32.4275 30.0027 33.1813 30.0027Z" fill="#E0E0E0"/>
<path d="M39.1689 28.6377C39.1639 28.9065 39.0795 29.1678 38.9265 29.3888C38.7735 29.6098 38.5586 29.7808 38.3088 29.8801C38.059 29.9795 37.7854 30.0029 37.5224 29.9473C37.2593 29.8918 37.0185 29.7598 36.8302 29.568C36.6419 29.3761 36.5145 29.1329 36.4639 28.8689C36.4132 28.6048 36.4417 28.3317 36.5458 28.0838C36.6498 27.8359 36.8247 27.6243 37.0485 27.4754C37.2724 27.3266 37.5352 27.2471 37.8041 27.2471C37.9855 27.247 38.1651 27.2832 38.3324 27.3534C38.4997 27.4236 38.6513 27.5264 38.7784 27.6559C38.9055 27.7854 39.0055 27.9389 39.0725 28.1075C39.1396 28.276 39.1723 28.4563 39.1689 28.6377Z" fill="#E0E0E0"/>
<path d="M43.8115 28.6378C43.8064 28.9061 43.7224 29.1669 43.57 29.3876C43.4175 29.6084 43.2034 29.7793 42.9543 29.879C42.7052 29.9788 42.4323 30.0029 42.1696 29.9484C41.9069 29.8939 41.6661 29.7632 41.4773 29.5726C41.2885 29.382 41.16 29.14 41.108 28.8768C41.0559 28.6136 41.0826 28.3409 41.1846 28.0928C41.2867 27.8447 41.4596 27.6322 41.6818 27.4818C41.9039 27.3314 42.1655 27.2498 42.4338 27.2472C42.6165 27.2446 42.7979 27.2788 42.9671 27.3479C43.1363 27.417 43.2898 27.5196 43.4185 27.6494C43.5471 27.7793 43.6482 27.9337 43.7157 28.1036C43.7833 28.2734 43.8158 28.4551 43.8115 28.6378Z" fill="#E0E0E0"/>
<path d="M75.3176 50.8037H72.4913L71.9505 52.0913H70.502L73.2188 46.001H74.6094L77.3327 52.0913H75.8584L75.3176 50.8037ZM74.8733 49.735L73.9076 47.4045L72.942 49.735H74.8733Z" fill="#455A64"/>
<path d="M81.8458 52.1107L80.6741 50.4239H79.3865V52.1235H77.9766V46.0332H80.6097C82.2385 46.0332 83.2557 46.8766 83.2557 48.2414C83.2736 48.654 83.1623 49.0619 82.9372 49.4081C82.7122 49.7544 82.3846 50.0217 82.0003 50.1728L83.3716 52.1042L81.8458 52.1107ZM80.5067 47.1663H79.3607V49.2908H80.5067C81.3694 49.2908 81.7943 48.8917 81.7943 48.2286C81.7943 47.5654 81.3887 47.1663 80.5067 47.1663Z" fill="#455A64"/>
<path d="M85.5349 47.1665H83.6035V46.0205H88.8762V47.1665H86.9448V52.1109H85.5349V47.1665Z" fill="#455A64"/>
<path d="M89.6484 46.0205H91.0584V52.1109H89.6484V46.0205Z" fill="#455A64"/>
<path d="M92.0957 49.0656C92.1387 48.4132 92.3715 47.7875 92.7654 47.2657C93.1593 46.7438 93.6971 46.3484 94.3127 46.1282C94.9283 45.9079 95.5949 45.8724 96.2304 46.026C96.866 46.1795 97.4428 46.5155 97.8899 46.9925L96.9821 47.8295C96.7976 47.602 96.5638 47.4194 96.2984 47.2956C96.0329 47.1718 95.7428 47.11 95.4499 47.1149C94.9377 47.1149 94.4464 47.3183 94.0842 47.6805C93.722 48.0428 93.5185 48.534 93.5185 49.0463C93.5185 49.5585 93.722 50.0498 94.0842 50.412C94.4464 50.7742 94.9377 50.9777 95.4499 50.9777C95.7433 50.9818 96.0338 50.9189 96.2993 50.794C96.5648 50.6691 96.7983 50.4853 96.9821 50.2566L97.8899 51.0935C97.4448 51.573 96.869 51.9115 96.2337 52.0673C95.5983 52.2231 94.9312 52.1893 94.3149 51.9702C93.6985 51.751 93.1598 51.3561 92.7654 50.8342C92.371 50.3122 92.1382 49.6862 92.0957 49.0334V49.0656Z" fill="#455A64"/>
<path d="M98.8809 46.0205H100.291V50.9585H103.342V52.1109H98.8809V46.0205Z" fill="#455A64"/>
<path d="M108.835 50.9778V52.1109H104.135V46.0205H108.738V47.1472H105.519V48.4927H108.345V49.5872H105.519V50.9971L108.835 50.9778Z" fill="#455A64"/>
<path d="M67.4954 49.6063C67.4954 49.6643 60.9608 49.7093 52.9069 49.7093C44.8529 49.7093 38.3184 49.6643 38.3184 49.6063C38.3184 49.5484 44.8465 49.5098 52.9069 49.5098C60.9672 49.5098 67.4954 49.5548 67.4954 49.6063Z" fill="#263238"/>
<path d="M145.068 49.6063C145.068 49.6643 138.211 49.7093 129.758 49.7093C121.305 49.7093 114.436 49.6643 114.436 49.6063C114.436 49.5484 121.292 49.5098 129.758 49.5098C138.224 49.5098 145.068 49.5548 145.068 49.6063Z" fill="#263238"/>
<path d="M139.536 148.101H109.947V176.731H139.536V148.101Z" fill="#455A64"/>
<g opacity="0.3">
<path d="M112.246 174.278L120.429 159.548L127.124 168.967L131.193 163.964L137.245 174.278H112.246Z" fill="#01016A"/>
</g>
<g opacity="0.3">
<path d="M129.436 155.119C131.174 157.404 128.593 159.979 126.314 158.241C124.556 155.962 127.131 153.387 129.436 155.119Z" fill="#01016A"/>
</g>
<g opacity="0.3">
<path d="M137.245 174.362C137.245 174.362 137.245 174.317 137.245 174.24C137.245 174.162 137.245 174.046 137.245 173.911C137.245 173.602 137.245 173.171 137.245 172.624C137.245 171.49 137.245 169.849 137.213 167.763C137.213 163.585 137.213 157.629 137.155 150.477L137.271 150.599H112.272C112.24 150.631 112.536 150.335 112.414 150.464V153.683C112.414 154.758 112.414 155.82 112.414 156.87V163.089C112.414 167.1 112.414 170.892 112.414 174.381L112.292 174.259L130.37 174.317H135.468H136.82H137.168H136.846H135.52L130.447 174.349L112.292 174.413H112.169V174.291C112.169 170.802 112.169 167.01 112.169 162.999C112.169 160.997 112.169 158.936 112.169 156.831V150.393C112.041 150.515 112.337 150.213 112.311 150.245H137.31H137.432V150.367C137.432 157.552 137.387 163.533 137.374 167.75C137.374 169.823 137.374 171.458 137.374 172.585C137.374 173.132 137.374 173.551 137.374 173.873C137.374 174.001 137.374 174.111 137.374 174.194C137.374 174.278 137.252 174.362 137.245 174.362Z" fill="#01016A"/>
</g>
<path d="M66.9881 60.4545C66.9881 60.5446 60.5501 60.6219 52.5348 60.6219C44.5195 60.6219 38.0879 60.5446 38.0879 60.4545C38.0879 60.3644 44.5259 60.2871 52.5348 60.2871C60.5436 60.2871 66.9881 60.3579 66.9881 60.4545Z" fill="#263238"/>
<path d="M89.2764 67.3881C89.2764 67.4782 77.8168 67.5555 63.6854 67.5555C49.554 67.5555 38.0879 67.4782 38.0879 67.3881C38.0879 67.298 49.5411 67.2207 63.6854 67.2207C77.8297 67.2207 89.2764 67.298 89.2764 67.3881Z" fill="#263238"/>
<path d="M106.774 66.8793C106.774 66.9759 103.671 67.0467 99.84 67.0467C96.0094 67.0467 92.9062 66.9759 92.9062 66.8793C92.9062 66.7827 96.0094 66.7119 99.84 66.7119C103.671 66.7119 106.774 66.7892 106.774 66.8793Z" fill="#263238"/>
<path d="M140.715 66.5834C140.715 66.68 134.277 66.7572 126.403 66.7572C118.53 66.7572 112.092 66.68 112.092 66.5834C112.092 66.4868 118.498 66.416 126.403 66.416C134.309 66.416 140.715 66.519 140.715 66.5834Z" fill="#263238"/>
<path d="M140.42 72.4872C140.42 72.5838 117.43 72.6546 89.0766 72.6546C60.7237 72.6546 37.7207 72.5838 37.7207 72.4872C37.7207 72.3906 60.7108 72.3198 89.0766 72.3198C117.442 72.3198 140.42 72.3971 140.42 72.4872Z" fill="#263238"/>
<path d="M85.528 78.6869C85.528 78.777 74.8925 78.8543 61.7718 78.8543C48.6512 78.8543 38.0156 78.7513 38.0156 78.6869C38.0156 78.6225 48.6512 78.5195 61.7718 78.5195C74.8925 78.5195 85.528 78.5903 85.528 78.6869Z" fill="#263238"/>
<path d="M102.944 78.6867C100.783 78.8525 98.6152 78.9084 96.4485 78.8541C94.2839 78.9085 92.1179 78.8526 89.959 78.6867C92.1177 78.517 94.2839 78.4611 96.4485 78.5194C98.6152 78.4612 100.784 78.5171 102.944 78.6867Z" fill="#263238"/>
<path d="M140.419 78.1073C140.419 78.2039 132.951 78.2747 123.745 78.2747C114.538 78.2747 107.07 78.2039 107.07 78.1073C107.07 78.0108 114.538 77.9399 123.745 77.9399C132.951 77.9399 140.419 78.0043 140.419 78.1073Z" fill="#263238"/>
<path d="M88.6325 131.788C88.6325 131.878 77.1728 131.955 63.035 131.955C48.8971 131.955 37.4375 131.878 37.4375 131.788C37.4375 131.697 48.8971 131.62 63.035 131.62C77.1728 131.62 88.6325 131.691 88.6325 131.788Z" fill="#263238"/>
<path d="M106.131 131.279C106.131 131.369 103.028 131.446 99.1974 131.446C95.3668 131.446 92.2637 131.369 92.2637 131.279C92.2637 131.189 95.3668 131.111 99.1974 131.111C103.028 131.111 106.131 131.189 106.131 131.279Z" fill="#263238"/>
<path d="M140.065 130.983C140.065 131.079 133.659 131.15 125.753 131.15C117.847 131.15 111.441 131.079 111.441 130.983C111.441 130.886 117.847 130.815 125.753 130.815C133.659 130.815 140.065 130.899 140.065 130.983Z" fill="#263238"/>
<path d="M139.769 136.886C139.769 136.976 116.779 137.054 88.4256 137.054C60.0727 137.054 37.0762 136.976 37.0762 136.886C37.0762 136.796 60.0598 136.719 88.4256 136.719C116.791 136.719 139.769 136.796 139.769 136.886Z" fill="#263238"/>
<path d="M84.8855 143.086C84.8855 143.176 74.2499 143.254 61.1293 143.254C48.0086 143.254 37.373 143.176 37.373 143.086C37.373 142.996 48.0086 142.919 61.1293 142.919C74.2499 142.919 84.8855 142.99 84.8855 143.086Z" fill="#263238"/>
<path d="M102.294 143.086C100.135 143.252 97.9691 143.308 95.8045 143.254C93.6378 143.308 91.4697 143.252 89.3086 143.086C91.4695 142.916 93.6378 142.861 95.8045 142.919C97.9691 142.861 100.135 142.916 102.294 143.086Z" fill="#263238"/>
<path d="M139.768 142.487C139.768 142.577 132.307 142.655 123.1 142.655C113.894 142.655 106.426 142.577 106.426 142.487C106.426 142.397 113.887 142.32 123.1 142.32C132.313 142.32 139.768 142.404 139.768 142.487Z" fill="#263238"/>
<path d="M102.943 149.885C102.943 149.975 88.4315 150.052 70.5339 150.052C52.6362 150.052 38.125 149.975 38.125 149.885C38.125 149.795 52.6298 149.717 70.5339 149.717C88.438 149.717 102.943 149.788 102.943 149.885Z" fill="#263238"/>
<path d="M102.294 156.683C102.294 156.773 87.8148 156.85 69.9558 156.85C52.0968 156.85 37.6113 156.773 37.6113 156.683C37.6113 156.593 52.0904 156.516 69.9558 156.516C87.8213 156.516 102.294 156.586 102.294 156.683Z" fill="#263238"/>
<path d="M100.504 85.2471H37.6562V125.375H100.504V85.2471Z" fill="#4F4FE6"/>
<path d="M97.7999 122.182C97.7999 122.182 97.7999 121.963 97.7999 121.538C97.7999 121.113 97.7999 120.521 97.7999 119.729C97.7999 118.139 97.7999 115.814 97.7999 112.84C97.7999 106.879 97.7548 98.3031 97.729 87.7963L97.8578 87.9251L40.9073 87.9637L41.0747 87.7963C41.0747 99.9706 41.0747 111.617 41.0747 122.169L40.9201 122.008L81.8851 122.085L93.6473 122.13H96.7826H97.5938H97.8771H96.8213H93.7117L81.9881 122.175L40.9201 122.252H40.7656V122.098C40.7656 111.52 40.7656 99.8998 40.7656 87.7255V87.5581H40.9395L97.89 87.5903H98.0252V87.7255C98.0252 98.2645 97.9737 106.866 97.9608 112.834C97.9608 115.802 97.9608 118.113 97.9286 119.697C97.9286 120.476 97.9286 121.068 97.9286 121.48C97.9286 121.892 97.7999 122.182 97.7999 122.182Z" fill="#263238"/>
<g opacity="0.2">
<path d="M42.3809 122.182L58.8621 100.949L70.766 114.546L79.8758 106.344L96.4472 122.182H42.3809Z" fill="#01016A"/>
</g>
<g opacity="0.2">
<path d="M74.4498 98.4192C74.4511 99.1468 74.2364 99.8584 73.833 100.464C73.4296 101.069 72.8555 101.542 72.1835 101.821C71.5115 102.1 70.7719 102.173 70.0582 102.031C69.3445 101.89 68.6889 101.539 68.1744 101.025C67.6599 100.51 67.3096 99.8549 67.168 99.1412C67.0263 98.4275 67.0997 97.6878 67.3787 97.0159C67.6577 96.3439 68.1299 95.7698 68.7354 95.3664C69.341 94.9629 70.0526 94.7482 70.7802 94.7495C71.7529 94.7512 72.6853 95.1384 73.3731 95.8262C74.061 96.514 74.4481 97.4464 74.4498 98.4192Z" fill="#01016A"/>
</g>
<path d="M140.419 84.893C140.419 84.9895 132.532 85.0604 122.798 85.0604C113.064 85.0604 105.184 84.9895 105.184 84.893C105.184 84.7964 113.07 84.7256 122.798 84.7256C132.526 84.7256 140.419 84.8028 140.419 84.893Z" fill="#263238"/>
<path d="M140.419 91.1381C140.419 91.2347 132.532 91.3055 122.798 91.3055C113.064 91.3055 105.184 91.2347 105.184 91.1381C105.184 91.0415 113.07 90.9707 122.798 90.9707C132.526 90.9707 140.419 91.048 140.419 91.1381Z" fill="#263238"/>
<path d="M139.157 118.319C139.157 118.416 131.264 118.487 121.536 118.487C111.808 118.487 103.922 118.416 103.922 118.319C103.922 118.223 111.808 118.152 121.536 118.152C131.264 118.152 139.157 118.229 139.157 118.319Z" fill="#263238"/>
<path d="M139.157 125.369C139.157 125.465 131.264 125.536 121.536 125.536C111.808 125.536 103.922 125.465 103.922 125.369C103.922 125.272 111.808 125.201 121.536 125.201C131.264 125.201 139.157 125.278 139.157 125.369Z" fill="#263238"/>
<path d="M128.908 97.3827C128.908 97.4793 123.596 97.5501 117.049 97.5501C110.501 97.5501 105.184 97.4793 105.184 97.3827C105.184 97.2862 110.495 97.2153 117.049 97.2153C123.603 97.2153 128.908 97.2926 128.908 97.3827Z" fill="#263238"/>
<path d="M140.683 97.3119C139.213 97.4814 137.732 97.5373 136.254 97.4793C134.775 97.5373 133.294 97.4814 131.824 97.3119C133.294 97.1463 134.775 97.0903 136.254 97.1445C137.732 97.0903 139.213 97.1463 140.683 97.3119Z" fill="#263238"/>
<path d="M140.683 104.233C140.683 104.329 135.391 104.4 128.863 104.4C122.335 104.4 117.043 104.329 117.043 104.233C117.043 104.136 122.335 104.065 128.863 104.065C135.391 104.065 140.683 104.143 140.683 104.233Z" fill="#263238"/>
<path d="M128.908 111.231C128.908 111.321 123.596 111.398 117.049 111.398C110.501 111.398 105.184 111.321 105.184 111.231C105.184 111.141 110.495 111.063 117.049 111.063C123.603 111.063 128.908 111.134 128.908 111.231Z" fill="#263238"/>
<path d="M140.683 111.16C139.213 111.326 137.732 111.381 136.254 111.327C134.775 111.381 133.294 111.326 131.824 111.16C133.294 110.986 134.775 110.928 136.254 110.986C137.732 110.928 139.213 110.986 140.683 111.16Z" fill="#263238"/>
<path d="M112.356 104.072C111.277 104.241 110.183 104.297 109.092 104.239C108.001 104.297 106.907 104.241 105.828 104.072C106.908 103.907 108.001 103.851 109.092 103.905C110.183 103.851 111.277 103.907 112.356 104.072Z" fill="#263238"/>
<path d="M102.944 163.34C102.944 163.43 88.317 163.508 70.2777 163.508C52.2385 163.508 37.6113 163.43 37.6113 163.34C37.6113 163.25 52.232 163.173 70.2777 163.173C88.3234 163.173 102.944 163.25 102.944 163.34Z" fill="#263238"/>
<path d="M103.922 170.872C103.922 170.969 89.2949 171.04 71.2621 171.04C53.2293 171.04 38.5957 170.969 38.5957 170.872C38.5957 170.776 53.2164 170.705 71.2621 170.705C89.3078 170.705 103.922 170.815 103.922 170.872Z" fill="#263238"/>
<path d="M145.635 16.1802H22.2441V178.765H145.635V16.1802Z" fill="white"/>
<path d="M145.634 178.765C145.634 177.433 145.576 112.544 145.486 16.1803L145.634 16.3348H22.2559L22.4233 16.1674C22.4233 76.6846 22.4233 132.753 22.4233 178.753L22.2881 178.617L145.679 178.753L22.2881 178.888H22.1465V178.753C22.1465 132.753 22.1465 76.6588 22.1465 16.1674V16H22.3267H145.705H145.859V16.1481C145.698 112.544 145.634 177.433 145.634 178.765Z" fill="#263238"/>
<path d="M145.635 28.0585C145.635 28.1164 118.009 28.1615 83.9395 28.1615C49.8696 28.1615 22.2441 28.1164 22.2441 28.0585C22.2441 28.0005 49.8632 27.9619 83.9395 27.9619C118.016 27.9619 145.635 28.007 145.635 28.0585Z" fill="#263238"/>
<path d="M107.823 22.5023C107.823 22.5603 98.3978 22.5989 86.7708 22.5989C75.1438 22.5989 65.6992 22.5603 65.6992 22.5023C65.6992 22.4444 75.1244 22.4058 86.745 22.4058C98.3656 22.4058 107.823 22.4508 107.823 22.5023Z" fill="#455A64"/>
<path d="M27.0465 23.8674C27.8003 23.8674 28.4114 23.2563 28.4114 22.5025C28.4114 21.7488 27.8003 21.1377 27.0465 21.1377C26.2927 21.1377 25.6816 21.7488 25.6816 22.5025C25.6816 23.2563 26.2927 23.8674 27.0465 23.8674Z" fill="#E0E0E0"/>
<path d="M33.0324 22.5025C33.0324 22.7725 32.9524 23.0364 32.8024 23.2608C32.6525 23.4853 32.4393 23.6602 32.1899 23.7635C31.9405 23.8668 31.6661 23.8938 31.4013 23.8412C31.1366 23.7885 30.8934 23.6585 30.7025 23.4676C30.5116 23.2768 30.3816 23.0336 30.329 22.7688C30.2763 22.5041 30.3033 22.2296 30.4066 21.9802C30.5099 21.7308 30.6849 21.5177 30.9093 21.3677C31.1338 21.2177 31.3976 21.1377 31.6676 21.1377C32.0296 21.1377 32.3767 21.2815 32.6327 21.5375C32.8886 21.7934 33.0324 22.1406 33.0324 22.5025Z" fill="#E0E0E0"/>
<path d="M37.6614 22.5025C37.6614 22.7725 37.5813 23.0364 37.4313 23.2608C37.2814 23.4853 37.0682 23.6602 36.8188 23.7635C36.5694 23.8668 36.295 23.8938 36.0302 23.8412C35.7655 23.7885 35.5223 23.6585 35.3314 23.4676C35.1405 23.2768 35.0105 23.0336 34.9579 22.7688C34.9052 22.5041 34.9322 22.2296 35.0355 21.9802C35.1388 21.7308 35.3138 21.5177 35.5382 21.3677C35.7627 21.2177 36.0266 21.1377 36.2965 21.1377C36.6585 21.1377 37.0056 21.2815 37.2616 21.5375C37.5176 21.7934 37.6614 22.1406 37.6614 22.5025Z" fill="#E0E0E0"/>
<path d="M69.1834 44.6685H66.3442L65.8034 45.9561H64.3613L67.0717 39.8657H68.4688L71.192 45.9561H69.7113L69.1834 44.6685ZM68.7392 43.5998L67.7735 41.2692L66.8078 43.5998H68.7392Z" fill="#455A64"/>
<path d="M75.7175 45.9751L74.5393 44.2755H73.2517V45.9751H71.8418V39.8848H74.4749C76.1038 39.8848 77.121 40.7281 77.121 42.093C77.1394 42.5048 77.029 42.9121 76.8051 43.2583C76.5813 43.6044 76.2551 43.8722 75.872 44.0244L77.2368 45.9558L75.7175 45.9751ZM74.3912 41.0307H73.2453V43.1553H74.3912C75.2539 43.1553 75.6788 42.7561 75.6788 42.093C75.6788 41.4299 75.2539 41.0307 74.3912 41.0307Z" fill="#455A64"/>
<path d="M79.4001 41.0307H77.4688V39.8848H82.7737V41.0307H80.8423V45.9751H79.4323L79.4001 41.0307Z" fill="#455A64"/>
<path d="M83.5195 39.8848H84.9295V45.9751H83.5195V39.8848Z" fill="#455A64"/>
<path d="M85.9863 42.9303C86.0294 42.2779 86.2621 41.6523 86.656 41.1304C87.0499 40.6085 87.5877 40.2132 88.2033 39.9929C88.819 39.7727 89.4855 39.7371 90.1211 39.8907C90.7566 40.0443 91.3334 40.3802 91.7805 40.8573L90.8728 41.6942C90.689 41.4676 90.4562 41.2855 90.1919 41.1618C89.9276 41.038 89.6388 40.9757 89.347 40.9796C88.8296 40.9796 88.3334 41.1851 87.9676 41.551C87.6018 41.9168 87.3963 42.413 87.3963 42.9303C87.3963 43.4477 87.6018 43.9438 87.9676 44.3097C88.3334 44.6755 88.8296 44.881 89.347 44.881C89.6393 44.8841 89.9285 44.8209 90.1928 44.696C90.4571 44.5711 90.6896 44.3878 90.8728 44.16L91.7805 44.9905C91.3355 45.4699 90.7597 45.8084 90.1243 45.9642C89.4889 46.12 88.8219 46.0863 88.2055 45.8671C87.5891 45.648 87.0504 45.253 86.6561 44.7311C86.2617 44.2092 86.0288 43.5831 85.9863 42.9303Z" fill="#455A64"/>
<path d="M92.7402 39.8848H94.1502V44.8291H97.2018V45.9751H92.7402V39.8848Z" fill="#455A64"/>
<path d="M102.719 44.842V45.9751H98V39.8848H102.603V41.0179H99.3842V42.3055H102.21V43.3999H99.3842V44.8098L102.719 44.842Z" fill="#455A64"/>
<path d="M61.3606 43.4775C61.3606 43.529 54.8325 43.5741 46.7721 43.5741C38.7117 43.5741 32.1836 43.529 32.1836 43.4775C32.1836 43.426 38.7182 43.3745 46.7721 43.3745C54.826 43.3745 61.3606 43.4196 61.3606 43.4775Z" fill="#263238"/>
<path d="M138.939 43.4775C138.939 43.529 132.076 43.5741 123.623 43.5741C115.17 43.5741 108.307 43.529 108.307 43.4775C108.307 43.426 115.163 43.3745 123.623 43.3745C132.082 43.3745 138.939 43.4196 138.939 43.4775Z" fill="#263238"/>
<path d="M133.407 141.966H103.818V170.596H133.407V141.966Z" fill="#DBDBDB"/>
<g opacity="0.3">
<path d="M106.111 168.149L114.3 153.413L120.996 162.831L125.065 157.829L131.117 168.149H106.111Z" fill="#01016A"/>
</g>
<g opacity="0.3">
<path d="M123.274 148.99C125.012 151.269 122.437 153.844 120.151 152.106C118.42 149.827 120.995 147.252 123.274 148.99Z" fill="#01016A"/>
</g>
<g opacity="0.3">
<path d="M131.116 168.239C131.109 168.201 131.109 168.162 131.116 168.124C131.116 168.033 131.116 167.924 131.116 167.789C131.116 167.48 131.116 167.055 131.116 166.501C131.116 165.362 131.116 163.72 131.116 161.634C131.116 157.456 131.077 151.501 131.051 144.348L131.173 144.47H106.168L106.31 144.335V150.773C106.31 152.878 106.31 154.939 106.31 156.947C106.31 160.952 106.31 164.744 106.31 168.233L106.188 168.111L124.266 168.169L129.364 168.201H130.716H129.39L124.317 168.233L106.162 168.297H106.04V168.239C106.04 164.75 106.04 160.958 106.04 156.954C106.04 154.945 106.04 152.885 106.04 150.78V144.342C105.917 144.464 106.213 144.168 106.181 144.193H131.186H131.309V144.309C131.309 151.494 131.257 157.475 131.244 161.692C131.244 163.765 131.244 165.4 131.244 166.527C131.244 167.074 131.244 167.493 131.244 167.815C131.244 167.95 131.244 168.053 131.244 168.136C131.244 168.22 131.116 168.239 131.116 168.239Z" fill="#01016A"/>
</g>
<path d="M60.8513 54.3188C60.8513 54.4089 54.4133 54.4861 46.4045 54.4861C38.3956 54.4861 31.9512 54.4089 31.9512 54.3188C31.9512 54.2286 38.3892 54.1514 46.4045 54.1514C54.4198 54.1514 60.8513 54.2222 60.8513 54.3188Z" fill="#263238"/>
<path d="M83.1397 61.2528C83.1397 61.3494 71.6801 61.4202 57.5486 61.4202C43.4172 61.4202 31.9512 61.3494 31.9512 61.2528C31.9512 61.1563 43.4108 61.0854 57.5486 61.0854C71.6865 61.0854 83.1397 61.1627 83.1397 61.2528Z" fill="#263238"/>
<path d="M100.645 60.725C100.645 60.8151 97.5358 60.8924 93.7116 60.8924C89.8875 60.8924 86.7715 60.8151 86.7715 60.725C86.7715 60.6349 89.881 60.5576 93.7116 60.5576C97.5423 60.5576 100.645 60.6542 100.645 60.725Z" fill="#263238"/>
<path d="M134.586 60.4545C134.586 60.5446 128.148 60.6219 120.275 60.6219C112.401 60.6219 105.963 60.5446 105.963 60.4545C105.963 60.3644 112.369 60.2871 120.275 60.2871C128.18 60.2871 134.586 60.3579 134.586 60.4545Z" fill="#263238"/>
<path d="M134.284 66.3515C134.284 66.448 111.293 66.5253 82.9405 66.5253C54.5875 66.5253 31.5781 66.448 31.5781 66.3515C31.5781 66.2549 54.5618 66.1841 82.9276 66.1841C111.293 66.1841 134.284 66.2613 134.284 66.3515Z" fill="#263238"/>
<path d="M79.3927 72.5512C79.3927 72.6413 68.7571 72.7186 55.6429 72.7186C42.5287 72.7186 31.8867 72.6413 31.8867 72.5512C31.8867 72.461 42.5159 72.3838 55.6429 72.3838C68.77 72.3838 79.3927 72.461 79.3927 72.5512Z" fill="#263238"/>
<path d="M96.8077 72.5513C94.6466 72.717 92.4785 72.7729 90.3118 72.7186C88.1472 72.773 85.9812 72.7171 83.8223 72.5513C85.9812 72.3854 88.1472 72.3295 90.3118 72.3839C92.4785 72.3296 94.6466 72.3855 96.8077 72.5513Z" fill="#263238"/>
<path d="M134.284 71.9589C134.284 72.0555 126.823 72.1263 117.61 72.1263C108.397 72.1263 100.936 72.0555 100.936 71.9589C100.936 71.8623 108.404 71.7915 117.61 71.7915C126.816 71.7915 134.284 71.8688 134.284 71.9589Z" fill="#263238"/>
<path d="M82.4971 125.652C82.4971 125.742 71.0375 125.819 56.8996 125.819C42.7618 125.819 31.3086 125.742 31.3086 125.652C31.3086 125.562 42.7618 125.484 56.8996 125.484C71.0375 125.484 82.4971 125.562 82.4971 125.652Z" fill="#263238"/>
<path d="M99.9944 125.143C99.9944 125.24 96.8913 125.311 93.0607 125.311C89.2301 125.311 86.127 125.24 86.127 125.143C86.127 125.047 89.2301 124.976 93.0607 124.976C96.8913 124.976 99.9944 125.053 99.9944 125.143Z" fill="#263238"/>
<path d="M133.942 124.854C133.942 124.944 127.504 125.021 119.631 125.021C111.757 125.021 105.312 124.944 105.312 124.854C105.312 124.763 111.751 124.68 119.631 124.68C127.511 124.68 133.942 124.757 133.942 124.854Z" fill="#263238"/>
<path d="M133.641 130.751C133.641 130.847 110.651 130.918 82.2915 130.918C53.9321 130.918 30.9355 130.847 30.9355 130.751C30.9355 130.654 53.9256 130.583 82.285 130.583C110.644 130.583 133.641 130.661 133.641 130.751Z" fill="#263238"/>
<path d="M78.7488 136.951C78.7488 137.041 68.1132 137.118 54.9925 137.118C41.8719 137.118 31.2363 137.041 31.2363 136.951C31.2363 136.86 41.8719 136.783 54.9925 136.783C68.1132 136.783 78.7488 136.854 78.7488 136.951Z" fill="#263238"/>
<path d="M96.1587 136.95C93.9998 137.116 91.8338 137.172 89.6692 137.118C87.5046 137.172 85.3386 137.116 83.1797 136.95C85.3384 136.781 87.5046 136.725 89.6692 136.783C91.8338 136.725 94 136.781 96.1587 136.95Z" fill="#263238"/>
<path d="M133.64 136.358C133.64 136.455 126.172 136.526 116.965 136.526C107.759 136.526 100.291 136.455 100.291 136.358C100.291 136.262 107.753 136.191 116.965 136.191C126.178 136.191 133.64 136.268 133.64 136.358Z" fill="#263238"/>
<path d="M96.808 143.775C96.808 143.865 82.2968 143.942 64.3991 143.942C46.5015 143.942 31.9902 143.865 31.9902 143.775C31.9902 143.685 46.495 143.607 64.3991 143.607C82.3032 143.607 96.808 143.659 96.808 143.775Z" fill="#263238"/>
<path d="M96.1572 150.548C96.1572 150.638 81.6781 150.715 63.8191 150.715C45.9601 150.715 31.4746 150.638 31.4746 150.548C31.4746 150.458 45.9537 150.38 63.8191 150.38C81.6846 150.38 96.1572 150.458 96.1572 150.548Z" fill="#263238"/>
<path d="M94.3673 79.1118H31.5195V119.24H94.3673V79.1118Z" fill="#4F4FE6"/>
<path d="M91.6637 116.046C91.6637 116.046 91.6637 115.828 91.6637 115.403C91.6637 114.978 91.6637 114.385 91.6637 113.6C91.6637 112.01 91.6637 109.686 91.6637 106.705C91.6637 100.743 91.6251 92.168 91.5929 81.6612L91.7216 81.7899L34.7711 81.8285L34.9385 81.6612C34.9385 93.8354 34.9385 105.482 34.9385 116.034L34.784 115.879L75.7425 115.95L87.5048 115.995H90.6401H91.4577H91.7345H91.477H90.6787H87.5756L75.8455 116.034L34.784 116.111H34.623V115.956C34.623 105.379 34.623 93.7581 34.623 81.5839V81.4165H34.7969L91.7474 81.4551H91.8826V81.5839C91.8826 92.1229 91.8311 100.73 91.8118 106.692C91.8118 109.66 91.8118 111.978 91.7796 113.561C91.7796 114.334 91.7796 114.933 91.7796 115.345C91.7796 115.757 91.6637 116.046 91.6637 116.046Z" fill="white"/>
<g opacity="0.2">
<path d="M36.252 116.046L52.7268 94.814L64.6306 108.411L73.7404 100.209L90.3118 116.046H36.252Z" fill="white"/>
</g>
<g opacity="0.2">
<path d="M68.3131 92.2707C68.3144 92.9983 68.0997 93.71 67.6963 94.3155C67.2928 94.921 66.7188 95.3932 66.0468 95.6722C65.3748 95.9512 64.6351 96.0246 63.9214 95.8829C63.2078 95.7413 62.5521 95.3911 62.0376 94.8766C61.5231 94.3621 61.1729 93.7065 61.0313 92.9928C60.8896 92.2791 60.963 91.5394 61.242 90.8674C61.521 90.1954 61.9932 89.6214 62.5987 89.2179C63.2042 88.8145 63.9159 88.5998 64.6435 88.6011C65.6162 88.6028 66.5486 88.99 67.2364 89.6778C67.9243 90.3656 68.3114 91.298 68.3131 92.2707Z" fill="white"/>
</g>
<path d="M134.284 78.7514C134.284 78.8479 126.397 78.9252 116.67 78.9252C106.942 78.9252 99.0488 78.8479 99.0488 78.7514C99.0488 78.6548 106.935 78.584 116.67 78.584C126.404 78.584 134.284 78.6677 134.284 78.7514Z" fill="#263238"/>
<path d="M134.284 85.0087C134.284 85.0988 126.397 85.1761 116.67 85.1761C106.942 85.1761 99.0488 85.0988 99.0488 85.0087C99.0488 84.9186 106.935 84.8413 116.67 84.8413C126.404 84.8413 134.284 84.9121 134.284 85.0087Z" fill="#263238"/>
<path d="M133.022 112.183C133.022 112.28 125.136 112.351 115.401 112.351C105.667 112.351 97.7871 112.28 97.7871 112.183C97.7871 112.087 105.674 112.016 115.401 112.016C125.129 112.016 133.022 112.093 133.022 112.183Z" fill="#263238"/>
<path d="M133.022 119.233C133.022 119.33 125.136 119.401 115.401 119.401C105.667 119.401 97.7871 119.33 97.7871 119.233C97.7871 119.137 105.674 119.066 115.401 119.066C125.129 119.066 133.022 119.143 133.022 119.233Z" fill="#263238"/>
<path d="M122.773 91.2538C122.773 91.3439 117.461 91.4212 110.914 91.4212C104.367 91.4212 99.0488 91.3439 99.0488 91.2538C99.0488 91.1637 104.36 91.0864 110.914 91.0864C117.468 91.0864 122.773 91.1572 122.773 91.2538Z" fill="#263238"/>
<path d="M134.548 91.1766C133.078 91.3461 131.597 91.4021 130.119 91.344C128.64 91.4021 127.159 91.3461 125.689 91.1766C127.16 91.011 128.64 90.9551 130.119 91.0092C131.597 90.9551 133.078 91.011 134.548 91.1766Z" fill="#263238"/>
<path d="M134.548 98.1039C134.548 98.194 129.256 98.2713 122.734 98.2713C116.213 98.2713 110.914 98.194 110.914 98.1039C110.914 98.0138 116.2 97.9365 122.734 97.9365C129.269 97.9365 134.548 98.0073 134.548 98.1039Z" fill="#263238"/>
<path d="M122.773 105.096C122.773 105.186 117.461 105.263 110.914 105.263C104.367 105.263 99.0488 105.186 99.0488 105.096C99.0488 105.005 104.36 104.928 110.914 104.928C117.468 104.928 122.773 105.005 122.773 105.096Z" fill="#263238"/>
<path d="M134.548 105.025C133.078 105.19 131.597 105.246 130.119 105.192C128.64 105.246 127.16 105.19 125.689 105.025C127.159 104.855 128.64 104.799 130.119 104.857C131.597 104.799 133.078 104.855 134.548 105.025Z" fill="#263238"/>
<path d="M106.221 97.9428C105.142 98.1081 104.048 98.1642 102.957 98.1102C101.867 98.1642 100.773 98.1081 99.6934 97.9428C100.773 97.7737 101.867 97.7176 102.957 97.7755C104.048 97.7176 105.142 97.7737 106.221 97.9428Z" fill="#263238"/>
<path d="M96.8074 157.204C96.8074 157.301 82.1803 157.372 64.141 157.372C46.1017 157.372 31.4746 157.301 31.4746 157.204C31.4746 157.108 46.1017 157.037 64.141 157.037C82.1803 157.037 96.8074 157.114 96.8074 157.204Z" fill="#263238"/>
<path d="M97.7873 164.744C97.7873 164.834 83.1666 164.911 65.1273 164.911C47.0881 164.911 32.4609 164.834 32.4609 164.744C32.4609 164.654 47.0816 164.57 65.1273 164.57C83.173 164.57 97.7873 164.647 97.7873 164.744Z" fill="#263238"/>
<path d="M19.79 88.5C24.2747 88.5 27.9109 92.1355 27.9111 96.6201C27.9111 101.105 24.2749 104.741 19.79 104.741C15.3054 104.741 11.6699 101.105 11.6699 96.6201C11.6701 92.1356 15.3055 88.5002 19.79 88.5Z" fill="#EBEBEB" stroke="#01016A"/>
<mask id="path-157-inside-1_1647_10479" fill="white">
<path d="M28.4109 96.7531C28.345 96.0492 28.2331 95.3502 28.0761 94.6608C27.7776 93.5111 27.2419 92.4366 26.5035 91.5062C25.7651 90.5758 24.8402 89.8102 23.7883 89.2585C22.7364 88.7068 21.5807 88.3812 20.3955 88.3026C19.2103 88.224 18.0217 88.3942 16.9062 88.8022C15.3344 89.3752 13.9693 90.4041 12.9855 91.7573C11.9188 93.2046 11.3434 94.9553 11.3434 96.7531C11.3434 98.551 11.9188 100.302 12.9855 101.749C13.9722 103.098 15.3366 104.124 16.9062 104.698C18.2374 105.186 19.6695 105.332 21.0719 105.124C22.4743 104.916 23.8023 104.36 24.9344 103.507C26.4753 102.347 27.5818 100.703 28.0761 98.8391C28.2323 98.1516 28.3441 97.4549 28.4109 96.7531C28.4222 96.9354 28.4222 97.1181 28.4109 97.3004C28.4089 97.5159 28.3917 97.731 28.3594 97.9442C28.3247 98.2477 28.271 98.5487 28.1985 98.8455C27.8089 100.467 26.9616 101.943 25.7575 103.097C24.5534 104.25 23.0431 105.034 21.4064 105.354C19.8674 105.648 18.2778 105.523 16.8032 104.994C15.1687 104.403 13.7461 103.341 12.7151 101.942C11.6013 100.44 11 98.6198 11 96.7499C11 94.88 11.6013 93.0597 12.7151 91.5577C13.2293 90.8438 13.8554 90.2177 14.5692 89.7035C15.2472 89.1961 15.9983 88.7945 16.7968 88.5125C18.2738 87.9836 19.8659 87.8613 21.4064 88.1584C23.0414 88.4721 24.5518 89.2495 25.7572 90.3979C26.9626 91.5462 27.8123 93.0171 28.2049 94.635C28.2769 94.9319 28.3306 95.2329 28.3659 95.5364C28.3979 95.7495 28.4151 95.9646 28.4174 96.1802C28.4272 96.3711 28.4251 96.5625 28.4109 96.7531Z"/>
</mask>
<path d="M28.4109 96.7531C28.345 96.0492 28.2331 95.3502 28.0761 94.6608C27.7776 93.5111 27.2419 92.4366 26.5035 91.5062C25.7651 90.5758 24.8402 89.8102 23.7883 89.2585C22.7364 88.7068 21.5807 88.3812 20.3955 88.3026C19.2103 88.224 18.0217 88.3942 16.9062 88.8022C15.3344 89.3752 13.9693 90.4041 12.9855 91.7573C11.9188 93.2046 11.3434 94.9553 11.3434 96.7531C11.3434 98.551 11.9188 100.302 12.9855 101.749C13.9722 103.098 15.3366 104.124 16.9062 104.698C18.2374 105.186 19.6695 105.332 21.0719 105.124C22.4743 104.916 23.8023 104.36 24.9344 103.507C26.4753 102.347 27.5818 100.703 28.0761 98.8391C28.2323 98.1516 28.3441 97.4549 28.4109 96.7531C28.4222 96.9354 28.4222 97.1181 28.4109 97.3004C28.4089 97.5159 28.3917 97.731 28.3594 97.9442C28.3247 98.2477 28.271 98.5487 28.1985 98.8455C27.8089 100.467 26.9616 101.943 25.7575 103.097C24.5534 104.25 23.0431 105.034 21.4064 105.354C19.8674 105.648 18.2778 105.523 16.8032 104.994C15.1687 104.403 13.7461 103.341 12.7151 101.942C11.6013 100.44 11 98.6198 11 96.7499C11 94.88 11.6013 93.0597 12.7151 91.5577C13.2293 90.8438 13.8554 90.2177 14.5692 89.7035C15.2472 89.1961 15.9983 88.7945 16.7968 88.5125C18.2738 87.9836 19.8659 87.8613 21.4064 88.1584C23.0414 88.4721 24.5518 89.2495 25.7572 90.3979C26.9626 91.5462 27.8123 93.0171 28.2049 94.635C28.2769 94.9319 28.3306 95.2329 28.3659 95.5364C28.3979 95.7495 28.4151 95.9646 28.4174 96.1802C28.4272 96.3711 28.4251 96.5625 28.4109 96.7531Z" fill="#263238"/>
<path d="M28.0761 94.6608L29.0512 94.4388L29.0478 94.4241L29.0441 94.4095L28.0761 94.6608ZM16.9062 88.8022L17.2487 89.7417L17.2497 89.7414L16.9062 88.8022ZM12.9855 91.7573L13.7905 92.3505L13.7943 92.3453L12.9855 91.7573ZM12.9855 101.749L13.7926 101.159L13.7905 101.156L12.9855 101.749ZM16.9062 104.698L17.2504 103.759L17.2495 103.758L16.9062 104.698ZM24.9344 103.507L24.3331 102.708L24.3325 102.708L24.9344 103.507ZM28.0761 98.8391L29.0427 99.0954L29.0473 99.078L29.0513 99.0605L28.0761 98.8391ZM28.4109 97.3004L27.4128 97.2384L27.4112 97.2647L27.411 97.291L28.4109 97.3004ZM28.3594 97.9442L27.3707 97.7944L27.368 97.8125L27.3659 97.8306L28.3594 97.9442ZM28.1985 98.8455L27.227 98.6082L27.2261 98.6119L28.1985 98.8455ZM21.4064 105.354L21.5937 106.337L21.5984 106.336L21.4064 105.354ZM16.8032 104.994L16.4634 105.934L16.4652 105.935L16.8032 104.994ZM12.7151 101.942L13.5201 101.349L13.5183 101.347L12.7151 101.942ZM12.7151 91.5577L13.5184 92.1534L13.5265 92.1421L12.7151 91.5577ZM14.5692 89.7035L15.1537 90.5149L15.1611 90.5096L15.1684 90.5041L14.5692 89.7035ZM16.7968 88.5125L17.1298 89.4554L17.1339 89.454L16.7968 88.5125ZM21.4064 88.1584L21.217 89.1403L21.218 89.1405L21.4064 88.1584ZM28.2049 94.635L29.1768 94.3995L29.1767 94.3992L28.2049 94.635ZM28.3659 95.5364L27.3725 95.6517L27.3745 95.6685L27.377 95.6852L28.3659 95.5364ZM28.4174 96.1802L27.4174 96.1905L27.4176 96.2111L27.4187 96.2317L28.4174 96.1802ZM28.4109 96.7531L29.4066 96.6598C29.3365 95.9126 29.2178 95.1706 29.0512 94.4388L28.0761 94.6608L27.1011 94.8828C27.2484 95.5298 27.3534 96.1858 27.4153 96.8464L28.4109 96.7531ZM28.0761 94.6608L29.0441 94.4095C28.7105 93.1248 28.1119 91.9241 27.2868 90.8845L26.5035 91.5062L25.7202 92.1279C26.372 92.949 26.8448 93.8974 27.1082 94.9121L28.0761 94.6608ZM26.5035 91.5062L27.2868 90.8845C26.4616 89.8449 25.4282 88.9894 24.2528 88.3729L23.7883 89.2585L23.3238 90.1441C24.2522 90.631 25.0685 91.3067 25.7202 92.1279L26.5035 91.5062ZM23.7883 89.2585L24.2528 88.3729C23.0774 87.7564 21.786 87.3926 20.4616 87.3048L20.3955 88.3026L20.3293 89.3004C21.3754 89.3697 22.3954 89.6571 23.3238 90.1441L23.7883 89.2585ZM20.3955 88.3026L20.4616 87.3048C19.1373 87.217 17.8092 87.4071 16.5627 87.8631L16.9062 88.8022L17.2497 89.7414C18.2343 89.3812 19.2833 89.231 20.3293 89.3004L20.3955 88.3026ZM16.9062 88.8022L16.5637 87.8627C14.805 88.5039 13.2775 89.6551 12.1767 91.1692L12.9855 91.7573L13.7943 92.3453C14.6611 91.1531 15.8639 90.2466 17.2487 89.7417L16.9062 88.8022ZM12.9855 91.7573L12.1805 91.164C10.9872 92.7832 10.3434 94.7418 10.3434 96.7531H11.3434H12.3434C12.3434 95.1688 12.8505 93.626 13.7905 92.3505L12.9855 91.7573ZM11.3434 96.7531H10.3434C10.3434 98.7645 10.9872 100.723 12.1805 102.342L12.9855 101.749L13.7905 101.156C12.8505 99.8803 12.3434 98.3375 12.3434 96.7531H11.3434ZM12.9855 101.749L12.1784 102.339C13.2818 103.848 14.8076 104.995 16.5629 105.637L16.9062 104.698L17.2495 103.758C15.8655 103.253 14.6626 102.348 13.7926 101.159L12.9855 101.749ZM16.9062 104.698L16.562 105.637C18.05 106.182 19.651 106.346 21.2187 106.113L21.0719 105.124L20.9252 104.135C19.6881 104.319 18.4247 104.189 17.2504 103.759L16.9062 104.698ZM21.0719 105.124L21.2187 106.113C22.7864 105.881 24.2708 105.259 25.5363 104.305L24.9344 103.507L24.3325 102.708C23.3337 103.461 22.1623 103.951 20.9252 104.135L21.0719 105.124ZM24.9344 103.507L25.5357 104.306C27.2558 103.011 28.4909 101.176 29.0427 99.0954L28.0761 98.8391L27.1096 98.5827C26.6727 100.23 25.6948 101.683 24.3331 102.708L24.9344 103.507ZM28.0761 98.8391L29.0513 99.0605C29.2169 98.3314 29.3355 97.5923 29.4064 96.848L28.4109 96.7531L27.4154 96.6583C27.3527 97.3175 27.2476 97.9719 27.101 98.6176L28.0761 98.8391ZM28.4109 96.7531L27.4128 96.8151C27.4216 96.9561 27.4216 97.0974 27.4128 97.2384L28.4109 97.3004L29.409 97.3623C29.4229 97.1388 29.4229 96.9147 29.409 96.6912L28.4109 96.7531ZM28.4109 97.3004L27.411 97.291C27.4094 97.4596 27.3959 97.6278 27.3707 97.7944L28.3594 97.9442L29.3481 98.0939C29.3875 97.8343 29.4084 97.5723 29.4109 97.3097L28.4109 97.3004ZM28.3594 97.9442L27.3659 97.8306C27.336 98.0925 27.2896 98.3522 27.227 98.6082L28.1985 98.8455L29.1699 99.0828C29.2524 98.7453 29.3135 98.4029 29.3529 98.0577L28.3594 97.9442ZM28.1985 98.8455L27.2261 98.6119C26.8813 100.047 26.1314 101.353 25.0656 102.375L25.7575 103.097L26.4494 103.819C27.7918 102.532 28.7364 100.887 29.1708 99.0791L28.1985 98.8455ZM25.7575 103.097L25.0656 102.375C23.9998 103.396 22.663 104.089 21.2144 104.373L21.4064 105.354L21.5984 106.336C23.4231 105.979 25.1069 105.105 26.4494 103.819L25.7575 103.097ZM21.4064 105.354L21.219 104.372C19.8557 104.632 18.4475 104.522 17.1412 104.053L16.8032 104.994L16.4652 105.935C18.1081 106.525 19.8791 106.664 21.5937 106.337L21.4064 105.354ZM16.8032 104.994L17.143 104.053C15.6946 103.53 14.4338 102.589 13.5201 101.349L12.7151 101.942L11.9101 102.535C13.0584 104.094 14.6429 105.276 16.4634 105.934L16.8032 104.994ZM12.7151 101.942L13.5183 101.347C12.5323 100.017 12 98.4053 12 96.7499H11H10C10 98.8343 10.6703 100.864 11.9118 102.538L12.7151 101.942ZM11 96.7499H12C12 95.0945 12.5323 93.483 13.5183 92.1533L12.7151 91.5577L11.9118 90.962C10.6703 92.6363 10 94.6655 10 96.7499H11ZM12.7151 91.5577L13.5265 92.1421C13.9778 91.5157 14.5272 90.9662 15.1537 90.5149L14.5692 89.7035L13.9848 88.8921C13.1835 89.4692 12.4808 90.172 11.9037 90.9732L12.7151 91.5577ZM14.5692 89.7035L15.1684 90.5041C15.7654 90.0573 16.4267 89.7038 17.1298 89.4554L16.7968 88.5125L16.4637 87.5696C15.5698 87.8853 14.729 88.3349 13.97 88.9029L14.5692 89.7035ZM16.7968 88.5125L17.1339 89.454C18.4422 88.9855 19.8525 88.8772 21.217 89.1403L21.4064 88.1584L21.5957 87.1765C19.8793 86.8455 18.1054 86.9818 16.4597 87.571L16.7968 88.5125ZM21.4064 88.1584L21.218 89.1405C22.6646 89.4181 24.0009 90.1059 25.0674 91.1219L25.7572 90.3979L26.447 89.6738C25.1026 88.3931 23.4183 87.5262 21.5948 87.1763L21.4064 88.1584ZM25.7572 90.3979L25.0674 91.1219C26.134 92.138 26.8858 93.4393 27.2331 94.8708L28.2049 94.635L29.1767 94.3992C28.7389 92.5949 27.7913 90.9545 26.447 89.6738L25.7572 90.3979ZM28.2049 94.635L27.233 94.8706C27.2954 95.1279 27.342 95.3888 27.3725 95.6517L28.3659 95.5364L29.3592 95.421C29.3192 95.0771 29.2583 94.736 29.1768 94.3995L28.2049 94.635ZM28.3659 95.5364L27.377 95.6852C27.4022 95.8524 27.4157 96.0213 27.4174 96.1905L28.4174 96.1802L29.4173 96.1699C29.4146 95.908 29.3937 95.6466 29.3547 95.3876L28.3659 95.5364ZM28.4174 96.1802L27.4187 96.2317C27.4264 96.3808 27.4247 96.5303 27.4137 96.6792L28.4109 96.7531L29.4082 96.8271C29.4254 96.5947 29.428 96.3614 29.416 96.1286L28.4174 96.1802Z" fill="#01016A" mask="url(#path-157-inside-1_1647_10479)"/>
<path d="M149.032 88.5C153.517 88.5 157.153 92.1355 157.153 96.6201C157.153 101.105 153.517 104.741 149.032 104.741C144.548 104.741 140.912 101.105 140.912 96.6201C140.912 92.1356 144.548 88.5002 149.032 88.5Z" fill="#EBEBEB" stroke="#01016A"/>
<mask id="path-160-inside-2_1647_10479" fill="white">
<path d="M157.654 96.7521C157.588 96.0481 157.477 95.3492 157.32 94.6598C156.824 92.7963 155.718 91.1529 154.178 89.9922C153.123 89.1978 151.897 88.6599 150.598 88.4214C149.116 88.1582 147.591 88.2892 146.175 88.8012C144.604 89.3742 143.238 90.4031 142.255 91.7562C141.188 93.2035 140.613 94.9542 140.613 96.7521C140.613 98.55 141.188 100.301 142.255 101.748C143.241 103.097 144.606 104.123 146.175 104.697C147.506 105.185 148.939 105.331 150.341 105.123C151.743 104.915 153.071 104.359 154.204 103.506C155.744 102.346 156.851 100.702 157.345 98.838C157.501 98.1506 157.613 97.4539 157.68 96.7521C157.696 96.9342 157.696 97.1173 157.68 97.2993C157.678 97.5149 157.661 97.73 157.629 97.9431C157.594 98.2467 157.54 98.5477 157.468 98.8445C157.078 100.465 156.232 101.94 155.029 103.094C153.826 104.248 152.317 105.032 150.682 105.353C149.143 105.647 147.553 105.522 146.079 104.993C145.282 104.712 144.533 104.31 143.858 103.802C143.14 103.287 142.512 102.659 141.997 101.941C140.885 100.438 140.285 98.6183 140.285 96.7489C140.285 94.8795 140.885 93.0595 141.997 91.5567C142.512 90.8412 143.14 90.2148 143.858 89.7025C144.533 89.194 145.282 88.7924 146.079 88.5115C147.554 87.9841 149.143 87.8618 150.682 88.1574C152.317 88.4711 153.827 89.2485 155.033 90.3969C156.238 91.5452 157.088 93.0161 157.48 94.634C157.552 94.9309 157.606 95.2319 157.641 95.5353C157.673 95.7485 157.691 95.9636 157.693 96.1791C157.697 96.3709 157.684 96.5626 157.654 96.7521Z"/>
</mask>
<path d="M157.654 96.7521C157.588 96.0481 157.477 95.3492 157.32 94.6598C156.824 92.7963 155.718 91.1529 154.178 89.9922C153.123 89.1978 151.897 88.6599 150.598 88.4214C149.116 88.1582 147.591 88.2892 146.175 88.8012C144.604 89.3742 143.238 90.4031 142.255 91.7562C141.188 93.2035 140.613 94.9542 140.613 96.7521C140.613 98.55 141.188 100.301 142.255 101.748C143.241 103.097 144.606 104.123 146.175 104.697C147.506 105.185 148.939 105.331 150.341 105.123C151.743 104.915 153.071 104.359 154.204 103.506C155.744 102.346 156.851 100.702 157.345 98.838C157.501 98.1506 157.613 97.4539 157.68 96.7521C157.696 96.9342 157.696 97.1173 157.68 97.2993C157.678 97.5149 157.661 97.73 157.629 97.9431C157.594 98.2467 157.54 98.5477 157.468 98.8445C157.078 100.465 156.232 101.94 155.029 103.094C153.826 104.248 152.317 105.032 150.682 105.353C149.143 105.647 147.553 105.522 146.079 104.993C145.282 104.712 144.533 104.31 143.858 103.802C143.14 103.287 142.512 102.659 141.997 101.941C140.885 100.438 140.285 98.6183 140.285 96.7489C140.285 94.8795 140.885 93.0595 141.997 91.5567C142.512 90.8412 143.14 90.2148 143.858 89.7025C144.533 89.194 145.282 88.7924 146.079 88.5115C147.554 87.9841 149.143 87.8618 150.682 88.1574C152.317 88.4711 153.827 89.2485 155.033 90.3969C156.238 91.5452 157.088 93.0161 157.48 94.634C157.552 94.9309 157.606 95.2319 157.641 95.5353C157.673 95.7485 157.691 95.9636 157.693 96.1791C157.697 96.3709 157.684 96.5626 157.654 96.7521Z" fill="#263238"/>
<path d="M157.654 96.7521L156.659 96.8454L158.642 96.9054L157.654 96.7521ZM157.32 94.6598L158.295 94.4378L158.291 94.4201L158.286 94.4027L157.32 94.6598ZM154.178 89.9922L154.78 89.1937L154.779 89.1934L154.178 89.9922ZM150.598 88.4214L150.779 87.4378L150.773 87.4368L150.598 88.4214ZM146.175 88.8012L145.835 87.8608L145.833 87.8617L146.175 88.8012ZM142.255 91.7562L143.06 92.3495L143.063 92.3443L142.255 91.7562ZM142.255 101.748L143.062 101.158L143.06 101.155L142.255 101.748ZM146.175 104.697L146.52 103.758L146.519 103.757L146.175 104.697ZM154.204 103.506L153.602 102.707L153.602 102.707L154.204 103.506ZM157.345 98.838L158.312 99.0944L158.316 99.077L158.32 99.0595L157.345 98.838ZM157.68 96.7521L158.676 96.6671L156.685 96.6573L157.68 96.7521ZM157.68 97.2993L156.684 97.2143L156.68 97.2521L156.68 97.29L157.68 97.2993ZM157.629 97.9431L156.64 97.7934L156.637 97.8114L156.635 97.8296L157.629 97.9431ZM157.468 98.8445L156.496 98.6071L156.495 98.611L157.468 98.8445ZM150.682 105.353L150.869 106.336L150.875 106.335L150.682 105.353ZM146.079 104.993L146.417 104.052L146.411 104.05L146.079 104.993ZM143.858 103.802L144.459 103.003L144.45 102.996L144.441 102.989L143.858 103.802ZM141.997 101.941L142.81 101.358L142.805 101.352L142.801 101.346L141.997 101.941ZM141.997 91.5567L142.801 92.1515L142.809 92.1407L141.997 91.5567ZM143.858 89.7025L144.439 90.5162L144.449 90.5089L144.459 90.5012L143.858 89.7025ZM146.079 88.5115L146.411 89.4546L146.415 89.4531L146.079 88.5115ZM150.682 88.1574L150.493 89.1394L150.494 89.1395L150.682 88.1574ZM157.48 94.634L158.452 94.3985L158.452 94.3982L157.48 94.634ZM157.641 95.5353L156.648 95.6507L156.65 95.6675L156.653 95.6841L157.641 95.5353ZM157.693 96.1791L156.693 96.1894L156.693 96.1984L157.693 96.1791ZM157.654 96.7521L158.65 96.6588C158.58 95.9115 158.461 95.1696 158.295 94.4378L157.32 94.6598L156.344 94.8818C156.492 95.5288 156.597 96.1847 156.659 96.8454L157.654 96.7521ZM157.32 94.6598L158.286 94.4027C157.733 92.3231 156.498 90.489 154.78 89.1937L154.178 89.9922L153.576 90.7908C154.937 91.8168 155.915 93.2696 156.353 94.9169L157.32 94.6598ZM154.178 89.9922L154.779 89.1934C153.6 88.3055 152.231 87.7044 150.779 87.4378L150.598 88.4214L150.418 89.4049C151.564 89.6154 152.645 90.09 153.576 90.7911L154.178 89.9922ZM150.598 88.4214L150.773 87.4368C149.118 87.1429 147.416 87.2892 145.835 87.8608L146.175 88.8012L146.516 89.7416C147.766 89.2891 149.114 89.1734 150.423 89.406L150.598 88.4214ZM146.175 88.8012L145.833 87.8617C144.074 88.5028 142.547 89.6541 141.446 91.1682L142.255 91.7562L143.063 92.3443C143.93 91.1521 145.133 90.2456 146.518 89.7407L146.175 88.8012ZM142.255 91.7562L141.45 91.163C140.256 92.7821 139.613 94.7407 139.613 96.7521H140.613H141.613C141.613 95.1677 142.12 93.6249 143.06 92.3495L142.255 91.7562ZM140.613 96.7521H139.613C139.613 98.7635 140.256 100.722 141.45 102.341L142.255 101.748L143.06 101.155C142.12 99.8793 141.613 98.3365 141.613 96.7521H140.613ZM142.255 101.748L141.448 102.338C142.551 103.847 144.077 104.994 145.832 105.636L146.175 104.697L146.519 103.757C145.135 103.252 143.932 102.347 143.062 101.158L142.255 101.748ZM146.175 104.697L145.831 105.636C147.319 106.181 148.92 106.345 150.488 106.112L150.341 105.123L150.194 104.134C148.957 104.318 147.694 104.188 146.52 103.758L146.175 104.697ZM150.341 105.123L150.488 106.112C152.056 105.88 153.54 105.258 154.805 104.304L154.204 103.506L153.602 102.707C152.603 103.46 151.431 103.95 150.194 104.134L150.341 105.123ZM154.204 103.506L154.805 104.305C156.525 103.01 157.76 101.175 158.312 99.0944L157.345 98.838L156.379 98.5817C155.942 100.229 154.964 101.682 153.602 102.707L154.204 103.506ZM157.345 98.838L158.32 99.0595C158.486 98.3303 158.605 97.5913 158.676 96.8469L157.68 96.7521L156.685 96.6573C156.622 97.3165 156.517 97.9709 156.37 98.6166L157.345 98.838ZM157.68 96.7521L156.684 96.8371C156.694 96.9626 156.694 97.0888 156.684 97.2143L157.68 97.2993L158.676 97.3843C158.697 97.1457 158.697 96.9058 158.676 96.6671L157.68 96.7521ZM157.68 97.2993L156.68 97.29C156.679 97.4586 156.665 97.6268 156.64 97.7934L157.629 97.9431L158.617 98.0929C158.657 97.8333 158.678 97.5712 158.68 97.3087L157.68 97.2993ZM157.629 97.9431L156.635 97.8296C156.605 98.0914 156.559 98.3511 156.496 98.6071L157.468 98.8445L158.439 99.0818C158.521 98.7443 158.583 98.4019 158.622 98.0567L157.629 97.9431ZM157.468 98.8445L156.495 98.611C156.151 100.046 155.402 101.351 154.337 102.372L155.029 103.094L155.722 103.816C157.063 102.529 158.006 100.885 158.44 99.0779L157.468 98.8445ZM155.029 103.094L154.337 102.372C153.272 103.394 151.937 104.088 150.489 104.372L150.682 105.353L150.875 106.335C152.698 105.976 154.38 105.102 155.722 103.816L155.029 103.094ZM150.682 105.353L150.495 104.371C149.131 104.631 147.723 104.521 146.417 104.052L146.079 104.993L145.741 105.934C147.384 106.524 149.155 106.663 150.869 106.336L150.682 105.353ZM146.079 104.993L146.411 104.05C145.711 103.803 145.052 103.45 144.459 103.003L143.858 103.802L143.256 104.6C144.013 105.171 144.853 105.621 145.746 105.936L146.079 104.993ZM143.858 103.802L144.441 102.989C143.812 102.538 143.261 101.987 142.81 101.358L141.997 101.941L141.185 102.524C141.763 103.33 142.469 104.036 143.275 104.614L143.858 103.802ZM141.997 101.941L142.801 101.346C141.816 100.016 141.285 98.4042 141.285 96.7489H140.285H139.285C139.285 98.8324 139.954 100.861 141.193 102.536L141.997 101.941ZM140.285 96.7489H141.285C141.285 95.0936 141.816 93.4821 142.801 92.1514L141.997 91.5567L141.193 90.9619C139.954 92.6369 139.285 94.6654 139.285 96.7489H140.285ZM141.997 91.5567L142.809 92.1407C143.26 91.5139 143.811 90.9651 144.439 90.5162L143.858 89.7025L143.276 88.8888C142.47 89.4646 141.764 90.1685 141.185 90.9726L141.997 91.5567ZM143.858 89.7025L144.459 90.5012C145.052 90.0544 145.711 89.7015 146.411 89.4546L146.079 88.5115L145.746 87.5683C144.853 87.8833 144.013 88.3337 143.256 88.9038L143.858 89.7025ZM146.079 88.5115L146.415 89.4531C147.722 88.9859 149.13 88.8776 150.493 89.1394L150.682 88.1574L150.871 87.1754C149.157 86.846 147.386 86.9823 145.742 87.5699L146.079 88.5115ZM150.682 88.1574L150.494 89.1395C151.94 89.417 153.276 90.1048 154.343 91.1209L155.033 90.3969L155.723 89.6728C154.378 88.3921 152.694 87.5251 150.87 87.1753L150.682 88.1574ZM155.033 90.3969L154.343 91.1209C155.41 92.1369 156.161 93.4383 156.509 94.8698L157.48 94.634L158.452 94.3982C158.014 92.5939 157.067 90.9535 155.723 89.6728L155.033 90.3969ZM157.48 94.634L156.509 94.8696C156.571 95.1269 156.618 95.3877 156.648 95.6507L157.641 95.5353L158.635 95.42C158.595 95.0761 158.534 94.7349 158.452 94.3985L157.48 94.634ZM157.641 95.5353L156.653 95.6841C156.678 95.8515 156.691 96.0203 156.693 96.1894L157.693 96.1791L158.693 96.1688C158.69 95.9069 158.669 95.6455 158.63 95.3865L157.641 95.5353ZM157.693 96.1791L156.693 96.1984C156.696 96.3323 156.687 96.4663 156.666 96.5989L157.654 96.7521L158.642 96.9054C158.681 96.6589 158.698 96.4094 158.693 96.1599L157.693 96.1791Z" fill="#01016A" mask="url(#path-160-inside-2_1647_10479)"/>
<mask id="path-162-inside-3_1647_10479" fill="white">
<path d="M148.009 99.6664C147.962 99.6664 147.916 99.656 147.874 99.636C147.831 99.6159 147.794 99.5867 147.765 99.5505C147.71 99.4843 147.684 99.3995 147.691 99.3141C147.698 99.2286 147.738 99.1494 147.803 99.0934L150.507 96.8336L147.803 94.5675C147.771 94.5407 147.744 94.5078 147.724 94.4705C147.704 94.4332 147.692 94.3923 147.689 94.3503C147.685 94.3083 147.69 94.266 147.703 94.2259C147.716 94.1858 147.737 94.1487 147.765 94.1168C147.819 94.0514 147.896 94.01 147.981 94.0016C148.065 93.9932 148.149 94.0184 148.215 94.0717L151.209 96.5826C151.246 96.6132 151.275 96.6516 151.295 96.695C151.315 96.7384 151.325 96.7858 151.325 96.8336C151.326 96.8807 151.317 96.9274 151.296 96.97C151.276 97.0125 151.246 97.0496 151.209 97.0783L148.215 99.5891C148.159 99.6398 148.085 99.6674 148.009 99.6664Z"/>
</mask>
<path d="M148.009 99.6664C147.962 99.6664 147.916 99.656 147.874 99.636C147.831 99.6159 147.794 99.5867 147.765 99.5505C147.71 99.4843 147.684 99.3995 147.691 99.3141C147.698 99.2286 147.738 99.1494 147.803 99.0934L150.507 96.8336L147.803 94.5675C147.771 94.5407 147.744 94.5078 147.724 94.4705C147.704 94.4332 147.692 94.3923 147.689 94.3503C147.685 94.3083 147.69 94.266 147.703 94.2259C147.716 94.1858 147.737 94.1487 147.765 94.1168C147.819 94.0514 147.896 94.01 147.981 94.0016C148.065 93.9932 148.149 94.0184 148.215 94.0717L151.209 96.5826C151.246 96.6132 151.275 96.6516 151.295 96.695C151.315 96.7384 151.325 96.7858 151.325 96.8336C151.326 96.8807 151.317 96.9274 151.296 96.97C151.276 97.0125 151.246 97.0496 151.209 97.0783L148.215 99.5891C148.159 99.6398 148.085 99.6674 148.009 99.6664Z" fill="#263238"/>
<path d="M148.009 99.6664L148.022 98.6664L148.015 98.6663L148.008 98.6664L148.009 99.6664ZM147.765 99.5505L148.539 98.9178L148.536 98.9146L147.765 99.5505ZM147.803 99.0934L147.162 98.326L147.155 98.3315L147.149 98.337L147.803 99.0934ZM150.507 96.8336L151.148 97.601L152.065 96.8347L151.149 96.0672L150.507 96.8336ZM147.803 94.5675L148.446 93.801L148.437 93.7936L147.803 94.5675ZM147.765 94.1168L148.52 94.7715L148.528 94.7628L148.535 94.754L147.765 94.1168ZM148.215 94.0717L148.858 93.3055L148.851 93.3L148.844 93.2946L148.215 94.0717ZM151.209 96.5826L150.566 97.3488L150.569 97.351L151.209 96.5826ZM151.325 96.8336L150.325 96.8221L150.325 96.844L150.325 96.8659L151.325 96.8336ZM151.209 97.0783L150.601 96.2845L150.583 96.2979L150.566 96.3121L151.209 97.0783ZM148.215 99.5891L147.573 98.8229L147.56 98.8335L147.548 98.8445L148.215 99.5891ZM148.009 99.6664L148.008 98.6664C148.11 98.6662 148.21 98.6887 148.302 98.7322L147.874 99.636L147.446 100.54C147.622 100.623 147.815 100.667 148.01 100.666L148.009 99.6664ZM147.874 99.636L148.302 98.7322C148.394 98.7757 148.475 98.8391 148.539 98.9178L147.765 99.5505L146.99 100.183C147.114 100.334 147.269 100.456 147.446 100.54L147.874 99.636ZM147.765 99.5505L148.536 98.9146C148.648 99.05 148.702 99.2236 148.687 99.3983L147.691 99.3141L146.694 99.2298C146.665 99.5754 146.772 99.9186 146.993 100.186L147.765 99.5505ZM147.691 99.3141L148.687 99.3983C148.672 99.5729 148.59 99.735 148.457 99.8497L147.803 99.0934L147.149 98.337C146.887 98.5639 146.724 98.8844 146.694 99.2298L147.691 99.3141ZM147.803 99.0934L148.444 99.8607L151.148 97.601L150.507 96.8336L149.866 96.0663L147.162 98.326L147.803 99.0934ZM150.507 96.8336L151.149 96.0672L148.445 93.801L147.803 94.5675L147.161 95.3339L149.865 97.6001L150.507 96.8336ZM147.803 94.5675L148.437 93.7936C148.507 93.8516 148.566 93.9232 148.609 94.0041L147.724 94.4705L146.839 94.9368C146.921 95.0924 147.034 95.2299 147.17 95.3413L147.803 94.5675ZM147.724 94.4705L148.609 94.0041C148.651 94.085 148.677 94.1737 148.685 94.2649L147.689 94.3503L146.692 94.4357C146.707 94.6109 146.757 94.7813 146.839 94.9368L147.724 94.4705ZM147.689 94.3503L148.685 94.2649C148.693 94.356 148.682 94.4478 148.654 94.5349L147.703 94.2259L146.752 93.9168C146.698 94.0841 146.677 94.2606 146.692 94.4357L147.689 94.3503ZM147.703 94.2259L148.654 94.5349C148.626 94.622 148.58 94.7024 148.52 94.7715L147.765 94.1168L147.009 93.4621C146.894 93.5949 146.806 93.7495 146.752 93.9168L147.703 94.2259ZM147.765 94.1168L148.535 94.754C148.421 94.8916 148.258 94.9789 148.08 94.9966L147.981 94.0016L147.881 93.0066C147.534 93.0412 147.216 93.2113 146.994 93.4796L147.765 94.1168ZM147.981 94.0016L148.08 94.9966C147.902 95.0144 147.725 94.9613 147.586 94.8489L148.215 94.0717L148.844 93.2946C148.574 93.0754 148.228 92.9719 147.881 93.0066L147.981 94.0016ZM148.215 94.0717L147.573 94.8379L150.566 97.3487L151.209 96.5826L151.851 95.8164L148.858 93.3055L148.215 94.0717ZM151.209 96.5826L150.569 97.351C150.491 97.2865 150.429 97.2055 150.387 97.1141L151.295 96.695L152.203 96.276C152.121 96.0977 152 95.9399 151.849 95.8141L151.209 96.5826ZM151.295 96.695L150.387 97.1141C150.345 97.0226 150.324 96.9229 150.325 96.8221L151.325 96.8336L152.325 96.8452C152.327 96.6488 152.285 96.4543 152.203 96.276L151.295 96.695ZM151.325 96.8336L150.325 96.8659C150.322 96.7541 150.345 96.643 150.393 96.5419L151.296 96.97L152.2 97.3981C152.288 97.2118 152.331 97.0073 152.324 96.8014L151.325 96.8336ZM151.296 96.97L150.393 96.5419C150.441 96.4408 150.512 96.3525 150.601 96.2845L151.209 97.0783L151.817 97.8721C151.981 97.7468 152.112 97.5843 152.2 97.3981L151.296 96.97ZM151.209 97.0783L150.566 96.3121L147.573 98.8229L148.215 99.5891L148.858 100.355L151.851 97.8445L151.209 97.0783ZM148.215 99.5891L147.548 98.8445C147.678 98.7277 147.847 98.6641 148.022 98.6664L148.009 99.6664L147.996 100.666C148.323 100.671 148.639 100.552 148.883 100.334L148.215 99.5891Z" fill="#01016A" mask="url(#path-162-inside-3_1647_10479)"/>
<mask id="path-164-inside-4_1647_10479" fill="white">
<path d="M21.2777 99.6387C21.2001 99.6384 21.125 99.6111 21.0653 99.5615L18.0587 97.0506C18.0236 97.0204 17.9956 96.9828 17.9767 96.9405C17.9578 96.8982 17.9484 96.8523 17.9493 96.806C17.9552 96.7195 17.9944 96.6388 18.0587 96.5807L21.0524 94.0698C21.12 94.0176 21.2049 93.9932 21.2899 94.0016C21.3748 94.01 21.4534 94.0505 21.5095 94.1149C21.5371 94.1468 21.558 94.1839 21.5711 94.224C21.5841 94.2641 21.589 94.3064 21.5854 94.3484C21.5817 94.3904 21.5698 94.4313 21.5501 94.4686C21.5304 94.5059 21.5035 94.5389 21.4709 94.5656L18.7669 96.8317L21.4709 99.0915C21.5357 99.1475 21.576 99.2267 21.5832 99.3122C21.5904 99.3976 21.564 99.4824 21.5095 99.5486C21.479 99.5785 21.4427 99.6019 21.4029 99.6174C21.363 99.6329 21.3204 99.6402 21.2777 99.6387Z"/>
</mask>
<path d="M21.2777 99.6387C21.2001 99.6384 21.125 99.6111 21.0653 99.5615L18.0587 97.0506C18.0236 97.0204 17.9956 96.9828 17.9767 96.9405C17.9578 96.8982 17.9484 96.8523 17.9493 96.806C17.9552 96.7195 17.9944 96.6388 18.0587 96.5807L21.0524 94.0698C21.12 94.0176 21.2049 93.9932 21.2899 94.0016C21.3748 94.01 21.4534 94.0505 21.5095 94.1149C21.5371 94.1468 21.558 94.1839 21.5711 94.224C21.5841 94.2641 21.589 94.3064 21.5854 94.3484C21.5817 94.3904 21.5698 94.4313 21.5501 94.4686C21.5304 94.5059 21.5035 94.5389 21.4709 94.5656L18.7669 96.8317L21.4709 99.0915C21.5357 99.1475 21.576 99.2267 21.5832 99.3122C21.5904 99.3976 21.564 99.4824 21.5095 99.5486C21.479 99.5785 21.4427 99.6019 21.4029 99.6174C21.363 99.6329 21.3204 99.6402 21.2777 99.6387Z" fill="#263238"/>
<path d="M21.2777 99.6387L21.312 98.6393L21.297 98.6388L21.2821 98.6387L21.2777 99.6387ZM21.0653 99.5615L20.4243 100.329L20.4263 100.331L21.0653 99.5615ZM18.0587 97.0506L17.4058 97.8081L17.4117 97.8132L17.4177 97.8182L18.0587 97.0506ZM17.9493 96.806L16.9516 96.7374L16.9499 96.7626L16.9494 96.7879L17.9493 96.806ZM18.0587 96.5807L17.4161 95.8145L17.4018 95.8264L17.388 95.8389L18.0587 96.5807ZM21.0524 94.0698L20.4411 93.2784L20.4252 93.2907L20.4098 93.3036L21.0524 94.0698ZM21.5095 94.1149L22.2653 93.4602L22.2636 93.4581L21.5095 94.1149ZM21.4709 94.5656L20.8374 93.7917L20.8285 93.7991L21.4709 94.5656ZM18.7669 96.8317L18.1246 96.0653L17.2088 96.8328L18.1256 97.5991L18.7669 96.8317ZM21.4709 99.0915L22.125 98.3351L22.1186 98.3296L22.1121 98.3241L21.4709 99.0915ZM21.5095 99.5486L22.2099 100.262L22.2477 100.225L22.2813 100.184L21.5095 99.5486ZM21.2777 99.6387L21.2821 98.6387C21.4363 98.6394 21.5856 98.6936 21.7042 98.7922L21.0653 99.5615L20.4263 100.331C20.6644 100.528 20.9638 100.637 21.2733 100.639L21.2777 99.6387ZM21.0653 99.5615L21.7063 98.7939L18.6997 96.2831L18.0587 97.0506L17.4177 97.8182L20.4243 100.329L21.0653 99.5615ZM18.0587 97.0506L18.7116 96.2932C18.7878 96.3588 18.8485 96.4404 18.8895 96.5321L17.9767 96.9405L17.0639 97.3489C17.1428 97.5252 17.2595 97.682 17.4058 97.8081L18.0587 97.0506ZM17.9767 96.9405L18.8895 96.5321C18.9306 96.6239 18.9509 96.7236 18.9491 96.8241L17.9493 96.806L16.9494 96.7879C16.9459 96.981 16.985 97.1726 17.0639 97.3489L17.9767 96.9405ZM17.9493 96.806L18.9469 96.8746C18.9351 97.0464 18.8572 97.2069 18.7294 97.3224L18.0587 96.5807L17.388 95.8389C17.1317 96.0707 16.9753 96.3927 16.9516 96.7374L17.9493 96.806ZM18.0587 96.5807L18.7013 97.3468L21.695 94.836L21.0524 94.0698L20.4098 93.3036L17.4161 95.8145L18.0587 96.5807ZM21.0524 94.0698L21.6637 94.8612C21.5295 94.9649 21.3606 95.0134 21.1918 94.9968L21.2899 94.0016L21.388 93.0064C21.0492 92.973 20.7105 93.0704 20.4411 93.2784L21.0524 94.0698ZM21.2899 94.0016L21.1918 94.9968C21.0229 94.9801 20.8668 94.8996 20.7554 94.7717L21.5095 94.1149L22.2636 93.4581C22.04 93.2014 21.7268 93.0398 21.388 93.0064L21.2899 94.0016ZM21.5095 94.1149L20.7536 94.7696C20.6937 94.7005 20.6483 94.62 20.62 94.533L21.5711 94.224L22.5221 93.9149C22.4678 93.7477 22.3805 93.5931 22.2653 93.4602L21.5095 94.1149ZM21.5711 94.224L20.62 94.533C20.5917 94.446 20.5812 94.3542 20.589 94.263L21.5854 94.3484L22.5817 94.4338C22.5967 94.2586 22.5765 94.0822 22.5221 93.9149L21.5711 94.224ZM21.5854 94.3484L20.589 94.263C20.5968 94.1718 20.6228 94.0832 20.6655 94.0022L21.5501 94.4686L22.4347 94.9349C22.5167 94.7794 22.5667 94.609 22.5817 94.4338L21.5854 94.3484ZM21.5501 94.4686L20.6655 94.0022C20.7082 93.9212 20.7667 93.8497 20.8375 93.7917L21.4709 94.5656L22.1043 95.3394C22.2403 95.228 22.3527 95.0905 22.4347 94.9349L21.5501 94.4686ZM21.4709 94.5656L20.8285 93.7991L18.1246 96.0653L18.7669 96.8317L19.4092 97.5982L22.1132 95.332L21.4709 94.5656ZM18.7669 96.8317L18.1256 97.5991L20.8296 99.8588L21.4709 99.0915L22.1121 98.3241L19.4082 96.0644L18.7669 96.8317ZM21.4709 99.0915L20.8167 99.8478C20.684 99.7331 20.6015 99.5711 20.5868 99.3964L21.5832 99.3122L22.5797 99.228C22.5505 98.8824 22.3873 98.562 22.125 98.3351L21.4709 99.0915ZM21.5832 99.3122L20.5868 99.3964C20.572 99.2217 20.6262 99.0481 20.7376 98.9128L21.5095 99.5486L22.2813 100.184C22.5018 99.9167 22.6089 99.5735 22.5797 99.228L21.5832 99.3122ZM21.5095 99.5486L20.809 98.8349C20.8753 98.7699 20.954 98.719 21.0404 98.6854L21.4029 99.6174L21.7653 100.549C21.9314 100.485 22.0827 100.387 22.2099 100.262L21.5095 99.5486ZM21.4029 99.6174L21.0404 98.6854C21.1268 98.6518 21.2192 98.6361 21.312 98.6393L21.2777 99.6387L21.2435 100.638C21.4217 100.644 21.5992 100.614 21.7653 100.549L21.4029 99.6174Z" fill="#01016A" mask="url(#path-164-inside-4_1647_10479)"/>
</svg>
