<svg width="20" height="20" viewBox="0 0 20 20" fill="none" xmlns="http://www.w3.org/2000/svg">
<path d="M19 10.0752C19.0015 11.2606 18.7681 12.4346 18.3132 13.5293C17.8584 14.624 17.1911 15.6177 16.3499 16.453C15.5157 17.2858 14.5255 17.9461 13.4359 18.396C12.3463 18.8459 11.1788 19.0767 10 19.0752C5.02931 19.0752 1.00001 15.0459 1.00001 10.0752C0.996861 7.76749 1.8833 5.54737 3.47501 3.87645C4.31486 2.99022 5.32672 2.28469 6.44866 1.80302C7.57061 1.32136 8.77904 1.0737 10 1.0752C11.1788 1.07368 12.3463 1.30447 13.4359 1.75439C14.5255 2.20432 15.5157 2.86455 16.3499 3.69735C17.1911 4.53265 17.8584 5.52636 18.3132 6.62106C18.7681 7.71577 19.0015 8.88976 19 10.0752Z" stroke="white" stroke-width="1.5" stroke-linecap="round" stroke-linejoin="round"/>
<path d="M19.0003 10.0755C17.6872 10.0755 14.0647 9.58049 10.8225 11.0038C7.30032 12.5505 4.75017 14.9499 3.63867 16.4416" stroke="white" stroke-width="1.5" stroke-linecap="round" stroke-linejoin="round"/>
<path d="M6.625 1.72949C8.0335 3.02954 11.107 6.33929 12.25 9.62519C13.393 12.9111 13.816 16.9512 14.077 18.1009" stroke="white" stroke-width="1.5" stroke-linecap="round" stroke-linejoin="round"/>
<path d="M1.06836 8.95031C2.76846 9.05291 7.2689 9.14516 10.1489 7.91531C13.0289 6.68546 15.507 4.42332 16.3571 3.70557M1.67406 13.5012C2.4671 15.4208 3.89737 17.0086 5.72406 17.9971" stroke="white" stroke-width="1.5" stroke-linecap="round" stroke-linejoin="round"/>
<path d="M1.00001 10.0752C0.996861 7.76749 1.8833 5.54737 3.47501 3.87645C4.31486 2.99022 5.32672 2.28469 6.44866 1.80302C7.57061 1.32136 8.77904 1.0737 10 1.0752M13.6 1.824C14.6249 2.27244 15.5575 2.90771 16.3499 3.69735C17.1911 4.53265 17.8584 5.52636 18.3132 6.62106C18.7681 7.71577 19.0015 8.88975 19 10.0752C19 11.1831 18.7997 12.2446 18.433 13.2252M10 19.0752C11.1788 19.0767 12.3463 18.8459 13.4359 18.396C14.5255 17.9461 15.5157 17.2858 16.3499 16.453" stroke="white" stroke-width="1.5" stroke-linecap="round" stroke-linejoin="round"/>
</svg>
