<svg width="18" height="19" viewBox="0 0 18 19" fill="none" xmlns="http://www.w3.org/2000/svg">
<mask id="mask0_892_10963" style="mask-type:luminance" maskUnits="userSpaceOnUse" x="0" y="0" width="18" height="19">
<path d="M0 0.0751953H18V18.0752H0V0.0751953Z" fill="white"/>
</mask>
<g mask="url(#mask0_892_10963)">
<path fill-rule="evenodd" clip-rule="evenodd" d="M9 0.0751953C4.0275 0.0751953 0 4.10269 0 9.07519C0 13.0577 2.57625 16.4214 6.15375 17.6139C6.60375 17.6927 6.7725 17.4227 6.7725 17.1864C6.7725 16.9727 6.76125 16.2639 6.76125 15.5102C4.5 15.9264 3.915 14.9589 3.735 14.4527C3.63375 14.1939 3.195 13.3952 2.8125 13.1814C2.4975 13.0127 2.0475 12.5964 2.80125 12.5852C3.51 12.5739 4.01625 13.2377 4.185 13.5077C4.995 14.8689 6.28875 14.4864 6.80625 14.2502C6.885 13.6652 7.12125 13.2714 7.38 13.0464C5.3775 12.8214 3.285 12.0452 3.285 8.60269C3.285 7.62394 3.63375 6.81395 4.2075 6.18395C4.1175 5.95895 3.8025 5.03645 4.2975 3.79895C4.2975 3.79895 5.05125 3.5627 6.7725 4.72145C7.4925 4.51895 8.2575 4.4177 9.0225 4.4177C9.7875 4.4177 10.5525 4.51895 11.2725 4.72145C12.9937 3.55145 13.7475 3.79895 13.7475 3.79895C14.2425 5.03645 13.9275 5.95895 13.8375 6.18395C14.4113 6.81395 14.76 7.61269 14.76 8.60269C14.76 12.0564 12.6562 12.8214 10.6537 13.0464C10.98 13.3277 11.2613 13.8677 11.2613 14.7114C11.2613 15.9152 11.25 16.8827 11.25 17.1864C11.25 17.4227 11.4187 17.7039 11.8687 17.6139C13.6554 17.0107 15.2079 15.8625 16.3077 14.3307C17.4076 12.799 17.9995 10.9609 18 9.07519C18 4.10269 13.9725 0.0751953 9 0.0751953Z" fill="white"/>
</g>
</svg>
