<svg width="27" height="18" viewBox="0 0 27 18" fill="none" xmlns="http://www.w3.org/2000/svg">
<path d="M19.0902 14.5429C19.3765 14.8081 19.7137 15.0124 20.0813 15.1433C20.449 15.2742 20.8394 15.3291 21.2288 15.3045C21.8461 15.3202 22.4513 15.1325 22.9512 14.7701C23.3585 14.5057 23.6667 14.1131 23.8276 13.6564H26.7357C26.4251 14.9585 25.669 16.111 24.5982 16.9144C23.5695 17.5963 22.3545 17.9422 21.1208 17.9044C20.2402 17.9171 19.3662 17.7514 18.5513 17.4172C17.8141 17.109 17.1527 16.6441 16.613 16.0549C16.0771 15.4361 15.6647 14.7205 15.3979 13.9466C15.0989 13.0811 14.9531 12.1701 14.9671 11.2545C14.9614 10.3545 15.1122 9.46008 15.4126 8.61183C15.8173 7.41876 16.5888 6.38417 17.6168 5.65596C18.6449 4.92776 19.8768 4.54322 21.1366 4.55731C22.0668 4.53949 22.9863 4.75738 23.8096 5.19069C24.5532 5.59794 25.1945 6.16944 25.6861 6.86132C26.1884 7.58689 26.5483 8.40117 26.747 9.26096C26.9653 10.1846 27.0429 11.1352 26.9776 12.0825H18.3162C18.2453 12.9712 18.5232 13.8532 19.0902 14.5429ZM7.81541 0.094414C8.54477 0.0804861 9.27312 0.155285 9.98442 0.317165C10.5836 0.447992 11.1525 0.69157 11.6607 1.03492C12.1309 1.37579 12.5022 1.8348 12.7384 2.36467C13.0096 3.01605 13.1401 3.71806 13.1221 4.42343C13.1539 5.19884 12.9558 5.96636 12.5528 6.62957C12.1311 7.25675 11.5465 7.75728 10.8619 8.07745C11.7898 8.32862 12.5981 8.90165 13.1423 9.69408C13.6643 10.5345 13.9264 11.511 13.8961 12.4998C13.9137 13.2882 13.7509 14.0701 13.4202 14.7859C13.1145 15.4109 12.6664 15.9553 12.1118 16.3755C11.5419 16.792 10.9 17.0998 10.2184 17.2834C9.5125 17.481 8.78245 17.579 8.04941 17.5747H0V0.094414H7.81541ZM7.55104 14.607C7.89904 14.6115 8.24254 14.5744 8.58154 14.4956C8.89 14.4272 9.18251 14.3005 9.44329 14.1221C9.6998 13.9444 9.90567 13.7047 10.044 13.4257C10.2038 13.0691 10.278 12.6798 10.2589 12.2906C10.2937 11.9352 10.2467 11.5766 10.1215 11.2421C9.99636 10.9077 9.79629 10.6064 9.53667 10.3612C8.9858 9.95628 8.31131 9.75545 7.62866 9.79308H3.64614V14.607H7.55104ZM22.8905 7.89407C22.6482 7.65168 22.3567 7.46408 22.0357 7.34395C21.7147 7.22382 21.3716 7.17394 21.0297 7.1977C20.5758 7.1803 20.125 7.28068 19.7213 7.48907C19.402 7.66552 19.12 7.90242 18.8911 8.18658C18.6886 8.45337 18.5375 8.75552 18.4456 9.07758C18.3623 9.34758 18.311 9.62283 18.2915 9.90333H23.6566C23.6095 9.17241 23.3433 8.47263 22.8927 7.8952L22.8905 7.89407ZM7.35078 7.16507C7.9242 7.18888 8.48869 7.01711 8.95167 6.67794C9.40054 6.27857 9.63455 5.68794 9.58167 5.08831C9.59697 4.74291 9.52825 4.39895 9.38142 4.08593C9.25663 3.83714 9.06344 3.62912 8.82454 3.4863C8.58219 3.32916 8.30979 3.22419 8.02466 3.17805C7.71528 3.11786 7.40042 3.09033 7.08528 3.09593H3.64614V7.18082H7.35078V7.16507ZM24.3226 1.26217H17.5996V2.98005H24.3226V1.26217Z" fill="white"/>
</svg>
