<svg width="512" height="70" viewBox="0 0 512 70" fill="none" xmlns="http://www.w3.org/2000/svg">
<path d="M0.666667 6.00009C0.666667 8.94561 3.05448 11.3334 6 11.3334C8.94552 11.3334 11.3333 8.94561 11.3333 6.00009C11.3333 3.05457 8.94552 0.666754 6 0.666754C3.05448 0.666754 0.666667 3.05457 0.666667 6.00009ZM224.5 39.308L224.324 38.3236L224.5 39.308ZM465.167 39.308C465.167 42.2535 467.554 44.6413 470.5 44.6413C473.446 44.6413 475.833 42.2535 475.833 39.308C475.833 36.3625 473.446 33.9746 470.5 33.9746C467.554 33.9746 465.167 36.3625 465.167 39.308ZM5 6.00009C5.00006 21.6761 12.963 32.7498 26.2666 40.2046C39.5079 47.6245 58.0733 51.491 79.4898 52.9092C122.344 55.7471 177.069 48.8048 224.676 40.2924L224.324 38.3236C176.746 46.8308 122.221 53.7346 79.6219 50.9136C58.3116 49.5024 40.0991 45.6632 27.2442 38.4599C14.4516 31.2914 7.00006 20.8241 7 6.00008L5 6.00009ZM224.676 40.2924C248.212 36.084 275.374 29.3606 302.826 22.8106C330.298 16.2557 358.068 9.8721 382.892 6.317C407.748 2.75717 429.497 2.059 444.991 6.76356C452.716 9.1093 458.823 12.7795 463.002 18.0491C467.174 23.3106 469.5 30.2602 469.5 39.308H471.5C471.5 29.9038 469.076 22.4892 464.569 16.8063C460.068 11.1314 453.565 7.27694 445.572 4.84983C429.628 0.00867558 407.502 0.772028 382.608 4.3372C357.682 7.90709 329.827 14.3119 302.362 20.8652C274.876 27.4235 247.788 34.1281 224.324 38.3236L224.676 40.2924Z" fill="#4F4FE6"/>
<path d="M504.614 48.9001L495.908 63.1123C495.107 64.4205 495.765 66.2824 497.379 67.2711C498.993 68.2598 500.951 68.0008 501.753 66.6926L510.459 52.4804C511.26 51.1722 510.601 49.3102 508.987 48.3216C507.373 47.3329 505.415 47.5919 504.614 48.9001Z" stroke="#4F4FE6" stroke-width="1.5"/>
<path d="M488.343 60.2537L497.359 60.7437L503.163 51.2689L498.63 43.4596C497.992 42.3588 497.673 41.8079 497.128 41.5328C496.582 41.2556 495.976 41.3357 494.763 41.4962L479.804 43.4751L484.836 57.6984C485.245 58.8546 485.449 59.4306 485.944 59.7907C486.438 60.1508 487.073 60.1844 488.343 60.2537Z" stroke="#4F4FE6" stroke-width="1.5"/>
<path d="M495.247 52.9347C496.249 51.2995 495.73 49.1586 494.088 48.153C492.447 47.1474 490.304 47.6578 489.302 49.293C488.3 50.9283 488.819 53.0691 490.461 54.0747C492.102 55.0804 494.245 54.5699 495.247 52.9347Z" stroke="#4F4FE6" stroke-width="1.5"/>
<path d="M479.805 43.4751L490.033 49.7407" stroke="#4F4FE6" stroke-width="1.5"/>
</svg>
