<svg width="18" height="19" viewBox="0 0 18 19" fill="none" xmlns="http://www.w3.org/2000/svg">
<path d="M5.22 0.0751953H12.78C15.66 0.0751953 18 2.4152 18 5.2952V12.8552C18 14.2396 17.45 15.5674 16.4711 16.5463C15.4922 17.5252 14.1644 18.0752 12.78 18.0752H5.22C2.34 18.0752 0 15.7352 0 12.8552V5.2952C0 3.91077 0.549963 2.58304 1.5289 1.6041C2.50784 0.625158 3.83557 0.0751953 5.22 0.0751953ZM5.04 1.8752C4.1807 1.8752 3.35659 2.21655 2.74897 2.82417C2.14136 3.43179 1.8 4.25589 1.8 5.1152V13.0352C1.8 14.8262 3.249 16.2752 5.04 16.2752H12.96C13.8193 16.2752 14.6434 15.9338 15.251 15.3262C15.8586 14.7186 16.2 13.8945 16.2 13.0352V5.1152C16.2 3.3242 14.751 1.8752 12.96 1.8752H5.04ZM13.725 3.2252C14.0234 3.2252 14.3095 3.34372 14.5205 3.5547C14.7315 3.76568 14.85 4.05183 14.85 4.3502C14.85 4.64856 14.7315 4.93471 14.5205 5.14569C14.3095 5.35667 14.0234 5.47519 13.725 5.47519C13.4266 5.47519 13.1405 5.35667 12.9295 5.14569C12.7185 4.93471 12.6 4.64856 12.6 4.3502C12.6 4.05183 12.7185 3.76568 12.9295 3.5547C13.1405 3.34372 13.4266 3.2252 13.725 3.2252ZM9 4.5752C10.1935 4.5752 11.3381 5.0493 12.182 5.89321C13.0259 6.73713 13.5 7.88172 13.5 9.0752C13.5 10.2687 13.0259 11.4133 12.182 12.2572C11.3381 13.1011 10.1935 13.5752 9 13.5752C7.80653 13.5752 6.66193 13.1011 5.81802 12.2572C4.97411 11.4133 4.5 10.2687 4.5 9.0752C4.5 7.88172 4.97411 6.73713 5.81802 5.89321C6.66193 5.0493 7.80653 4.5752 9 4.5752ZM9 6.3752C8.28392 6.3752 7.59716 6.65966 7.09081 7.16601C6.58446 7.67235 6.3 8.35911 6.3 9.0752C6.3 9.79128 6.58446 10.478 7.09081 10.9844C7.59716 11.4907 8.28392 11.7752 9 11.7752C9.71608 11.7752 10.4028 11.4907 10.9092 10.9844C11.4155 10.478 11.7 9.79128 11.7 9.0752C11.7 8.35911 11.4155 7.67235 10.9092 7.16601C10.4028 6.65966 9.71608 6.3752 9 6.3752Z" fill="white"/>
</svg>
