<svg width="32" height="18" viewBox="0 0 32 18" fill="none" xmlns="http://www.w3.org/2000/svg">
<path d="M9.12251 0.000663476C7.92977 -0.0137985 6.74603 0.208293 5.63989 0.654065C4.53376 1.09984 3.52723 1.76042 2.67868 2.59752C1.83012 3.43462 1.1564 4.43159 0.696588 5.53062C0.236771 6.62966 0 7.80891 0 9C0 10.1911 0.236771 11.3703 0.696588 12.4694C1.1564 13.5684 1.83012 14.5654 2.67868 15.4025C3.52723 16.2396 4.53376 16.9002 5.63989 17.3459C6.74603 17.7917 7.92977 18.0138 9.12251 17.9993C11.4938 17.9706 13.7582 17.0098 15.4248 15.3252C17.0915 13.6406 18.0261 11.368 18.0261 9C18.0261 6.63198 17.0915 4.35937 15.4248 2.67479C13.7582 0.990214 11.4938 0.0294154 9.12251 0.000663476ZM23.3337 0.693277C20.8449 0.693277 18.8279 4.41243 18.8279 8.99934C18.8279 9.86179 18.8983 10.6897 19.0298 11.4699C19.2052 12.5102 19.4896 13.4628 19.8563 14.2842C20.0397 14.6964 20.2435 15.0719 20.4676 15.4107C20.9127 16.0874 21.4296 16.6101 21.9943 16.9339C22.4182 17.1767 22.8673 17.308 23.3337 17.308C23.8001 17.308 24.2506 17.1754 24.6745 16.9339C25.2392 16.6101 25.7561 16.0874 26.2012 15.4107C26.4236 15.071 26.6273 14.6955 26.8125 14.2842C27.1792 13.4642 27.4636 12.5102 27.6376 11.4713C27.7705 10.6897 27.8409 9.86046 27.8409 9.00066C27.8409 4.41243 25.8225 0.693277 23.3337 0.693277ZM30.2673 1.38456C30.0866 1.38456 29.9138 1.50398 29.7517 1.72822C29.6428 1.87594 29.5391 2.06789 29.4408 2.30407C29.3885 2.42958 29.3411 2.55705 29.2986 2.6862C29.2056 2.96042 29.1201 3.27001 29.0422 3.61499C28.8854 4.30495 28.7578 5.12494 28.6701 6.03649C28.5764 7.02175 28.5307 8.01097 28.5332 9.00066C28.5346 9.99027 28.5802 10.9793 28.6701 11.9648C28.7578 12.8751 28.8854 13.6964 29.0422 14.385C29.1201 14.7309 29.2056 15.0405 29.2986 15.3138C29.3438 15.4518 29.3912 15.5792 29.4408 15.6959C29.54 15.9312 29.6436 16.1236 29.7517 16.2731C29.9138 16.496 30.0879 16.6154 30.2673 16.6154C31.224 16.6154 32 13.2054 32 8.99934C32 4.79456 31.224 1.38456 30.2673 1.38456Z" fill="white"/>
</svg>
