<svg width="18" height="19" viewBox="0 0 18 19" fill="none" xmlns="http://www.w3.org/2000/svg">
<path d="M16.5533 0.0751953H1.44675C0.648 0.0751953 0 0.723195 0 1.52195V16.6284C0 17.4272 0.648 18.0752 1.44675 18.0752H16.5533C17.352 18.0752 18 17.4272 18 16.6284V1.52195C18 0.723195 17.352 0.0751953 16.5533 0.0751953ZM16.5533 16.6352C6.47775 16.6329 1.44 16.6307 1.44 16.6284C1.44225 6.55295 1.4445 1.5152 1.44675 1.5152C11.5223 1.51745 16.56 1.5197 16.56 1.52195C16.5578 11.5974 16.5555 16.6352 16.5533 16.6352ZM2.6685 6.82295H5.33925V15.4134H2.6685V6.82295ZM4.005 5.64845C4.85775 5.64845 5.553 4.95545 5.553 4.10045C5.553 3.89716 5.51296 3.69586 5.43517 3.50805C5.35737 3.32024 5.24335 3.14959 5.0996 3.00584C4.95586 2.8621 4.78521 2.74807 4.59739 2.67028C4.40958 2.59249 4.20829 2.55245 4.005 2.55245C3.80171 2.55245 3.60042 2.59249 3.41261 2.67028C3.22479 2.74807 3.05414 2.8621 2.9104 3.00584C2.76665 3.14959 2.65263 3.32024 2.57483 3.50805C2.49704 3.69586 2.457 3.89716 2.457 4.10045C2.45475 4.95545 3.14775 5.64845 4.005 5.64845ZM9.68175 11.1632C9.68175 10.0427 9.8955 8.9582 11.2838 8.9582C12.6518 8.9582 12.672 10.2384 12.672 11.2352V15.4134H15.3405V10.7019C15.3405 8.38894 14.841 6.6092 12.1388 6.6092C10.8405 6.6092 9.96975 7.32245 9.612 7.99745H9.576V6.82295H7.01325V15.4134H9.68175V11.1632Z" fill="white"/>
</svg>
