<svg width="17" height="21" viewBox="0 0 17 21" fill="none" xmlns="http://www.w3.org/2000/svg">
<path d="M8.5 11.3877C10.0533 11.3877 11.3125 10.1285 11.3125 8.5752C11.3125 7.02189 10.0533 5.7627 8.5 5.7627C6.9467 5.7627 5.6875 7.02189 5.6875 8.5752C5.6875 10.1285 6.9467 11.3877 8.5 11.3877Z" stroke="white" stroke-linecap="round" stroke-linejoin="round"/>
<path d="M8.5 1.0752C6.51088 1.0752 4.60322 1.86537 3.1967 3.27189C1.79018 4.67842 1 6.58607 1 8.5752C1 10.3489 1.37687 11.5096 2.40625 12.7939L8.5 19.8252L14.5938 12.7939C15.6231 11.5096 16 10.3489 16 8.5752C16 6.58607 15.2098 4.67842 13.8033 3.27189C12.3968 1.86537 10.4891 1.0752 8.5 1.0752Z" stroke="white" stroke-linecap="round" stroke-linejoin="round"/>
</svg>
