<svg width="151" height="51" viewBox="0 0 151 51" fill="none" xmlns="http://www.w3.org/2000/svg">
<path d="M61.052 12.708C64.028 12.708 65.516 14.292 65.516 17.46V31.248C65.516 34.416 64.028 36 61.052 36H51.8V12.708H61.052ZM60.476 31.824V16.848C60.476 16.656 60.404 16.488 60.26 16.344C60.14 16.2 59.984 16.128 59.792 16.128H56.84V32.544H59.792C59.984 32.544 60.14 32.472 60.26 32.328C60.404 32.184 60.476 32.016 60.476 31.824ZM77.6247 18.072C80.6007 18.072 82.0887 19.656 82.0887 22.824V28.512H73.9167V32.184C73.9167 32.376 73.9767 32.544 74.0967 32.688C74.2407 32.832 74.4087 32.904 74.6007 32.904H76.5807C76.7727 32.904 76.9287 32.832 77.0487 32.688C77.1927 32.544 77.2647 32.376 77.2647 32.184V30.24H82.0887V31.608C82.0887 34.776 80.6007 36.36 77.6247 36.36H73.5567C70.5807 36.36 69.0927 34.776 69.0927 31.608V22.824C69.0927 19.656 70.5807 18.072 73.5567 18.072H77.6247ZM73.9167 25.344H77.2647V22.104C77.2647 21.912 77.1927 21.744 77.0487 21.6C76.9287 21.456 76.7727 21.384 76.5807 21.384H74.6007C74.4087 21.384 74.2407 21.456 74.0967 21.6C73.9767 21.744 73.9167 21.912 73.9167 22.104V25.344ZM93.0172 24.984C95.9932 24.984 97.4812 26.568 97.4812 29.736V31.608C97.4812 34.776 95.9932 36.36 93.0172 36.36H89.0212C86.0452 36.36 84.5572 34.776 84.5572 31.608V30.492H89.0212V32.076C89.0212 32.268 89.0812 32.436 89.2012 32.58C89.3452 32.724 89.5132 32.796 89.7052 32.796H92.6572C92.8492 32.796 93.0052 32.724 93.1252 32.58C93.2692 32.436 93.3412 32.268 93.3412 32.076V29.916C93.3412 29.724 93.2692 29.556 93.1252 29.412C93.0052 29.268 92.8492 29.196 92.6572 29.196H88.9492C85.9732 29.196 84.4852 27.612 84.4852 24.444V22.824C84.4852 19.656 85.9732 18.072 88.9492 18.072H92.7292C95.7052 18.072 97.1932 19.656 97.1932 22.824V23.472H92.7292V22.356C92.7292 22.164 92.6572 21.996 92.5132 21.852C92.3932 21.708 92.2372 21.636 92.0452 21.636H89.3092C89.1172 21.636 88.9492 21.708 88.8052 21.852C88.6852 21.996 88.6252 22.164 88.6252 22.356V24.264C88.6252 24.456 88.6852 24.624 88.8052 24.768C88.9492 24.912 89.1172 24.984 89.3092 24.984H93.0172ZM105.207 16.236C104.703 16.74 104.091 16.992 103.371 16.992C102.651 16.992 102.027 16.74 101.499 16.236C100.971 15.708 100.707 15.084 100.707 14.364C100.707 13.62 100.971 12.996 101.499 12.492C102.027 11.964 102.651 11.7 103.371 11.7C104.091 11.7 104.703 11.964 105.207 12.492C105.735 12.996 105.999 13.62 105.999 14.364C105.999 15.108 105.735 15.732 105.207 16.236ZM100.959 36V18.432H105.783V36H100.959ZM122.167 18.432V37.332C122.167 40.5 120.679 42.084 117.703 42.084H114.103C111.127 42.084 109.639 40.5 109.639 37.332V36.756H113.995V37.908C113.995 38.1 114.055 38.268 114.175 38.412C114.319 38.556 114.487 38.628 114.679 38.628H116.659C116.851 38.628 117.007 38.556 117.127 38.412C117.271 38.268 117.343 38.1 117.343 37.908V34.308C116.599 34.884 115.615 35.172 114.391 35.172H113.635C110.659 35.172 109.171 33.588 109.171 30.42V22.824C109.171 19.656 110.659 18.072 113.635 18.072H114.391C116.119 18.072 117.355 18.624 118.099 19.728V18.432H122.167ZM117.343 30.996V22.248C117.343 22.056 117.271 21.888 117.127 21.744C117.007 21.6 116.851 21.528 116.659 21.528H114.679C114.487 21.528 114.319 21.6 114.175 21.744C114.055 21.888 113.995 22.056 113.995 22.248V30.996C113.995 31.188 114.055 31.356 114.175 31.5C114.319 31.644 114.487 31.716 114.679 31.716H116.659C116.851 31.716 117.007 31.644 117.127 31.5C117.271 31.356 117.343 31.188 117.343 30.996ZM130.272 36H125.448V18.432H129.84V19.332C130.584 18.492 131.712 18.072 133.224 18.072H133.98C136.956 18.072 138.444 19.656 138.444 22.824V36H133.62V22.248C133.62 22.056 133.548 21.888 133.404 21.744C133.284 21.6 133.128 21.528 132.936 21.528H130.956C130.764 21.528 130.596 21.6 130.452 21.744C130.332 21.888 130.272 22.056 130.272 22.248V36Z" fill="white"/>
<path d="M11.4629 12.5063V16.9115L15.8531 12.5063H11.4629Z" fill="white" fill-opacity="0.51"/>
<path d="M10 22.4175L18.0487 14.7085H21.7072L14.0244 22.4175H10Z" fill="white" fill-opacity="0.7" stroke="white" stroke-miterlimit="10"/>
<path d="M22.4355 18.1745V22.2624L31.5086 13.2407H26.9721L22.4355 17.6106V18.1745Z" fill="white" fill-opacity="0.51"/>
<path d="M17.3184 30.8607L22.2763 25.8857L37.0743 11.0376" stroke="white" stroke-miterlimit="10"/>
<mask id="path-6-inside-1_1069_6097" fill="white">
<path d="M22.1523 26.4135L22.1524 39.3029L26.9728 35.999V21.3594"/>
</mask>
<path d="M22.1523 26.4135L22.1524 39.3029L26.9728 35.999V21.3594" fill="white" fill-opacity="0.7"/>
<path d="M22.1524 39.3029L21.1524 39.3029L21.1524 41.2006L22.7177 40.1277L22.1524 39.3029ZM26.9728 35.999L27.5381 36.8239L27.9728 36.526V35.999H26.9728ZM21.1523 26.4135L21.1524 39.3029L23.1524 39.3029L23.1523 26.4135L21.1523 26.4135ZM22.7177 40.1277L27.5381 36.8239L26.4074 35.1742L21.587 38.478L22.7177 40.1277ZM27.9728 35.999V21.3594H25.9728V35.999H27.9728Z" fill="white" mask="url(#path-6-inside-1_1069_6097)"/>
<mask id="path-8-inside-2_1069_6097" fill="white">
<path d="M27.9258 20.5822H39.9989V15.4429H32.316"/>
</mask>
<path d="M27.9258 20.5822H39.9989V15.4429H32.316" fill="white" fill-opacity="0.7"/>
<path d="M39.9989 20.5822V21.5822H40.9989V20.5822H39.9989ZM39.9989 15.4429H40.9989V14.4429H39.9989V15.4429ZM27.9258 21.5822H39.9989V19.5822H27.9258V21.5822ZM40.9989 20.5822V15.4429H38.9989V20.5822H40.9989ZM39.9989 14.4429H32.316V16.4429H39.9989V14.4429Z" fill="white" mask="url(#path-8-inside-2_1069_6097)"/>
</svg>
