<svg width="200" height="200" viewBox="0 0 200 200" fill="none" xmlns="http://www.w3.org/2000/svg">
<path d="M51.1699 55.1729V70.6845L66.6816 55.1729H51.1699Z" fill="white" fill-opacity="0.5"/>
<path d="M46 90.0731L74.438 62.9277H87.3644L60.219 90.0731H46Z" fill="white" fill-opacity="0.5" stroke="white" stroke-miterlimit="10"/>
<path d="M89.9375 75.1313V89.5262L121.995 57.7583H105.966L89.9375 73.1459V75.1313Z" fill="white" fill-opacity="0.5"/>
<path d="M71.8574 119.802L89.3751 102.284L141.66 50" stroke="white" stroke-miterlimit="10"/>
<mask id="path-5-inside-1_1089_6049" fill="white">
<path d="M88.9357 102.222V149.531L105.967 137.897V86.3472"/>
</mask>
<path d="M88.9357 102.222V149.531L105.967 137.897V86.3472" fill="white" fill-opacity="0.5"/>
<path d="M88.9357 149.531H87.9357V151.425L89.4997 150.357L88.9357 149.531ZM105.967 137.897L106.531 138.723L106.967 138.425V137.897H105.967ZM87.9357 102.222V149.531H89.9357V102.222H87.9357ZM89.4997 150.357L106.531 138.723L105.403 137.072L88.3716 148.705L89.4997 150.357ZM106.967 137.897V86.3472H104.967V137.897H106.967Z" fill="white" mask="url(#path-5-inside-1_1089_6049)"/>
<mask id="path-7-inside-2_1089_6049" fill="white">
<path d="M108.26 83.6111H151.997V65.5142H125.5"/>
</mask>
<path d="M108.26 83.6111H151.997V65.5142H125.5" fill="white" fill-opacity="0.5"/>
<path d="M151.997 83.6111V84.6111H152.997V83.6111H151.997ZM151.997 65.5142H152.997V64.5142H151.997V65.5142ZM108.26 84.6111H151.997V82.6111H108.26V84.6111ZM152.997 83.6111V65.5142H150.997V83.6111H152.997ZM151.997 64.5142H125.5V66.5142H151.997V64.5142Z" fill="white" mask="url(#path-7-inside-2_1089_6049)"/>
<circle cx="100" cy="100" r="99.5" fill="white" fill-opacity="0.1" stroke="white"/>
</svg>
