<svg width="200" height="201" viewBox="0 0 200 201" fill="none" xmlns="http://www.w3.org/2000/svg">
<path d="M51.1699 55.248V70.7597L66.6816 55.248H51.1699Z" fill="white" fill-opacity="0.51"/>
<path d="M46 90.1483L74.438 63.0029H87.3644L60.219 90.1483H46Z" fill="white" fill-opacity="0.7" stroke="white" stroke-miterlimit="10"/>
<path d="M89.9375 75.2065V89.6014L121.995 57.8335H105.966L89.9375 73.2211V75.2065Z" fill="white" fill-opacity="0.51"/>
<path d="M71.8574 119.878L89.3751 102.359L141.66 50.0752" stroke="white" stroke-miterlimit="10"/>
<mask id="path-5-inside-1_1031_7563" fill="white">
<path d="M88.9355 104.219L88.9357 149.606L105.967 137.973V86.4224"/>
</mask>
<path d="M88.9355 104.219L88.9357 149.606L105.967 137.973V86.4224" fill="white" fill-opacity="0.7"/>
<path d="M88.9357 149.606L87.9357 149.606L87.9357 151.5L89.4997 150.432L88.9357 149.606ZM105.967 137.973L106.531 138.798L106.967 138.501V137.973H105.967ZM87.9355 104.219L87.9357 149.606L89.9357 149.606L89.9355 104.219L87.9355 104.219ZM89.4997 150.432L106.531 138.798L105.403 137.147L88.3716 148.781L89.4997 150.432ZM106.967 137.973V86.4224H104.967V137.973H106.967Z" fill="white" mask="url(#path-5-inside-1_1031_7563)"/>
<mask id="path-7-inside-2_1031_7563" fill="white">
<path d="M109.34 83.6863H151.997V65.5894H124.851"/>
</mask>
<path d="M109.34 83.6863H151.997V65.5894H124.851" fill="white" fill-opacity="0.7"/>
<path d="M151.997 83.6863V84.6863H152.997V83.6863H151.997ZM151.997 65.5894H152.997V64.5894H151.997V65.5894ZM109.34 84.6863H151.997V82.6863H109.34V84.6863ZM152.997 83.6863V65.5894H150.997V83.6863H152.997ZM151.997 64.5894H124.851V66.5894H151.997V64.5894Z" fill="white" mask="url(#path-7-inside-2_1031_7563)"/>
<circle cx="100" cy="100.075" r="99.5" fill="white" fill-opacity="0.1" stroke="white"/>
</svg>
