<svg width="25" height="25" viewBox="0 0 25 25" fill="none" xmlns="http://www.w3.org/2000/svg">
<path d="M6.70483 18.718C3.26674 15.5134 3.07796 10.1427 6.28256 6.70465C9.48717 3.26655 14.8579 3.07777 18.296 6.28238C21.7341 9.48698 21.9228 14.8577 18.7182 18.2958C15.5136 21.7339 10.1429 21.9227 6.70483 18.718ZM17.6141 7.01389C14.5784 4.18429 9.84367 4.35072 7.01407 7.38648C4.18447 10.4222 4.3509 15.1569 7.38666 17.9865C10.4224 20.8161 15.1571 20.6497 17.9867 17.6139C20.8163 14.5782 20.6499 9.84349 17.6141 7.01389Z" fill="white"/>
<path d="M14.9576 15.9517L14.7515 10.0864L8.8861 10.2925L8.85132 9.30319L15.706 9.06225L15.947 15.917L14.9576 15.9517Z" fill="white"/>
<path d="M14.8613 9.2334L15.5928 9.91523L9.79728 16.1331L9.06577 15.4512L14.8613 9.2334Z" fill="white"/>
</svg>
