<svg width="130" height="127" viewBox="0 0 130 127" fill="none" xmlns="http://www.w3.org/2000/svg">
<g filter="url(#filter0_d_991_5398)">
<circle cx="65" cy="65" r="40" fill="#4F4FE6"/>
</g>
<path d="M76.6667 45C78.8768 45 80.9964 45.878 82.5592 47.4408C84.122 49.0036 85 51.1232 85 53.3333V56.6667C85 57.1087 84.8244 57.5326 84.5118 57.8452C84.1993 58.1577 83.7754 58.3333 83.3333 58.3333C82.8913 58.3333 82.4674 58.1577 82.1548 57.8452C81.8423 57.5326 81.6667 57.1087 81.6667 56.6667V53.3333C81.6667 52.0073 81.1399 50.7355 80.2022 49.7978C79.2645 48.8601 77.9927 48.3333 76.6667 48.3333H73.3333C72.8913 48.3333 72.4674 48.1577 72.1548 47.8452C71.8423 47.5326 71.6667 47.1087 71.6667 46.6667C71.6667 46.2246 71.8423 45.8007 72.1548 45.4882C72.4674 45.1756 72.8913 45 73.3333 45H76.6667ZM53.3333 45C51.1232 45 49.0036 45.878 47.4408 47.4408C45.878 49.0036 45 51.1232 45 53.3333V56.6667C45 57.1087 45.1756 57.5326 45.4882 57.8452C45.8007 58.1577 46.2246 58.3333 46.6667 58.3333C47.1087 58.3333 47.5326 58.1577 47.8452 57.8452C48.1577 57.5326 48.3333 57.1087 48.3333 56.6667V53.3333C48.3333 52.0073 48.8601 50.7355 49.7978 49.7978C50.7355 48.8601 52.0073 48.3333 53.3333 48.3333H56.6667C57.1087 48.3333 57.5326 48.1577 57.8452 47.8452C58.1577 47.5326 58.3333 47.1087 58.3333 46.6667C58.3333 46.2246 58.1577 45.8007 57.8452 45.4882C57.5326 45.1756 57.1087 45 56.6667 45H53.3333ZM76.6667 85C78.8768 85 80.9964 84.122 82.5592 82.5592C84.122 80.9964 85 78.8768 85 76.6667V73.3333C85 72.8913 84.8244 72.4674 84.5118 72.1548C84.1993 71.8423 83.7754 71.6667 83.3333 71.6667C82.8913 71.6667 82.4674 71.8423 82.1548 72.1548C81.8423 72.4674 81.6667 72.8913 81.6667 73.3333V76.6667C81.6667 77.9927 81.1399 79.2645 80.2022 80.2022C79.2645 81.1399 77.9927 81.6667 76.6667 81.6667H73.3333C72.8913 81.6667 72.4674 81.8423 72.1548 82.1548C71.8423 82.4674 71.6667 82.8913 71.6667 83.3333C71.6667 83.7754 71.8423 84.1993 72.1548 84.5118C72.4674 84.8244 72.8913 85 73.3333 85H76.6667ZM45 76.6667C45 78.8768 45.878 80.9964 47.4408 82.5592C49.0036 84.122 51.1232 85 53.3333 85H56.6667C57.1087 85 57.5326 84.8244 57.8452 84.5118C58.1577 84.1993 58.3333 83.7754 58.3333 83.3333C58.3333 82.8913 58.1577 82.4674 57.8452 82.1548C57.5326 81.8423 57.1087 81.6667 56.6667 81.6667H53.3333C52.0073 81.6667 50.7355 81.1399 49.7978 80.2022C48.8601 79.2645 48.3333 77.9927 48.3333 76.6667V73.3333C48.3333 72.8913 48.1577 72.4674 47.8452 72.1548C47.5326 71.8423 47.1087 71.6667 46.6667 71.6667C46.2246 71.6667 45.8007 71.8423 45.4882 72.1548C45.1756 72.4674 45 72.8913 45 73.3333V76.6667ZM65 71.6667C66.7681 71.6667 68.4638 70.9643 69.714 69.714C70.9643 68.4638 71.6667 66.7681 71.6667 65C71.6667 63.2319 70.9643 61.5362 69.714 60.286C68.4638 59.0357 66.7681 58.3333 65 58.3333C63.2319 58.3333 61.5362 59.0357 60.286 60.286C59.0357 61.5362 58.3333 63.2319 58.3333 65C58.3333 66.7681 59.0357 68.4638 60.286 69.714C61.5362 70.9643 63.2319 71.6667 65 71.6667ZM65 68.3333C64.1159 68.3333 63.2681 67.9821 62.643 67.357C62.0179 66.7319 61.6667 65.8841 61.6667 65C61.6667 64.1159 62.0179 63.2681 62.643 62.643C63.2681 62.0179 64.1159 61.6667 65 61.6667C65.8841 61.6667 66.7319 62.0179 67.357 62.643C67.9821 63.2681 68.3333 64.1159 68.3333 65C68.3333 65.8841 67.9821 66.7319 67.357 67.357C66.7319 67.9821 65.8841 68.3333 65 68.3333ZM55 57.5C55.663 57.5 56.2989 57.2366 56.7678 56.7678C57.2366 56.2989 57.5 55.663 57.5 55C57.5 54.337 57.2366 53.7011 56.7678 53.2322C56.2989 52.7634 55.663 52.5 55 52.5C54.337 52.5 53.7011 52.7634 53.2322 53.2322C52.7634 53.7011 52.5 54.337 52.5 55C52.5 55.663 52.7634 56.2989 53.2322 56.7678C53.7011 57.2366 54.337 57.5 55 57.5Z" fill="white"/>
<defs>
<filter id="filter0_d_991_5398" x="0" y="0" width="130" height="130" filterUnits="userSpaceOnUse" color-interpolation-filters="sRGB">
<feFlood flood-opacity="0" result="BackgroundImageFix"/>
<feColorMatrix in="SourceAlpha" type="matrix" values="0 0 0 0 0 0 0 0 0 0 0 0 0 0 0 0 0 0 127 0" result="hardAlpha"/>
<feOffset/>
<feGaussianBlur stdDeviation="12.5"/>
<feComposite in2="hardAlpha" operator="out"/>
<feColorMatrix type="matrix" values="0 0 0 0 0 0 0 0 0 0 0 0 0 0 0 0 0 0 0.25 0"/>
<feBlend mode="normal" in2="BackgroundImageFix" result="effect1_dropShadow_991_5398"/>
<feBlend mode="normal" in="SourceGraphic" in2="effect1_dropShadow_991_5398" result="shape"/>
</filter>
</defs>
</svg>
