<svg width="130" height="127" viewBox="0 0 130 127" fill="none" xmlns="http://www.w3.org/2000/svg">
<g filter="url(#filter0_d_991_5382)">
<circle cx="65" cy="62" r="40" fill="#4F4FE6"/>
</g>
<path d="M58.5837 60.9907L63.9954 55.5648L59.131 50.6838L57.2237 52.5888C57.0025 52.81 56.734 52.9308 56.4181 52.9513C56.1022 52.9719 55.8123 52.851 55.5485 52.5888C55.2863 52.3266 55.1552 52.0446 55.1552 51.7429C55.1552 51.4412 55.2863 51.1593 55.5485 50.8971L57.4393 49.0063L52.8142 44.3813L47.3883 49.8072L58.5837 60.9907ZM77.1454 79.5666L82.5713 74.1407L77.9487 69.5157L76.0437 71.4065C75.8131 71.6371 75.5414 71.7603 75.2286 71.7761C74.9159 71.7919 74.6284 71.6687 74.3662 71.4065C74.1039 71.1443 73.9736 70.8647 73.9752 70.5677C73.9768 70.2708 74.1071 69.9912 74.3662 69.729L76.2569 67.824L71.4234 63.0046L66.0093 68.4163L77.1454 79.5666ZM73.8046 49.1295L77.8989 53.2214L82.0359 49.0845L77.9297 44.9784L73.8046 49.1295ZM48.3977 80.5191C47.848 80.5191 47.3915 80.3375 47.0282 79.9742C46.6649 79.6109 46.4824 79.1544 46.4809 78.6047V73.8256C46.4809 73.5713 46.5251 73.3336 46.6136 73.1124C46.702 72.8913 46.8489 72.678 47.0543 72.4727L56.8919 62.635L45.6421 51.3402C45.214 50.9121 45 50.4019 45 49.8095C45 49.2172 45.214 48.7062 45.6421 48.2765L51.2836 42.6374C51.7117 42.2093 52.2219 41.9969 52.8142 42C53.4066 42.0032 53.9168 42.2196 54.3449 42.6492L65.7013 53.9441L76.2854 43.3458C76.546 43.0852 76.8208 42.8972 77.1099 42.7819C77.399 42.6666 77.707 42.609 78.034 42.609C78.3609 42.609 78.669 42.6666 78.958 42.7819C79.2471 42.8972 79.5227 43.0852 79.7849 43.3458L83.6518 47.3667C83.914 47.6273 84.0956 47.9022 84.1967 48.1912C84.2978 48.4803 84.3476 48.7883 84.346 49.1153C84.3444 49.4423 84.2939 49.7408 84.1944 50.0109C84.0949 50.281 83.9148 50.5464 83.6541 50.807L73.1578 61.3603L84.365 72.6551C84.7915 73.0832 85.0047 73.5934 85.0047 74.1858C85.0047 74.7781 84.7915 75.2883 84.365 75.7164L78.7235 81.3555C78.2954 81.7852 77.7852 82 77.1928 82C76.6005 82 76.0903 81.786 75.6622 81.3579L64.365 70.1081L54.5273 79.9457C54.322 80.1511 54.1087 80.298 53.8876 80.3865C53.6664 80.4749 53.4287 80.5191 53.1744 80.5191H48.3977Z" fill="white"/>
<defs>
<filter id="filter0_d_991_5382" x="0" y="-3" width="130" height="130" filterUnits="userSpaceOnUse" color-interpolation-filters="sRGB">
<feFlood flood-opacity="0" result="BackgroundImageFix"/>
<feColorMatrix in="SourceAlpha" type="matrix" values="0 0 0 0 0 0 0 0 0 0 0 0 0 0 0 0 0 0 127 0" result="hardAlpha"/>
<feOffset/>
<feGaussianBlur stdDeviation="12.5"/>
<feComposite in2="hardAlpha" operator="out"/>
<feColorMatrix type="matrix" values="0 0 0 0 0 0 0 0 0 0 0 0 0 0 0 0 0 0 0.25 0"/>
<feBlend mode="normal" in2="BackgroundImageFix" result="effect1_dropShadow_991_5382"/>
<feBlend mode="normal" in="SourceGraphic" in2="effect1_dropShadow_991_5382" result="shape"/>
</filter>
</defs>
</svg>
