<svg width="80" height="80" viewBox="0 0 80 80" fill="none" xmlns="http://www.w3.org/2000/svg">
<circle cx="40" cy="40" r="40" fill="#F1F1FF"/>
<path d="M47.0005 47.9996H39.0006C38.2934 47.9996 37.6151 47.7186 37.115 47.2185C36.6149 46.7184 36.334 46.0402 36.334 45.3329V39.9996C36.334 39.2924 36.6149 38.6141 37.115 38.114C37.6151 37.614 38.2934 37.333 39.0006 37.333H47.0005C47.7078 37.333 48.3861 37.614 48.8861 38.114C49.3862 38.6141 49.6672 39.2924 49.6672 39.9996V45.3329C49.6672 46.0402 49.3862 46.7184 48.8861 47.2185C48.3861 47.7186 47.7078 47.9996 47.0005 47.9996ZM39.0006 39.9996V45.3329H47.0005V39.9996H39.0006Z" fill="#4F4FE6"/>
<path d="M33.6666 41.3332H31V34.6666C31 33.9594 31.2809 33.2811 31.781 32.781C32.2811 32.2809 32.9594 32 33.6666 32H41.6666V34.6666H33.6666V41.3332Z" fill="#4F4FE6"/>
<path d="M40.3332 60C40.0971 60.0001 39.8652 59.9375 39.6612 59.8187L23.6613 50.4854C23.46 50.368 23.293 50.1998 23.177 49.9976C23.061 49.7955 22.9999 49.5665 23 49.3334V30.667C22.9999 30.4339 23.061 30.2049 23.177 30.0027C23.293 29.8006 23.46 29.6324 23.6613 29.515L39.6612 20.1817C39.8651 20.0627 40.097 20 40.3332 20C40.5693 20 40.8012 20.0627 41.0052 20.1817L57.005 29.515L55.661 31.8189L40.3332 22.8777L25.6666 31.4323V48.5681L40.3332 57.124L54.9997 48.5681V38.6669H57.6663V49.3334C57.6664 49.5665 57.6054 49.7955 57.4893 49.9976C57.3733 50.1998 57.2063 50.368 57.005 50.4854L41.0052 59.8187C40.8012 59.9375 40.5693 60.0001 40.3332 60Z" fill="#4F4FE6"/>
</svg>
