<svg width="130" height="127" viewBox="0 0 130 127" fill="none" xmlns="http://www.w3.org/2000/svg">
<g filter="url(#filter0_d_991_5407)">
<circle cx="65" cy="65" r="40" fill="#4F4FE6"/>
</g>
<path d="M65 45C53.954 45 45 53.954 45 65C45 76.046 53.954 85 65 85C76.046 85 85 76.046 85 65C85 53.954 76.046 45 65 45Z" stroke="white" stroke-width="3" stroke-linecap="round" stroke-linejoin="round"/>
<path d="M57 83.336V69L65 55L73 69V83.336" stroke="white" stroke-width="3" stroke-linecap="round" stroke-linejoin="round"/>
<path d="M57 69C57 69 59.254 71 61 71C62.746 71 65 69 65 69C65 69 67.254 71 69 71C70.746 71 73 69 73 69" stroke="white" stroke-width="3" stroke-linecap="round" stroke-linejoin="round"/>
<defs>
<filter id="filter0_d_991_5407" x="0" y="0" width="130" height="130" filterUnits="userSpaceOnUse" color-interpolation-filters="sRGB">
<feFlood flood-opacity="0" result="BackgroundImageFix"/>
<feColorMatrix in="SourceAlpha" type="matrix" values="0 0 0 0 0 0 0 0 0 0 0 0 0 0 0 0 0 0 127 0" result="hardAlpha"/>
<feOffset/>
<feGaussianBlur stdDeviation="12.5"/>
<feComposite in2="hardAlpha" operator="out"/>
<feColorMatrix type="matrix" values="0 0 0 0 0 0 0 0 0 0 0 0 0 0 0 0 0 0 0.25 0"/>
<feBlend mode="normal" in2="BackgroundImageFix" result="effect1_dropShadow_991_5407"/>
<feBlend mode="normal" in="SourceGraphic" in2="effect1_dropShadow_991_5407" result="shape"/>
</filter>
</defs>
</svg>
