<svg width="80" height="80" viewBox="0 0 80 80" fill="none" xmlns="http://www.w3.org/2000/svg">
<circle cx="40" cy="40" r="40" fill="#F1F1FF"/>
<path d="M51.6667 20C53.8768 20 55.9964 20.878 57.5592 22.4408C59.122 24.0036 60 26.1232 60 28.3333V31.6667C60 32.1087 59.8244 32.5326 59.5118 32.8452C59.1993 33.1577 58.7754 33.3333 58.3333 33.3333C57.8913 33.3333 57.4674 33.1577 57.1548 32.8452C56.8423 32.5326 56.6667 32.1087 56.6667 31.6667V28.3333C56.6667 27.0073 56.1399 25.7355 55.2022 24.7978C54.2645 23.8601 52.9927 23.3333 51.6667 23.3333H48.3333C47.8913 23.3333 47.4674 23.1577 47.1548 22.8452C46.8423 22.5326 46.6667 22.1087 46.6667 21.6667C46.6667 21.2246 46.8423 20.8007 47.1548 20.4882C47.4674 20.1756 47.8913 20 48.3333 20H51.6667ZM28.3333 20C26.1232 20 24.0036 20.878 22.4408 22.4408C20.878 24.0036 20 26.1232 20 28.3333V31.6667C20 32.1087 20.1756 32.5326 20.4882 32.8452C20.8007 33.1577 21.2246 33.3333 21.6667 33.3333C22.1087 33.3333 22.5326 33.1577 22.8452 32.8452C23.1577 32.5326 23.3333 32.1087 23.3333 31.6667V28.3333C23.3333 27.0073 23.8601 25.7355 24.7978 24.7978C25.7355 23.8601 27.0073 23.3333 28.3333 23.3333H31.6667C32.1087 23.3333 32.5326 23.1577 32.8452 22.8452C33.1577 22.5326 33.3333 22.1087 33.3333 21.6667C33.3333 21.2246 33.1577 20.8007 32.8452 20.4882C32.5326 20.1756 32.1087 20 31.6667 20H28.3333ZM51.6667 60C53.8768 60 55.9964 59.122 57.5592 57.5592C59.122 55.9964 60 53.8768 60 51.6667V48.3333C60 47.8913 59.8244 47.4674 59.5118 47.1548C59.1993 46.8423 58.7754 46.6667 58.3333 46.6667C57.8913 46.6667 57.4674 46.8423 57.1548 47.1548C56.8423 47.4674 56.6667 47.8913 56.6667 48.3333V51.6667C56.6667 52.9927 56.1399 54.2645 55.2022 55.2022C54.2645 56.1399 52.9927 56.6667 51.6667 56.6667H48.3333C47.8913 56.6667 47.4674 56.8423 47.1548 57.1548C46.8423 57.4674 46.6667 57.8913 46.6667 58.3333C46.6667 58.7754 46.8423 59.1993 47.1548 59.5118C47.4674 59.8244 47.8913 60 48.3333 60H51.6667ZM20 51.6667C20 53.8768 20.878 55.9964 22.4408 57.5592C24.0036 59.122 26.1232 60 28.3333 60H31.6667C32.1087 60 32.5326 59.8244 32.8452 59.5118C33.1577 59.1993 33.3333 58.7754 33.3333 58.3333C33.3333 57.8913 33.1577 57.4674 32.8452 57.1548C32.5326 56.8423 32.1087 56.6667 31.6667 56.6667H28.3333C27.0073 56.6667 25.7355 56.1399 24.7978 55.2022C23.8601 54.2645 23.3333 52.9927 23.3333 51.6667V48.3333C23.3333 47.8913 23.1577 47.4674 22.8452 47.1548C22.5326 46.8423 22.1087 46.6667 21.6667 46.6667C21.2246 46.6667 20.8007 46.8423 20.4882 47.1548C20.1756 47.4674 20 47.8913 20 48.3333V51.6667ZM40 46.6667C41.7681 46.6667 43.4638 45.9643 44.714 44.714C45.9643 43.4638 46.6667 41.7681 46.6667 40C46.6667 38.2319 45.9643 36.5362 44.714 35.286C43.4638 34.0357 41.7681 33.3333 40 33.3333C38.2319 33.3333 36.5362 34.0357 35.286 35.286C34.0357 36.5362 33.3333 38.2319 33.3333 40C33.3333 41.7681 34.0357 43.4638 35.286 44.714C36.5362 45.9643 38.2319 46.6667 40 46.6667ZM40 43.3333C39.1159 43.3333 38.2681 42.9821 37.643 42.357C37.0179 41.7319 36.6667 40.8841 36.6667 40C36.6667 39.1159 37.0179 38.2681 37.643 37.643C38.2681 37.0179 39.1159 36.6667 40 36.6667C40.8841 36.6667 41.7319 37.0179 42.357 37.643C42.9821 38.2681 43.3333 39.1159 43.3333 40C43.3333 40.8841 42.9821 41.7319 42.357 42.357C41.7319 42.9821 40.8841 43.3333 40 43.3333ZM30 32.5C30.663 32.5 31.2989 32.2366 31.7678 31.7678C32.2366 31.2989 32.5 30.663 32.5 30C32.5 29.337 32.2366 28.7011 31.7678 28.2322C31.2989 27.7634 30.663 27.5 30 27.5C29.337 27.5 28.7011 27.7634 28.2322 28.2322C27.7634 28.7011 27.5 29.337 27.5 30C27.5 30.663 27.7634 31.2989 28.2322 31.7678C28.7011 32.2366 29.337 32.5 30 32.5Z" fill="#4F4FE6"/>
</svg>
