<svg width="80" height="80" viewBox="0 0 80 80" fill="none" xmlns="http://www.w3.org/2000/svg">
<circle cx="40" cy="40" r="40" fill="#F1F1FF"/>
<path d="M40 20C28.954 20 20 28.954 20 40C20 51.046 28.954 60 40 60C51.046 60 60 51.046 60 40C60 28.954 51.046 20 40 20Z" stroke="#4F4FE6" stroke-width="3" stroke-linecap="round" stroke-linejoin="round"/>
<path d="M32 58.336V44L40 30L48 44V58.336" stroke="#4F4FE6" stroke-width="3" stroke-linecap="round" stroke-linejoin="round"/>
<path d="M32 44C32 44 34.254 46 36 46C37.746 46 40 44 40 44C40 44 42.254 46 44 46C45.746 46 48 44 48 44" stroke="#4F4FE6" stroke-width="3" stroke-linecap="round" stroke-linejoin="round"/>
</svg>
