<svg width="80" height="80" viewBox="0 0 80 80" fill="none" xmlns="http://www.w3.org/2000/svg">
<circle cx="40" cy="40" r="40" fill="#F1F1FF"/>
<path d="M24 28C25.0609 28 26.0783 27.5786 26.8284 26.8284C27.5786 26.0783 28 25.0609 28 24C28 22.9391 27.5786 21.9217 26.8284 21.1716C26.0783 20.4214 25.0609 20 24 20C22.9391 20 21.9217 20.4214 21.1716 21.1716C20.4214 21.9217 20 22.9391 20 24C20 25.0609 20.4214 26.0783 21.1716 26.8284C21.9217 27.5786 22.9391 28 24 28ZM26 58C27.5913 58 29.1174 57.3679 30.2426 56.2426C31.3679 55.1174 32 53.5913 32 52C32 50.4087 31.3679 48.8826 30.2426 47.7574C29.1174 46.6321 27.5913 46 26 46C24.4087 46 22.8826 46.6321 21.7574 47.7574C20.6321 48.8826 20 50.4087 20 52C20 53.5913 20.6321 55.1174 21.7574 56.2426C22.8826 57.3679 24.4087 58 26 58ZM54 60C55.5913 60 57.1174 59.3679 58.2426 58.2426C59.3679 57.1174 60 55.5913 60 54C60 52.4087 59.3679 50.8826 58.2426 49.7574C57.1174 48.6321 55.5913 48 54 48C52.4087 48 50.8826 48.6321 49.7574 49.7574C48.6321 50.8826 48 52.4087 48 54C48 55.5913 48.6321 57.1174 49.7574 58.2426C50.8826 59.3679 52.4087 60 54 60ZM38 44C40.1217 44 42.1566 43.1571 43.6569 41.6569C45.1571 40.1566 46 38.1217 46 36C46 33.8783 45.1571 31.8434 43.6569 30.3431C42.1566 28.8429 40.1217 28 38 28C35.8783 28 33.8434 28.8429 32.3431 30.3431C30.8429 31.8434 30 33.8783 30 36C30 38.1217 30.8429 40.1566 32.3431 41.6569C33.8434 43.1571 35.8783 44 38 44ZM50 28C51.0609 28 52.0783 27.5786 52.8284 26.8284C53.5786 26.0783 54 25.0609 54 24C54 22.9391 53.5786 21.9217 52.8284 21.1716C52.0783 20.4214 51.0609 20 50 20C48.9391 20 47.9217 20.4214 47.1716 21.1716C46.4214 21.9217 46 22.9391 46 24C46 25.0609 46.4214 26.0783 47.1716 26.8284C47.9217 27.5786 48.9391 28 50 28Z" stroke="#4F4FE6" stroke-width="3" stroke-linecap="round" stroke-linejoin="round"/>
<path d="M27 27L31 31M46 28L44 30M50 49.5L44 42M30 47L34 43" stroke="#4F4FE6" stroke-width="3" stroke-linecap="round" stroke-linejoin="round"/>
</svg>
