<svg width="80" height="80" viewBox="0 0 80 80" fill="none" xmlns="http://www.w3.org/2000/svg">
<circle cx="40" cy="40" r="40" fill="#F1F1FF"/>
<path d="M22.4375 48.6301L56.5818 29.6089L57.0581 31.4161L23.0084 50.1536L22.4375 48.6301Z" fill="#4F4FE6"/>
<path d="M22.6309 31.5101L56.488 50.4368L56.7752 48.7241L22.3438 29.561L22.6309 31.5101Z" fill="#4F4FE6"/>
<path d="M40.5537 22.6206L38.6992 22.8571V57.9539L40.4118 57.7141L40.5537 22.6206Z" fill="#4F4FE6"/>
<path d="M48.5457 40.2633C48.4984 38.1724 49.2719 35.72 48.8801 35.0782C48.4984 34.46 45.6947 33.6054 44.0766 32.7001C42.739 31.9536 40.5568 29.4809 39.5603 29.562C38.3713 29.6566 37.135 31.653 35.1859 32.7474C33.2368 33.8419 30.9297 34.0378 30.4297 34.9836C30.0007 35.7909 30.7135 38.1217 30.7641 39.8816C30.8351 42.4962 30.0514 44.827 30.4297 45.3978C30.8114 45.9687 33.2233 46.32 34.9933 47.4415C36.9424 48.6778 38.7023 50.5796 39.6076 50.5796C40.5129 50.5796 42.4282 48.2826 44.3638 47.3469C45.8366 46.6342 48.2146 45.587 48.8328 45.0161C49.4476 44.4452 48.5997 42.5907 48.5457 40.2633ZM47.1202 44.0196C46.7858 44.4013 44.7083 45.5059 43.3639 46.2085C42.1749 46.8267 40.4622 48.4447 39.513 48.492C38.5132 48.5393 37.0302 47.0328 35.9459 46.3504C34.6623 45.5431 32.2437 44.827 32.0005 44.2595C31.7167 43.594 32.2369 41.0741 32.2369 39.5506C32.2369 38.267 31.8079 36.2233 32.0951 35.6997C32.3788 35.1762 34.6623 34.6053 36.0405 33.8452C37.7058 32.9264 38.7023 31.7036 39.6076 31.7036C40.4622 31.7036 41.8911 33.0818 43.222 33.8452C44.7387 34.71 46.7891 35.6052 47.1202 36.176C47.4546 36.7469 47.0729 38.7906 47.1202 40.1215C47.1708 41.5909 47.4512 43.6379 47.1202 44.0196Z" fill="#4F4FE6"/>
<path d="M55.9628 39.4991C56.2871 34.9456 58.1517 31.8413 58.4355 31.3211C58.7192 30.8009 59.4657 30.0544 59.0232 29.1964C58.6044 28.389 57.5032 28.6559 56.4864 28.6559C55.7872 28.6559 50.6425 28.2607 47.8321 26.9906C44.8831 25.6597 41.9342 22.9472 41.4106 21.9507C40.887 20.9542 40.4107 20.0489 39.6034 20.0016C38.7015 19.9475 38.0833 21.2852 37.7016 22.0925C37.3199 22.8999 34.9418 25.2779 32.0909 26.7068C29.0473 28.2303 23.9601 28.8484 22.8657 28.8957C21.957 28.9363 20.7241 28.7539 20.3457 29.5139C20.0214 30.1625 20.8355 31.1083 21.2983 31.892C21.7746 32.6993 23.4399 36.361 23.342 40.2152C23.2305 44.6842 21.3456 47.7751 20.9639 48.3932C20.5822 49.0114 19.6262 49.9336 20.1566 50.849C20.6329 51.6732 21.6766 51.4368 22.5346 51.3895C23.5886 51.3321 28.5744 51.6732 31.4761 53.1021C33.8812 54.2844 36.3741 56.7165 37.374 57.8582C38.3738 59 38.7387 60.0134 39.6575 59.9999C40.7654 59.9796 41.083 58.7162 41.6876 57.8582C42.0997 57.2739 44.7953 54.2438 48.028 52.8183C50.423 51.7611 55.5406 51.3658 56.0641 51.3456C57.1586 51.2983 58.4895 51.582 58.8712 50.822C59.2529 50.0619 58.3139 48.9371 58.0166 48.4439C57.1991 47.1096 55.6791 43.4952 55.9628 39.4991ZM55.2974 48.9168C54.4495 50.1903 50.3047 49.7714 47.0214 51.2949C43.7042 52.8319 41.3126 56.4699 39.6507 56.5273C38.2252 56.5746 35.56 52.7711 32.1854 51.3456C28.6014 49.8322 23.9601 49.9674 23.4366 48.9202C22.913 47.873 25.3383 44.3566 25.2438 40.124C25.1525 36.0806 23.0481 32.1453 23.7237 31.1353C24.3891 30.1354 29.8107 29.9463 32.7124 28.6154C35.1141 27.5141 38.6103 23.8592 39.6541 23.8592C40.8904 23.8592 43.8191 26.9635 46.4066 28.3451C48.9907 29.7233 54.6319 30.4226 55.2534 31.4191C55.8716 32.4189 53.8854 36.5535 53.9225 39.9788C53.9664 44.3971 55.9628 47.9169 55.2974 48.9168Z" fill="#4F4FE6"/>
</svg>
