<svg width="130" height="127" viewBox="0 0 130 127" fill="none" xmlns="http://www.w3.org/2000/svg">
<g filter="url(#filter0_d_991_5389)">
<circle cx="65" cy="62" r="40" fill="#4F4FE6"/>
</g>
<path d="M49 50C50.0609 50 51.0783 49.5786 51.8284 48.8284C52.5786 48.0783 53 47.0609 53 46C53 44.9391 52.5786 43.9217 51.8284 43.1716C51.0783 42.4214 50.0609 42 49 42C47.9391 42 46.9217 42.4214 46.1716 43.1716C45.4214 43.9217 45 44.9391 45 46C45 47.0609 45.4214 48.0783 46.1716 48.8284C46.9217 49.5786 47.9391 50 49 50ZM51 80C52.5913 80 54.1174 79.3679 55.2426 78.2426C56.3679 77.1174 57 75.5913 57 74C57 72.4087 56.3679 70.8826 55.2426 69.7574C54.1174 68.6321 52.5913 68 51 68C49.4087 68 47.8826 68.6321 46.7574 69.7574C45.6321 70.8826 45 72.4087 45 74C45 75.5913 45.6321 77.1174 46.7574 78.2426C47.8826 79.3679 49.4087 80 51 80ZM79 82C80.5913 82 82.1174 81.3679 83.2426 80.2426C84.3679 79.1174 85 77.5913 85 76C85 74.4087 84.3679 72.8826 83.2426 71.7574C82.1174 70.6321 80.5913 70 79 70C77.4087 70 75.8826 70.6321 74.7574 71.7574C73.6321 72.8826 73 74.4087 73 76C73 77.5913 73.6321 79.1174 74.7574 80.2426C75.8826 81.3679 77.4087 82 79 82ZM63 66C65.1217 66 67.1566 65.1571 68.6569 63.6569C70.1571 62.1566 71 60.1217 71 58C71 55.8783 70.1571 53.8434 68.6569 52.3431C67.1566 50.8429 65.1217 50 63 50C60.8783 50 58.8434 50.8429 57.3431 52.3431C55.8429 53.8434 55 55.8783 55 58C55 60.1217 55.8429 62.1566 57.3431 63.6569C58.8434 65.1571 60.8783 66 63 66ZM75 50C76.0609 50 77.0783 49.5786 77.8284 48.8284C78.5786 48.0783 79 47.0609 79 46C79 44.9391 78.5786 43.9217 77.8284 43.1716C77.0783 42.4214 76.0609 42 75 42C73.9391 42 72.9217 42.4214 72.1716 43.1716C71.4214 43.9217 71 44.9391 71 46C71 47.0609 71.4214 48.0783 72.1716 48.8284C72.9217 49.5786 73.9391 50 75 50Z" stroke="white" stroke-width="3" stroke-linecap="round" stroke-linejoin="round"/>
<path d="M52 49L56 53M71 50L69 52M75 71.5L69 64M55 69L59 65" stroke="white" stroke-width="3" stroke-linecap="round" stroke-linejoin="round"/>
<defs>
<filter id="filter0_d_991_5389" x="0" y="-3" width="130" height="130" filterUnits="userSpaceOnUse" color-interpolation-filters="sRGB">
<feFlood flood-opacity="0" result="BackgroundImageFix"/>
<feColorMatrix in="SourceAlpha" type="matrix" values="0 0 0 0 0 0 0 0 0 0 0 0 0 0 0 0 0 0 127 0" result="hardAlpha"/>
<feOffset/>
<feGaussianBlur stdDeviation="12.5"/>
<feComposite in2="hardAlpha" operator="out"/>
<feColorMatrix type="matrix" values="0 0 0 0 0 0 0 0 0 0 0 0 0 0 0 0 0 0 0.25 0"/>
<feBlend mode="normal" in2="BackgroundImageFix" result="effect1_dropShadow_991_5389"/>
<feBlend mode="normal" in="SourceGraphic" in2="effect1_dropShadow_991_5389" result="shape"/>
</filter>
</defs>
</svg>
